M48
INCH,TZ
T10C0.035
T11C0.016
T12C0.040
%
T10
X013858Y018168
X015590Y018169
T11
X001251Y012603
X001271Y013043
X001276Y013043
X001301Y012163
X001451Y013438
X001611Y011873
X001891Y005483
X001911Y006998
X001911Y006313
X001921Y007733
X001931Y009153
X001956Y008453
X001959Y009960
X002061Y011073
X002064Y011743
X002066Y011408
X002431Y004298
X002766Y007008
X002775Y008479
X002781Y009963
X002781Y005478
X002801Y011388
X002806Y011058
X002811Y011728
X003241Y011863
X003381Y003638
X003461Y013413
X003581Y012168
X003581Y002938
X003586Y013048
X003601Y012628
X003616Y008428
X003616Y007738
X003616Y007013
X003621Y005508
X003626Y009158
X003626Y006348
X003641Y009943
X004321Y005518
X004381Y003338
X004451Y009978
X004467Y008369
X004467Y007023
X004481Y003838
X005274Y005509
X005286Y007013
X005296Y009978
X005296Y008373
X005581Y003238
X006181Y003038
X006531Y008718
X006681Y010638
X007521Y001938
X011496Y019528
X011732Y009843
X011890Y008307
X012008Y013268
X012402Y013268
X012480Y010197
X012638Y016063
X012677Y018307
X012913Y015787
X013110Y013228
X013819Y008583
X014094Y008268
X014409Y009370
X014409Y007953
X014724Y009843
X014764Y013583
X015157Y007677
X015157Y007283
X015281Y012238
X015591Y009685
X015748Y009331
X015881Y011938
X016535Y013228
X016614Y012402
X016811Y011811
X017008Y004685
X017067Y008484
X017165Y007992
X017362Y006457
X017441Y010827
X017638Y010472
X017756Y013150
X018031Y010276
X018189Y005315
X018228Y006535
X018307Y013465
X018831Y005488
T12
X000945Y019538
X000945Y014538
X001945Y019438
X001945Y014438
X002081Y002433
X002081Y001433
X002945Y019538
X002945Y014538
X003081Y002433
X003081Y001433
X003945Y019438
X003945Y014438
X004081Y002433
X004081Y001433
X004945Y019538
X004945Y014538
X005081Y002433
X005081Y001433
X005945Y019438
X005945Y014438
X006945Y019538
X006945Y014538
X007945Y019438
X007945Y014438
X008081Y010738
X008081Y009738
X008081Y008738
X008081Y007738
X008081Y006738
X008081Y005738
X008081Y004738
X008081Y003738
X010315Y012992
X010315Y011992
X010315Y010992
X010315Y009992
X010315Y008992
X010315Y007992
X010315Y006992
X010315Y005992
X010315Y004992
X010315Y003992
X010315Y002992
X010315Y001992
X010315Y000992
X012135Y006181
X012174Y005197
X012174Y004173
X012283Y002215
X012283Y001220
X013275Y006181
X013283Y002115
X013283Y001120
X013314Y005197
X013314Y004173
X014283Y002215
X014283Y001220
X015229Y004213
X015283Y002115
X015283Y001120
X016283Y001220
X016369Y004213
X017283Y001120
X019331Y012984
X019331Y011984
X019331Y010984
X019331Y009984
X019331Y008984
X019331Y007984
X019331Y006984
X019331Y005984
X019331Y004984
X019331Y003984
X019331Y002984
X019331Y001984
X019331Y000984
M30

