G04 (created by PCBNEW (2013-mar-13)-testing) date Thu 22 Aug 2013 04:52:17 PM WEST*
%MOIN*%
G04 Gerber Fmt 3.4, Leading zero omitted, Abs format*
%FSLAX34Y34*%
G01*
G70*
G90*
G04 APERTURE LIST*
%ADD10C,0.005906*%
%ADD11C,0.004724*%
%ADD12C,0.003937*%
%ADD13C,0.007874*%
%ADD14C,0.003900*%
%ADD15C,0.005000*%
%ADD16C,0.002600*%
%ADD17C,0.008000*%
%ADD18C,0.035400*%
%ADD19O,0.074000X0.074000*%
%ADD20R,0.055000X0.035000*%
%ADD21R,0.035000X0.055000*%
%ADD22R,0.055100X0.023600*%
%ADD23R,0.048000X0.088000*%
%ADD24R,0.141700X0.086600*%
%ADD25R,0.025000X0.045000*%
%ADD26R,0.039400X0.023600*%
%ADD27R,0.045000X0.025000*%
%ADD28R,0.015700X0.062900*%
G04 APERTURE END LIST*
G54D10*
G54D11*
X12373Y9717D02*
X12163Y9717D01*
X12058Y9717D02*
X12073Y9732D01*
X12088Y9717D01*
X12073Y9702D01*
X12058Y9717D01*
X12088Y9717D01*
X12088Y9582D02*
X12073Y9567D01*
X12058Y9537D01*
X12058Y9462D01*
X12073Y9432D01*
X12088Y9417D01*
X12118Y9402D01*
X12148Y9402D01*
X12193Y9417D01*
X12373Y9597D01*
X12373Y9402D01*
X12358Y9132D02*
X12373Y9162D01*
X12373Y9222D01*
X12358Y9252D01*
X12343Y9267D01*
X12313Y9282D01*
X12223Y9282D01*
X12193Y9267D01*
X12178Y9252D01*
X12163Y9222D01*
X12163Y9162D01*
X12178Y9132D01*
X12373Y8757D02*
X12058Y8757D01*
X12058Y8637D01*
X12073Y8607D01*
X12088Y8592D01*
X12118Y8577D01*
X12163Y8577D01*
X12193Y8592D01*
X12208Y8607D01*
X12223Y8637D01*
X12223Y8757D01*
X12163Y8307D02*
X12373Y8307D01*
X12163Y8442D02*
X12328Y8442D01*
X12358Y8427D01*
X12373Y8397D01*
X12373Y8352D01*
X12358Y8322D01*
X12343Y8307D01*
X12373Y8112D02*
X12358Y8142D01*
X12328Y8157D01*
X12058Y8157D01*
X12373Y7947D02*
X12358Y7977D01*
X12328Y7992D01*
X12058Y7992D01*
X12163Y7692D02*
X12373Y7692D01*
X12163Y7827D02*
X12328Y7827D01*
X12358Y7812D01*
X12373Y7782D01*
X12373Y7737D01*
X12358Y7707D01*
X12343Y7692D01*
X12163Y7542D02*
X12478Y7542D01*
X12178Y7542D02*
X12163Y7512D01*
X12163Y7452D01*
X12178Y7422D01*
X12193Y7407D01*
X12223Y7392D01*
X12313Y7392D01*
X12343Y7407D01*
X12358Y7422D01*
X12373Y7452D01*
X12373Y7512D01*
X12358Y7542D01*
X12343Y7257D02*
X12358Y7242D01*
X12373Y7257D01*
X12358Y7272D01*
X12343Y7257D01*
X12373Y7257D01*
X12178Y7257D02*
X12193Y7242D01*
X12208Y7257D01*
X12193Y7272D01*
X12178Y7257D01*
X12208Y7257D01*
X12923Y9765D02*
X12608Y9765D01*
X12608Y9645D01*
X12623Y9615D01*
X12638Y9600D01*
X12668Y9585D01*
X12713Y9585D01*
X12743Y9600D01*
X12758Y9615D01*
X12773Y9645D01*
X12773Y9765D01*
X12893Y9270D02*
X12908Y9285D01*
X12923Y9330D01*
X12923Y9360D01*
X12908Y9405D01*
X12878Y9435D01*
X12848Y9450D01*
X12788Y9465D01*
X12743Y9465D01*
X12683Y9450D01*
X12653Y9435D01*
X12623Y9405D01*
X12608Y9360D01*
X12608Y9330D01*
X12623Y9285D01*
X12638Y9270D01*
X12923Y8985D02*
X12923Y9135D01*
X12608Y9135D01*
X12893Y8880D02*
X12908Y8865D01*
X12923Y8880D01*
X12908Y8895D01*
X12893Y8880D01*
X12923Y8880D01*
X12728Y8880D02*
X12743Y8865D01*
X12758Y8880D01*
X12743Y8895D01*
X12728Y8880D01*
X12758Y8880D01*
X12893Y8070D02*
X12908Y8085D01*
X12923Y8130D01*
X12923Y8160D01*
X12908Y8205D01*
X12878Y8235D01*
X12848Y8250D01*
X12788Y8265D01*
X12743Y8265D01*
X12683Y8250D01*
X12653Y8235D01*
X12623Y8205D01*
X12608Y8160D01*
X12608Y8130D01*
X12623Y8085D01*
X12638Y8070D01*
X12923Y7890D02*
X12908Y7920D01*
X12878Y7935D01*
X12608Y7935D01*
X12923Y7725D02*
X12908Y7755D01*
X12893Y7770D01*
X12863Y7785D01*
X12773Y7785D01*
X12743Y7770D01*
X12728Y7755D01*
X12713Y7725D01*
X12713Y7680D01*
X12728Y7650D01*
X12743Y7635D01*
X12773Y7620D01*
X12863Y7620D01*
X12893Y7635D01*
X12908Y7650D01*
X12923Y7680D01*
X12923Y7725D01*
X12908Y7350D02*
X12923Y7380D01*
X12923Y7440D01*
X12908Y7470D01*
X12893Y7485D01*
X12863Y7500D01*
X12773Y7500D01*
X12743Y7485D01*
X12728Y7470D01*
X12713Y7440D01*
X12713Y7380D01*
X12728Y7350D01*
X12923Y7215D02*
X12608Y7215D01*
X12803Y7185D02*
X12923Y7095D01*
X12713Y7095D02*
X12833Y7215D01*
X13411Y9660D02*
X13096Y9660D01*
X13096Y9540D01*
X13111Y9510D01*
X13126Y9495D01*
X13156Y9480D01*
X13201Y9480D01*
X13231Y9495D01*
X13246Y9510D01*
X13261Y9540D01*
X13261Y9660D01*
X13411Y9345D02*
X13096Y9345D01*
X13096Y9270D01*
X13111Y9225D01*
X13141Y9195D01*
X13171Y9180D01*
X13231Y9165D01*
X13276Y9165D01*
X13336Y9180D01*
X13366Y9195D01*
X13396Y9225D01*
X13411Y9270D01*
X13411Y9345D01*
X13321Y9045D02*
X13321Y8895D01*
X13411Y9075D02*
X13096Y8970D01*
X13411Y8865D01*
X13381Y8760D02*
X13396Y8745D01*
X13411Y8760D01*
X13396Y8775D01*
X13381Y8760D01*
X13411Y8760D01*
X13216Y8760D02*
X13231Y8745D01*
X13246Y8760D01*
X13231Y8775D01*
X13216Y8760D01*
X13246Y8760D01*
X13411Y8130D02*
X13096Y8130D01*
X13096Y8055D01*
X13111Y8010D01*
X13141Y7980D01*
X13171Y7965D01*
X13231Y7950D01*
X13276Y7950D01*
X13336Y7965D01*
X13366Y7980D01*
X13396Y8010D01*
X13411Y8055D01*
X13411Y8130D01*
X13411Y7680D02*
X13246Y7680D01*
X13216Y7695D01*
X13201Y7725D01*
X13201Y7785D01*
X13216Y7815D01*
X13396Y7680D02*
X13411Y7710D01*
X13411Y7785D01*
X13396Y7815D01*
X13366Y7830D01*
X13336Y7830D01*
X13306Y7815D01*
X13291Y7785D01*
X13291Y7710D01*
X13276Y7680D01*
X13201Y7575D02*
X13201Y7455D01*
X13096Y7530D02*
X13366Y7530D01*
X13396Y7515D01*
X13411Y7485D01*
X13411Y7455D01*
X13411Y7215D02*
X13246Y7215D01*
X13216Y7230D01*
X13201Y7260D01*
X13201Y7320D01*
X13216Y7350D01*
X13396Y7215D02*
X13411Y7245D01*
X13411Y7320D01*
X13396Y7350D01*
X13366Y7365D01*
X13336Y7365D01*
X13306Y7350D01*
X13291Y7320D01*
X13291Y7245D01*
X13276Y7215D01*
X11423Y10210D02*
X11108Y10210D01*
X11108Y10090D01*
X11123Y10060D01*
X11138Y10045D01*
X11168Y10030D01*
X11213Y10030D01*
X11243Y10045D01*
X11258Y10060D01*
X11273Y10090D01*
X11273Y10210D01*
X11108Y9940D02*
X11108Y9760D01*
X11423Y9850D02*
X11108Y9850D01*
X11393Y9655D02*
X11408Y9640D01*
X11423Y9655D01*
X11408Y9670D01*
X11393Y9655D01*
X11423Y9655D01*
X11228Y9655D02*
X11243Y9640D01*
X11258Y9655D01*
X11243Y9670D01*
X11228Y9655D01*
X11258Y9655D01*
X11423Y9505D02*
X11108Y9505D01*
X11108Y9385D01*
X11123Y9355D01*
X11138Y9340D01*
X11168Y9325D01*
X11213Y9325D01*
X11243Y9340D01*
X11258Y9355D01*
X11273Y9385D01*
X11273Y9505D01*
X11423Y9145D02*
X11408Y9175D01*
X11393Y9190D01*
X11363Y9205D01*
X11273Y9205D01*
X11243Y9190D01*
X11228Y9175D01*
X11213Y9145D01*
X11213Y9100D01*
X11228Y9070D01*
X11243Y9055D01*
X11273Y9040D01*
X11363Y9040D01*
X11393Y9055D01*
X11408Y9070D01*
X11423Y9100D01*
X11423Y9145D01*
X11213Y8935D02*
X11423Y8875D01*
X11273Y8815D01*
X11423Y8755D01*
X11213Y8695D01*
X11408Y8455D02*
X11423Y8485D01*
X11423Y8545D01*
X11408Y8575D01*
X11378Y8590D01*
X11258Y8590D01*
X11228Y8575D01*
X11213Y8545D01*
X11213Y8485D01*
X11228Y8455D01*
X11258Y8440D01*
X11288Y8440D01*
X11318Y8590D01*
X11423Y8305D02*
X11213Y8305D01*
X11273Y8305D02*
X11243Y8290D01*
X11228Y8275D01*
X11213Y8245D01*
X11213Y8215D01*
X11108Y7915D02*
X11108Y7735D01*
X11423Y7825D02*
X11108Y7825D01*
X11423Y7495D02*
X11258Y7495D01*
X11228Y7510D01*
X11213Y7540D01*
X11213Y7600D01*
X11228Y7630D01*
X11408Y7495D02*
X11423Y7525D01*
X11423Y7600D01*
X11408Y7630D01*
X11378Y7645D01*
X11348Y7645D01*
X11318Y7630D01*
X11303Y7600D01*
X11303Y7525D01*
X11288Y7495D01*
X11423Y7345D02*
X11213Y7345D01*
X11273Y7345D02*
X11243Y7330D01*
X11228Y7315D01*
X11213Y7285D01*
X11213Y7255D01*
X11213Y7015D02*
X11468Y7015D01*
X11498Y7030D01*
X11513Y7045D01*
X11528Y7075D01*
X11528Y7120D01*
X11513Y7150D01*
X11408Y7015D02*
X11423Y7045D01*
X11423Y7105D01*
X11408Y7135D01*
X11393Y7150D01*
X11363Y7165D01*
X11273Y7165D01*
X11243Y7150D01*
X11228Y7135D01*
X11213Y7105D01*
X11213Y7045D01*
X11228Y7015D01*
X11408Y6745D02*
X11423Y6775D01*
X11423Y6835D01*
X11408Y6865D01*
X11378Y6880D01*
X11258Y6880D01*
X11228Y6865D01*
X11213Y6835D01*
X11213Y6775D01*
X11228Y6745D01*
X11258Y6730D01*
X11288Y6730D01*
X11318Y6880D01*
X11213Y6640D02*
X11213Y6520D01*
X11108Y6595D02*
X11378Y6595D01*
X11408Y6580D01*
X11423Y6550D01*
X11423Y6520D01*
G54D10*
X8127Y12609D02*
X8127Y12845D01*
X8025Y12609D02*
X8025Y12733D01*
X8037Y12755D01*
X8059Y12767D01*
X8093Y12767D01*
X8115Y12755D01*
X8127Y12744D01*
X7947Y12767D02*
X7857Y12767D01*
X7913Y12845D02*
X7913Y12643D01*
X7902Y12620D01*
X7879Y12609D01*
X7857Y12609D01*
X7812Y12767D02*
X7722Y12767D01*
X7778Y12845D02*
X7778Y12643D01*
X7767Y12620D01*
X7744Y12609D01*
X7722Y12609D01*
X7643Y12767D02*
X7643Y12530D01*
X7643Y12755D02*
X7620Y12767D01*
X7575Y12767D01*
X7553Y12755D01*
X7542Y12744D01*
X7530Y12722D01*
X7530Y12654D01*
X7542Y12632D01*
X7553Y12620D01*
X7575Y12609D01*
X7620Y12609D01*
X7643Y12620D01*
X7440Y12620D02*
X7418Y12609D01*
X7373Y12609D01*
X7350Y12620D01*
X7339Y12643D01*
X7339Y12654D01*
X7350Y12677D01*
X7373Y12688D01*
X7407Y12688D01*
X7429Y12699D01*
X7440Y12722D01*
X7440Y12733D01*
X7429Y12755D01*
X7407Y12767D01*
X7373Y12767D01*
X7350Y12755D01*
X7238Y12632D02*
X7227Y12620D01*
X7238Y12609D01*
X7249Y12620D01*
X7238Y12632D01*
X7238Y12609D01*
X7238Y12755D02*
X7227Y12744D01*
X7238Y12733D01*
X7249Y12744D01*
X7238Y12755D01*
X7238Y12733D01*
X6957Y12857D02*
X7159Y12553D01*
X6709Y12857D02*
X6912Y12553D01*
X6529Y12767D02*
X6529Y12575D01*
X6541Y12553D01*
X6552Y12542D01*
X6574Y12530D01*
X6608Y12530D01*
X6631Y12542D01*
X6529Y12620D02*
X6552Y12609D01*
X6597Y12609D01*
X6619Y12620D01*
X6631Y12632D01*
X6642Y12654D01*
X6642Y12722D01*
X6631Y12744D01*
X6619Y12755D01*
X6597Y12767D01*
X6552Y12767D01*
X6529Y12755D01*
X6417Y12609D02*
X6417Y12767D01*
X6417Y12845D02*
X6428Y12834D01*
X6417Y12823D01*
X6406Y12834D01*
X6417Y12845D01*
X6417Y12823D01*
X6338Y12767D02*
X6248Y12767D01*
X6304Y12845D02*
X6304Y12643D01*
X6293Y12620D01*
X6271Y12609D01*
X6248Y12609D01*
X6169Y12609D02*
X6169Y12845D01*
X6068Y12609D02*
X6068Y12733D01*
X6079Y12755D01*
X6102Y12767D01*
X6136Y12767D01*
X6158Y12755D01*
X6169Y12744D01*
X5854Y12767D02*
X5854Y12609D01*
X5956Y12767D02*
X5956Y12643D01*
X5944Y12620D01*
X5922Y12609D01*
X5888Y12609D01*
X5866Y12620D01*
X5854Y12632D01*
X5742Y12609D02*
X5742Y12845D01*
X5742Y12755D02*
X5719Y12767D01*
X5674Y12767D01*
X5652Y12755D01*
X5641Y12744D01*
X5629Y12722D01*
X5629Y12654D01*
X5641Y12632D01*
X5652Y12620D01*
X5674Y12609D01*
X5719Y12609D01*
X5742Y12620D01*
X5528Y12632D02*
X5517Y12620D01*
X5528Y12609D01*
X5539Y12620D01*
X5528Y12632D01*
X5528Y12609D01*
X5314Y12620D02*
X5337Y12609D01*
X5382Y12609D01*
X5404Y12620D01*
X5416Y12632D01*
X5427Y12654D01*
X5427Y12722D01*
X5416Y12744D01*
X5404Y12755D01*
X5382Y12767D01*
X5337Y12767D01*
X5314Y12755D01*
X5179Y12609D02*
X5202Y12620D01*
X5213Y12632D01*
X5224Y12654D01*
X5224Y12722D01*
X5213Y12744D01*
X5202Y12755D01*
X5179Y12767D01*
X5146Y12767D01*
X5123Y12755D01*
X5112Y12744D01*
X5101Y12722D01*
X5101Y12654D01*
X5112Y12632D01*
X5123Y12620D01*
X5146Y12609D01*
X5179Y12609D01*
X5000Y12609D02*
X5000Y12767D01*
X5000Y12744D02*
X4988Y12755D01*
X4966Y12767D01*
X4932Y12767D01*
X4910Y12755D01*
X4898Y12733D01*
X4898Y12609D01*
X4898Y12733D02*
X4887Y12755D01*
X4865Y12767D01*
X4831Y12767D01*
X4808Y12755D01*
X4797Y12733D01*
X4797Y12609D01*
X4516Y12857D02*
X4718Y12553D01*
X8312Y12219D02*
X8312Y12456D01*
X8312Y12366D02*
X8290Y12377D01*
X8245Y12377D01*
X8222Y12366D01*
X8211Y12354D01*
X8200Y12332D01*
X8200Y12264D01*
X8211Y12242D01*
X8222Y12231D01*
X8245Y12219D01*
X8290Y12219D01*
X8312Y12231D01*
X8098Y12219D02*
X8098Y12377D01*
X8098Y12332D02*
X8087Y12354D01*
X8076Y12366D01*
X8053Y12377D01*
X8031Y12377D01*
X7952Y12219D02*
X7952Y12456D01*
X7817Y12219D01*
X7817Y12456D01*
X7727Y12456D02*
X7570Y12219D01*
X7570Y12456D02*
X7727Y12219D01*
X7311Y12467D02*
X7514Y12163D01*
X7131Y12231D02*
X7154Y12219D01*
X7199Y12219D01*
X7221Y12231D01*
X7232Y12242D01*
X7244Y12264D01*
X7244Y12332D01*
X7232Y12354D01*
X7221Y12366D01*
X7199Y12377D01*
X7154Y12377D01*
X7131Y12366D01*
X6929Y12231D02*
X6951Y12219D01*
X6996Y12219D01*
X7019Y12231D01*
X7030Y12242D01*
X7041Y12264D01*
X7041Y12332D01*
X7030Y12354D01*
X7019Y12366D01*
X6996Y12377D01*
X6951Y12377D01*
X6929Y12366D01*
X6850Y12456D02*
X6704Y12456D01*
X6782Y12366D01*
X6749Y12366D01*
X6726Y12354D01*
X6715Y12343D01*
X6704Y12321D01*
X6704Y12264D01*
X6715Y12242D01*
X6726Y12231D01*
X6749Y12219D01*
X6816Y12219D01*
X6839Y12231D01*
X6850Y12242D01*
X6557Y12456D02*
X6535Y12456D01*
X6512Y12444D01*
X6501Y12433D01*
X6490Y12411D01*
X6479Y12366D01*
X6479Y12309D01*
X6490Y12264D01*
X6501Y12242D01*
X6512Y12231D01*
X6535Y12219D01*
X6557Y12219D01*
X6580Y12231D01*
X6591Y12242D01*
X6602Y12264D01*
X6614Y12309D01*
X6614Y12366D01*
X6602Y12411D01*
X6591Y12433D01*
X6580Y12444D01*
X6557Y12456D01*
X6332Y12456D02*
X6310Y12456D01*
X6287Y12444D01*
X6276Y12433D01*
X6265Y12411D01*
X6254Y12366D01*
X6254Y12309D01*
X6265Y12264D01*
X6276Y12242D01*
X6287Y12231D01*
X6310Y12219D01*
X6332Y12219D01*
X6355Y12231D01*
X6366Y12242D01*
X6377Y12264D01*
X6389Y12309D01*
X6389Y12366D01*
X6377Y12411D01*
X6366Y12433D01*
X6355Y12444D01*
X6332Y12456D01*
X6107Y12456D02*
X6085Y12456D01*
X6062Y12444D01*
X6051Y12433D01*
X6040Y12411D01*
X6029Y12366D01*
X6029Y12309D01*
X6040Y12264D01*
X6051Y12242D01*
X6062Y12231D01*
X6085Y12219D01*
X6107Y12219D01*
X6130Y12231D01*
X6141Y12242D01*
X6152Y12264D01*
X6164Y12309D01*
X6164Y12366D01*
X6152Y12411D01*
X6141Y12433D01*
X6130Y12444D01*
X6107Y12456D01*
X5928Y12309D02*
X5748Y12309D01*
X5669Y12377D02*
X5579Y12377D01*
X5635Y12219D02*
X5635Y12422D01*
X5624Y12444D01*
X5601Y12456D01*
X5579Y12456D01*
X5534Y12377D02*
X5444Y12377D01*
X5500Y12456D02*
X5500Y12253D01*
X5489Y12231D01*
X5466Y12219D01*
X5444Y12219D01*
X5376Y12433D02*
X5365Y12444D01*
X5343Y12456D01*
X5286Y12456D01*
X5264Y12444D01*
X5253Y12433D01*
X5241Y12411D01*
X5241Y12388D01*
X5253Y12354D01*
X5388Y12219D01*
X5241Y12219D01*
X5163Y12456D02*
X5016Y12456D01*
X5095Y12366D01*
X5061Y12366D01*
X5039Y12354D01*
X5028Y12343D01*
X5016Y12321D01*
X5016Y12264D01*
X5028Y12242D01*
X5039Y12231D01*
X5061Y12219D01*
X5129Y12219D01*
X5151Y12231D01*
X5163Y12242D01*
X4926Y12433D02*
X4915Y12444D01*
X4893Y12456D01*
X4836Y12456D01*
X4814Y12444D01*
X4803Y12433D01*
X4791Y12411D01*
X4791Y12388D01*
X4803Y12354D01*
X4938Y12219D01*
X4791Y12219D01*
X4690Y12219D02*
X4690Y12456D01*
X4589Y12219D02*
X4589Y12343D01*
X4600Y12366D01*
X4623Y12377D01*
X4656Y12377D01*
X4679Y12366D01*
X4690Y12354D01*
X4375Y12377D02*
X4375Y12219D01*
X4431Y12467D02*
X4488Y12298D01*
X4341Y12298D01*
X19669Y19280D02*
X19669Y19517D01*
X19568Y19280D02*
X19568Y19404D01*
X19579Y19427D01*
X19602Y19438D01*
X19635Y19438D01*
X19658Y19427D01*
X19669Y19415D01*
X19489Y19438D02*
X19399Y19438D01*
X19455Y19517D02*
X19455Y19314D01*
X19444Y19292D01*
X19422Y19280D01*
X19399Y19280D01*
X19354Y19438D02*
X19264Y19438D01*
X19320Y19517D02*
X19320Y19314D01*
X19309Y19292D01*
X19287Y19280D01*
X19264Y19280D01*
X19185Y19438D02*
X19185Y19202D01*
X19185Y19427D02*
X19163Y19438D01*
X19118Y19438D01*
X19095Y19427D01*
X19084Y19415D01*
X19073Y19393D01*
X19073Y19325D01*
X19084Y19303D01*
X19095Y19292D01*
X19118Y19280D01*
X19163Y19280D01*
X19185Y19292D01*
X18983Y19292D02*
X18960Y19280D01*
X18915Y19280D01*
X18893Y19292D01*
X18882Y19314D01*
X18882Y19325D01*
X18893Y19348D01*
X18915Y19359D01*
X18949Y19359D01*
X18972Y19370D01*
X18983Y19393D01*
X18983Y19404D01*
X18972Y19427D01*
X18949Y19438D01*
X18915Y19438D01*
X18893Y19427D01*
X18780Y19303D02*
X18769Y19292D01*
X18780Y19280D01*
X18792Y19292D01*
X18780Y19303D01*
X18780Y19280D01*
X18780Y19427D02*
X18769Y19415D01*
X18780Y19404D01*
X18792Y19415D01*
X18780Y19427D01*
X18780Y19404D01*
X18499Y19528D02*
X18702Y19224D01*
X18252Y19528D02*
X18454Y19224D01*
X18072Y19438D02*
X18072Y19247D01*
X18083Y19224D01*
X18094Y19213D01*
X18117Y19202D01*
X18151Y19202D01*
X18173Y19213D01*
X18072Y19292D02*
X18094Y19280D01*
X18139Y19280D01*
X18162Y19292D01*
X18173Y19303D01*
X18184Y19325D01*
X18184Y19393D01*
X18173Y19415D01*
X18162Y19427D01*
X18139Y19438D01*
X18094Y19438D01*
X18072Y19427D01*
X17959Y19280D02*
X17959Y19438D01*
X17959Y19517D02*
X17971Y19505D01*
X17959Y19494D01*
X17948Y19505D01*
X17959Y19517D01*
X17959Y19494D01*
X17881Y19438D02*
X17791Y19438D01*
X17847Y19517D02*
X17847Y19314D01*
X17836Y19292D01*
X17813Y19280D01*
X17791Y19280D01*
X17712Y19280D02*
X17712Y19517D01*
X17611Y19280D02*
X17611Y19404D01*
X17622Y19427D01*
X17644Y19438D01*
X17678Y19438D01*
X17701Y19427D01*
X17712Y19415D01*
X17397Y19438D02*
X17397Y19280D01*
X17498Y19438D02*
X17498Y19314D01*
X17487Y19292D01*
X17464Y19280D01*
X17431Y19280D01*
X17408Y19292D01*
X17397Y19303D01*
X17284Y19280D02*
X17284Y19517D01*
X17284Y19427D02*
X17262Y19438D01*
X17217Y19438D01*
X17194Y19427D01*
X17183Y19415D01*
X17172Y19393D01*
X17172Y19325D01*
X17183Y19303D01*
X17194Y19292D01*
X17217Y19280D01*
X17262Y19280D01*
X17284Y19292D01*
X17071Y19303D02*
X17059Y19292D01*
X17071Y19280D01*
X17082Y19292D01*
X17071Y19303D01*
X17071Y19280D01*
X16857Y19292D02*
X16879Y19280D01*
X16924Y19280D01*
X16947Y19292D01*
X16958Y19303D01*
X16969Y19325D01*
X16969Y19393D01*
X16958Y19415D01*
X16947Y19427D01*
X16924Y19438D01*
X16879Y19438D01*
X16857Y19427D01*
X16722Y19280D02*
X16744Y19292D01*
X16756Y19303D01*
X16767Y19325D01*
X16767Y19393D01*
X16756Y19415D01*
X16744Y19427D01*
X16722Y19438D01*
X16688Y19438D01*
X16666Y19427D01*
X16655Y19415D01*
X16643Y19393D01*
X16643Y19325D01*
X16655Y19303D01*
X16666Y19292D01*
X16688Y19280D01*
X16722Y19280D01*
X16542Y19280D02*
X16542Y19438D01*
X16542Y19415D02*
X16531Y19427D01*
X16508Y19438D01*
X16475Y19438D01*
X16452Y19427D01*
X16441Y19404D01*
X16441Y19280D01*
X16441Y19404D02*
X16430Y19427D01*
X16407Y19438D01*
X16373Y19438D01*
X16351Y19427D01*
X16340Y19404D01*
X16340Y19280D01*
X16058Y19528D02*
X16261Y19224D01*
X19855Y18891D02*
X19855Y19127D01*
X19855Y19037D02*
X19832Y19048D01*
X19787Y19048D01*
X19765Y19037D01*
X19753Y19026D01*
X19742Y19003D01*
X19742Y18936D01*
X19753Y18913D01*
X19765Y18902D01*
X19787Y18891D01*
X19832Y18891D01*
X19855Y18902D01*
X19641Y18891D02*
X19641Y19048D01*
X19641Y19003D02*
X19630Y19026D01*
X19619Y19037D01*
X19596Y19048D01*
X19574Y19048D01*
X19495Y18891D02*
X19495Y19127D01*
X19360Y18891D01*
X19360Y19127D01*
X19270Y19127D02*
X19112Y18891D01*
X19112Y19127D02*
X19270Y18891D01*
X18854Y19138D02*
X19056Y18834D01*
X18674Y18902D02*
X18696Y18891D01*
X18741Y18891D01*
X18764Y18902D01*
X18775Y18913D01*
X18786Y18936D01*
X18786Y19003D01*
X18775Y19026D01*
X18764Y19037D01*
X18741Y19048D01*
X18696Y19048D01*
X18674Y19037D01*
X18471Y18902D02*
X18494Y18891D01*
X18539Y18891D01*
X18561Y18902D01*
X18572Y18913D01*
X18584Y18936D01*
X18584Y19003D01*
X18572Y19026D01*
X18561Y19037D01*
X18539Y19048D01*
X18494Y19048D01*
X18471Y19037D01*
X18392Y19127D02*
X18246Y19127D01*
X18325Y19037D01*
X18291Y19037D01*
X18269Y19026D01*
X18257Y19014D01*
X18246Y18992D01*
X18246Y18936D01*
X18257Y18913D01*
X18269Y18902D01*
X18291Y18891D01*
X18359Y18891D01*
X18381Y18902D01*
X18392Y18913D01*
X18100Y19127D02*
X18077Y19127D01*
X18055Y19116D01*
X18044Y19104D01*
X18032Y19082D01*
X18021Y19037D01*
X18021Y18981D01*
X18032Y18936D01*
X18044Y18913D01*
X18055Y18902D01*
X18077Y18891D01*
X18100Y18891D01*
X18122Y18902D01*
X18134Y18913D01*
X18145Y18936D01*
X18156Y18981D01*
X18156Y19037D01*
X18145Y19082D01*
X18134Y19104D01*
X18122Y19116D01*
X18100Y19127D01*
X17875Y19127D02*
X17852Y19127D01*
X17830Y19116D01*
X17819Y19104D01*
X17807Y19082D01*
X17796Y19037D01*
X17796Y18981D01*
X17807Y18936D01*
X17819Y18913D01*
X17830Y18902D01*
X17852Y18891D01*
X17875Y18891D01*
X17897Y18902D01*
X17909Y18913D01*
X17920Y18936D01*
X17931Y18981D01*
X17931Y19037D01*
X17920Y19082D01*
X17909Y19104D01*
X17897Y19116D01*
X17875Y19127D01*
X17650Y19127D02*
X17628Y19127D01*
X17605Y19116D01*
X17594Y19104D01*
X17583Y19082D01*
X17571Y19037D01*
X17571Y18981D01*
X17583Y18936D01*
X17594Y18913D01*
X17605Y18902D01*
X17628Y18891D01*
X17650Y18891D01*
X17673Y18902D01*
X17684Y18913D01*
X17695Y18936D01*
X17706Y18981D01*
X17706Y19037D01*
X17695Y19082D01*
X17684Y19104D01*
X17673Y19116D01*
X17650Y19127D01*
X17470Y18981D02*
X17290Y18981D01*
X17211Y19048D02*
X17121Y19048D01*
X17178Y18891D02*
X17178Y19093D01*
X17166Y19116D01*
X17144Y19127D01*
X17121Y19127D01*
X17076Y19048D02*
X16986Y19048D01*
X17043Y19127D02*
X17043Y18924D01*
X17031Y18902D01*
X17009Y18891D01*
X16986Y18891D01*
X16919Y19104D02*
X16908Y19116D01*
X16885Y19127D01*
X16829Y19127D01*
X16806Y19116D01*
X16795Y19104D01*
X16784Y19082D01*
X16784Y19059D01*
X16795Y19026D01*
X16930Y18891D01*
X16784Y18891D01*
X16705Y19127D02*
X16559Y19127D01*
X16638Y19037D01*
X16604Y19037D01*
X16581Y19026D01*
X16570Y19014D01*
X16559Y18992D01*
X16559Y18936D01*
X16570Y18913D01*
X16581Y18902D01*
X16604Y18891D01*
X16671Y18891D01*
X16694Y18902D01*
X16705Y18913D01*
X16469Y19104D02*
X16458Y19116D01*
X16435Y19127D01*
X16379Y19127D01*
X16356Y19116D01*
X16345Y19104D01*
X16334Y19082D01*
X16334Y19059D01*
X16345Y19026D01*
X16480Y18891D01*
X16334Y18891D01*
X16233Y18891D02*
X16233Y19127D01*
X16131Y18891D02*
X16131Y19014D01*
X16143Y19037D01*
X16165Y19048D01*
X16199Y19048D01*
X16221Y19037D01*
X16233Y19026D01*
X15918Y19048D02*
X15918Y18891D01*
X15974Y19138D02*
X16030Y18969D01*
X15884Y18969D01*
G54D12*
X18597Y755D02*
X18650Y830D01*
X18687Y755D02*
X18687Y913D01*
X18627Y913D01*
X18612Y905D01*
X18605Y898D01*
X18597Y883D01*
X18597Y860D01*
X18605Y845D01*
X18612Y838D01*
X18627Y830D01*
X18687Y830D01*
X18470Y763D02*
X18485Y755D01*
X18515Y755D01*
X18530Y763D01*
X18537Y778D01*
X18537Y838D01*
X18530Y853D01*
X18515Y860D01*
X18485Y860D01*
X18470Y853D01*
X18462Y838D01*
X18462Y823D01*
X18537Y808D01*
X18410Y860D02*
X18372Y755D01*
X18335Y860D01*
X18275Y770D02*
X18267Y763D01*
X18275Y755D01*
X18282Y763D01*
X18275Y770D01*
X18275Y755D01*
X17997Y755D02*
X18087Y755D01*
X18042Y755D02*
X18042Y913D01*
X18057Y890D01*
X18072Y875D01*
X18087Y868D01*
G54D13*
X14724Y2637D02*
X14724Y4606D01*
G54D11*
X14343Y4227D02*
X14448Y4377D01*
X14523Y4227D02*
X14523Y4542D01*
X14403Y4542D01*
X14373Y4527D01*
X14358Y4512D01*
X14343Y4482D01*
X14343Y4437D01*
X14358Y4407D01*
X14373Y4392D01*
X14403Y4377D01*
X14523Y4377D01*
X14238Y4542D02*
X14028Y4227D01*
X14028Y4542D02*
X14238Y4227D01*
X13908Y4227D02*
X13908Y4542D01*
X13833Y4542D01*
X13788Y4527D01*
X13758Y4497D01*
X13743Y4467D01*
X13728Y4407D01*
X13728Y4362D01*
X13743Y4302D01*
X13758Y4272D01*
X13788Y4242D01*
X13833Y4227D01*
X13908Y4227D01*
X14456Y4054D02*
X14276Y4054D01*
X14366Y3739D02*
X14366Y4054D01*
X14171Y3739D02*
X14171Y4054D01*
X14096Y4054D01*
X14051Y4039D01*
X14021Y4009D01*
X14006Y3979D01*
X13991Y3919D01*
X13991Y3874D01*
X14006Y3814D01*
X14021Y3784D01*
X14051Y3754D01*
X14096Y3739D01*
X14171Y3739D01*
X13856Y3739D02*
X13856Y4054D01*
X14516Y3266D02*
X14471Y3251D01*
X14396Y3251D01*
X14366Y3266D01*
X14351Y3281D01*
X14336Y3311D01*
X14336Y3341D01*
X14351Y3371D01*
X14366Y3386D01*
X14396Y3401D01*
X14456Y3416D01*
X14486Y3431D01*
X14501Y3446D01*
X14516Y3476D01*
X14516Y3506D01*
X14501Y3536D01*
X14486Y3551D01*
X14456Y3566D01*
X14381Y3566D01*
X14336Y3551D01*
X14201Y3251D02*
X14201Y3566D01*
X14126Y3566D01*
X14081Y3551D01*
X14051Y3521D01*
X14036Y3491D01*
X14021Y3431D01*
X14021Y3386D01*
X14036Y3326D01*
X14051Y3296D01*
X14081Y3266D01*
X14126Y3251D01*
X14201Y3251D01*
X13901Y3341D02*
X13751Y3341D01*
X13931Y3251D02*
X13826Y3566D01*
X13721Y3251D01*
X14628Y2763D02*
X14628Y3077D01*
X14523Y2853D01*
X14418Y3077D01*
X14418Y2763D01*
X14208Y3077D02*
X14148Y3077D01*
X14118Y3062D01*
X14088Y3032D01*
X14073Y2973D01*
X14073Y2868D01*
X14088Y2808D01*
X14118Y2778D01*
X14148Y2763D01*
X14208Y2763D01*
X14238Y2778D01*
X14268Y2808D01*
X14283Y2868D01*
X14283Y2973D01*
X14268Y3032D01*
X14238Y3062D01*
X14208Y3077D01*
X13953Y2778D02*
X13908Y2763D01*
X13833Y2763D01*
X13803Y2778D01*
X13788Y2793D01*
X13773Y2823D01*
X13773Y2853D01*
X13788Y2883D01*
X13803Y2898D01*
X13833Y2913D01*
X13893Y2928D01*
X13923Y2943D01*
X13938Y2958D01*
X13953Y2988D01*
X13953Y3017D01*
X13938Y3047D01*
X13923Y3062D01*
X13893Y3077D01*
X13818Y3077D01*
X13773Y3062D01*
X13638Y2763D02*
X13638Y3077D01*
X15673Y5054D02*
X15493Y5054D01*
X15583Y4739D02*
X15583Y5054D01*
X15418Y5054D02*
X15208Y4739D01*
X15208Y5054D02*
X15418Y4739D01*
X15088Y4739D02*
X15088Y5054D01*
X15013Y5054D01*
X14968Y5039D01*
X14938Y5009D01*
X14923Y4979D01*
X14908Y4919D01*
X14908Y4874D01*
X14923Y4814D01*
X14938Y4784D01*
X14968Y4754D01*
X15013Y4739D01*
X15088Y4739D01*
X15689Y3258D02*
X15644Y3243D01*
X15569Y3243D01*
X15539Y3258D01*
X15524Y3273D01*
X15509Y3303D01*
X15509Y3333D01*
X15524Y3363D01*
X15539Y3378D01*
X15569Y3393D01*
X15629Y3408D01*
X15659Y3423D01*
X15674Y3438D01*
X15689Y3468D01*
X15689Y3498D01*
X15674Y3528D01*
X15659Y3543D01*
X15629Y3558D01*
X15554Y3558D01*
X15509Y3543D01*
X15194Y3273D02*
X15209Y3258D01*
X15254Y3243D01*
X15284Y3243D01*
X15329Y3258D01*
X15359Y3288D01*
X15374Y3318D01*
X15389Y3378D01*
X15389Y3423D01*
X15374Y3483D01*
X15359Y3513D01*
X15329Y3543D01*
X15284Y3558D01*
X15254Y3558D01*
X15209Y3543D01*
X15194Y3528D01*
X14910Y3243D02*
X15059Y3243D01*
X15059Y3558D01*
X15847Y2770D02*
X15802Y2755D01*
X15727Y2755D01*
X15697Y2770D01*
X15682Y2785D01*
X15667Y2815D01*
X15667Y2845D01*
X15682Y2875D01*
X15697Y2890D01*
X15727Y2905D01*
X15787Y2920D01*
X15817Y2935D01*
X15832Y2950D01*
X15847Y2980D01*
X15847Y3010D01*
X15832Y3040D01*
X15817Y3055D01*
X15787Y3070D01*
X15712Y3070D01*
X15667Y3055D01*
X15352Y2785D02*
X15367Y2770D01*
X15412Y2755D01*
X15442Y2755D01*
X15487Y2770D01*
X15517Y2800D01*
X15532Y2830D01*
X15547Y2890D01*
X15547Y2935D01*
X15532Y2995D01*
X15517Y3025D01*
X15487Y3055D01*
X15442Y3070D01*
X15412Y3070D01*
X15367Y3055D01*
X15352Y3040D01*
X15217Y2755D02*
X15217Y3070D01*
X15037Y2755D02*
X15172Y2935D01*
X15037Y3070D02*
X15217Y2890D01*
X14752Y2755D02*
X14902Y2755D01*
X14902Y3070D01*
G54D12*
X1181Y393D02*
X20078Y393D01*
X393Y20078D02*
X393Y1181D01*
X393Y1181D02*
G75*
G03X1181Y393I787J0D01*
G74*
G01*
X20078Y20078D02*
X20078Y393D01*
X393Y20078D02*
X20078Y20078D01*
G54D14*
X17475Y10138D02*
G75*
G03X17475Y10138I-50J0D01*
G74*
G01*
X17425Y9688D02*
X17425Y10088D01*
X17425Y10088D02*
X16825Y10088D01*
X16825Y10088D02*
X16825Y9688D01*
X16825Y9288D02*
X16825Y8888D01*
X16825Y8888D02*
X17425Y8888D01*
X17425Y8888D02*
X17425Y9288D01*
X17628Y14788D02*
G75*
G03X17628Y14788I-50J0D01*
G74*
G01*
X18028Y14788D02*
X17628Y14788D01*
X17628Y14788D02*
X17628Y14188D01*
X17628Y14188D02*
X18028Y14188D01*
X18428Y14188D02*
X18828Y14188D01*
X18828Y14188D02*
X18828Y14788D01*
X18828Y14788D02*
X18428Y14788D01*
X17584Y8838D02*
G75*
G03X17584Y8838I-50J0D01*
G74*
G01*
X17534Y9288D02*
X17534Y8888D01*
X17534Y8888D02*
X18134Y8888D01*
X18134Y8888D02*
X18134Y9288D01*
X18134Y9688D02*
X18134Y10088D01*
X18134Y10088D02*
X17534Y10088D01*
X17534Y10088D02*
X17534Y9688D01*
X12151Y11712D02*
G75*
G03X12151Y11712I-50J0D01*
G74*
G01*
X12101Y12162D02*
X12101Y11762D01*
X12101Y11762D02*
X12701Y11762D01*
X12701Y11762D02*
X12701Y12162D01*
X12701Y12562D02*
X12701Y12962D01*
X12701Y12962D02*
X12101Y12962D01*
X12101Y12962D02*
X12101Y12562D01*
X13460Y11752D02*
G75*
G03X13460Y11752I-50J0D01*
G74*
G01*
X13410Y11302D02*
X13410Y11702D01*
X13410Y11702D02*
X12810Y11702D01*
X12810Y11702D02*
X12810Y11302D01*
X12810Y10902D02*
X12810Y10502D01*
X12810Y10502D02*
X13410Y10502D01*
X13410Y10502D02*
X13410Y10902D01*
X12751Y11752D02*
G75*
G03X12751Y11752I-50J0D01*
G74*
G01*
X12701Y11302D02*
X12701Y11702D01*
X12701Y11702D02*
X12101Y11702D01*
X12101Y11702D02*
X12101Y11302D01*
X12101Y10902D02*
X12101Y10502D01*
X12101Y10502D02*
X12701Y10502D01*
X12701Y10502D02*
X12701Y10902D01*
X12860Y11712D02*
G75*
G03X12860Y11712I-50J0D01*
G74*
G01*
X12810Y12162D02*
X12810Y11762D01*
X12810Y11762D02*
X13410Y11762D01*
X13410Y11762D02*
X13410Y12162D01*
X13410Y12562D02*
X13410Y12962D01*
X13410Y12962D02*
X12810Y12962D01*
X12810Y12962D02*
X12810Y12562D01*
X17387Y10924D02*
G75*
G03X17387Y10924I-50J0D01*
G74*
G01*
X17337Y11374D02*
X17337Y10974D01*
X17337Y10974D02*
X17937Y10974D01*
X17937Y10974D02*
X17937Y11374D01*
X17937Y11774D02*
X17937Y12174D01*
X17937Y12174D02*
X17337Y12174D01*
X17337Y12174D02*
X17337Y11774D01*
X18057Y10924D02*
G75*
G03X18057Y10924I-50J0D01*
G74*
G01*
X18007Y11374D02*
X18007Y10974D01*
X18007Y10974D02*
X18607Y10974D01*
X18607Y10974D02*
X18607Y11374D01*
X18607Y11774D02*
X18607Y12174D01*
X18607Y12174D02*
X18007Y12174D01*
X18007Y12174D02*
X18007Y11774D01*
G54D15*
X18298Y16994D02*
X18348Y16994D01*
X18348Y16994D02*
X18348Y14894D01*
X16848Y14894D02*
X16848Y16994D01*
X16848Y16994D02*
X18298Y16994D01*
X17398Y16994D02*
X17398Y16794D01*
X17398Y16794D02*
X17798Y16794D01*
X17798Y16794D02*
X17798Y16994D01*
X16848Y14894D02*
X18348Y14894D01*
G54D14*
X17668Y13400D02*
G75*
G03X17668Y13400I-50J0D01*
G74*
G01*
X17168Y13400D02*
X17568Y13400D01*
X17568Y13400D02*
X17568Y14000D01*
X17568Y14000D02*
X17168Y14000D01*
X16768Y14000D02*
X16368Y14000D01*
X16368Y14000D02*
X16368Y13400D01*
X16368Y13400D02*
X16768Y13400D01*
X17628Y14000D02*
G75*
G03X17628Y14000I-50J0D01*
G74*
G01*
X18028Y14000D02*
X17628Y14000D01*
X17628Y14000D02*
X17628Y13400D01*
X17628Y13400D02*
X18028Y13400D01*
X18428Y13400D02*
X18828Y13400D01*
X18828Y13400D02*
X18828Y14000D01*
X18828Y14000D02*
X18428Y14000D01*
X17668Y14188D02*
G75*
G03X17668Y14188I-50J0D01*
G74*
G01*
X17168Y14188D02*
X17568Y14188D01*
X17568Y14188D02*
X17568Y14788D01*
X17568Y14788D02*
X17168Y14788D01*
X16768Y14788D02*
X16368Y14788D01*
X16368Y14788D02*
X16368Y14188D01*
X16368Y14188D02*
X16768Y14188D01*
X11482Y10452D02*
G75*
G03X11482Y10452I-50J0D01*
G74*
G01*
X11432Y10902D02*
X11432Y10502D01*
X11432Y10502D02*
X12032Y10502D01*
X12032Y10502D02*
X12032Y10902D01*
X12032Y11302D02*
X12032Y11702D01*
X12032Y11702D02*
X11432Y11702D01*
X11432Y11702D02*
X11432Y11302D01*
X12082Y13012D02*
G75*
G03X12082Y13012I-50J0D01*
G74*
G01*
X12032Y12562D02*
X12032Y12962D01*
X12032Y12962D02*
X11432Y12962D01*
X11432Y12962D02*
X11432Y12562D01*
X11432Y12162D02*
X11432Y11762D01*
X11432Y11762D02*
X12032Y11762D01*
X12032Y11762D02*
X12032Y12162D01*
X16767Y9390D02*
G75*
G03X16767Y9390I-50J0D01*
G74*
G01*
X16717Y8940D02*
X16717Y9340D01*
X16717Y9340D02*
X16117Y9340D01*
X16117Y9340D02*
X16117Y8940D01*
X16117Y8540D02*
X16117Y8140D01*
X16117Y8140D02*
X16717Y8140D01*
X16717Y8140D02*
X16717Y8540D01*
X16098Y9390D02*
G75*
G03X16098Y9390I-50J0D01*
G74*
G01*
X16048Y8940D02*
X16048Y9340D01*
X16048Y9340D02*
X15448Y9340D01*
X15448Y9340D02*
X15448Y8940D01*
X15448Y8540D02*
X15448Y8140D01*
X15448Y8140D02*
X16048Y8140D01*
X16048Y8140D02*
X16048Y8540D01*
G54D16*
X10944Y15432D02*
X12204Y15432D01*
X12204Y15432D02*
X12204Y14701D01*
X10944Y14701D02*
X12204Y14701D01*
X10944Y15432D02*
X10944Y14701D01*
X11404Y17581D02*
X11744Y17581D01*
X11744Y17581D02*
X11744Y16850D01*
X11404Y16850D02*
X11744Y16850D01*
X11404Y17581D02*
X11404Y16850D01*
X10494Y17581D02*
X10834Y17581D01*
X10834Y17581D02*
X10834Y16850D01*
X10494Y16850D02*
X10834Y16850D01*
X10494Y17581D02*
X10494Y16850D01*
X12314Y17581D02*
X12654Y17581D01*
X12654Y17581D02*
X12654Y16850D01*
X12314Y16850D02*
X12654Y16850D01*
X12314Y17581D02*
X12314Y16850D01*
X10944Y15432D02*
X12204Y15432D01*
X12204Y15432D02*
X12204Y14701D01*
X10944Y14701D02*
X12204Y14701D01*
X10944Y15432D02*
X10944Y14701D01*
X11404Y17581D02*
X11744Y17581D01*
X11744Y17581D02*
X11744Y16850D01*
X11404Y16850D02*
X11744Y16850D01*
X11404Y17581D02*
X11404Y16850D01*
X10494Y17581D02*
X10834Y17581D01*
X10834Y17581D02*
X10834Y16850D01*
X10494Y16850D02*
X10834Y16850D01*
X10494Y17581D02*
X10494Y16850D01*
X12314Y17581D02*
X12654Y17581D01*
X12654Y17581D02*
X12654Y16850D01*
X12314Y16850D02*
X12654Y16850D01*
X12314Y17581D02*
X12314Y16850D01*
G54D17*
X12864Y15491D02*
X12864Y16791D01*
X12864Y16791D02*
X10284Y16791D01*
X10284Y16791D02*
X10284Y15491D01*
X10284Y15491D02*
X12864Y15491D01*
G54D15*
X10691Y18805D02*
X11591Y18805D01*
X11591Y18805D02*
X11591Y19305D01*
X11591Y19305D02*
X10691Y19305D01*
X10691Y19305D02*
X10691Y18805D01*
X10691Y18057D02*
X11591Y18057D01*
X11591Y18057D02*
X11591Y18557D01*
X11591Y18557D02*
X10691Y18557D01*
X10691Y18557D02*
X10691Y18057D01*
X14741Y5446D02*
X13841Y5446D01*
X13841Y5446D02*
X13841Y4946D01*
X13841Y4946D02*
X14741Y4946D01*
X14741Y4946D02*
X14741Y5446D01*
X14741Y6116D02*
X13841Y6116D01*
X13841Y6116D02*
X13841Y5616D01*
X13841Y5616D02*
X14741Y5616D01*
X14741Y5616D02*
X14741Y6116D01*
X17581Y6639D02*
X18481Y6639D01*
X18481Y6639D02*
X18481Y7139D01*
X18481Y7139D02*
X17581Y7139D01*
X17581Y7139D02*
X17581Y6639D01*
X17542Y5379D02*
X18442Y5379D01*
X18442Y5379D02*
X18442Y5879D01*
X18442Y5879D02*
X17542Y5879D01*
X17542Y5879D02*
X17542Y5379D01*
X16496Y6004D02*
X16236Y6004D01*
X16496Y5254D02*
X16236Y5254D01*
X17046Y5629D02*
X17306Y5629D01*
X17046Y5039D02*
X17046Y6219D01*
X17046Y6219D02*
X16496Y6219D01*
X16496Y6219D02*
X16496Y5039D01*
X16496Y5039D02*
X17046Y5039D01*
X16496Y7264D02*
X16236Y7264D01*
X16496Y6514D02*
X16236Y6514D01*
X17046Y6889D02*
X17306Y6889D01*
X17046Y6299D02*
X17046Y7479D01*
X17046Y7479D02*
X16496Y7479D01*
X16496Y7479D02*
X16496Y6299D01*
X16496Y6299D02*
X17046Y6299D01*
X15498Y7339D02*
X15498Y6439D01*
X15498Y6439D02*
X15998Y6439D01*
X15998Y6439D02*
X15998Y7339D01*
X15998Y7339D02*
X15498Y7339D01*
X15998Y5179D02*
X15998Y6079D01*
X15998Y6079D02*
X15498Y6079D01*
X15498Y6079D02*
X15498Y5179D01*
X15498Y5179D02*
X15998Y5179D01*
G54D14*
X17037Y17740D02*
G75*
G03X17037Y17740I-50J0D01*
G74*
G01*
X17437Y17740D02*
X17037Y17740D01*
X17037Y17740D02*
X17037Y17140D01*
X17037Y17140D02*
X17437Y17140D01*
X17837Y17140D02*
X18237Y17140D01*
X18237Y17140D02*
X18237Y17740D01*
X18237Y17740D02*
X17837Y17740D01*
G54D16*
X3455Y18365D02*
X3612Y18365D01*
X3612Y18365D02*
X3612Y18043D01*
X3455Y18043D02*
X3612Y18043D01*
X3455Y18365D02*
X3455Y18043D01*
X3711Y18365D02*
X3868Y18365D01*
X3868Y18365D02*
X3868Y18043D01*
X3711Y18043D02*
X3868Y18043D01*
X3711Y18365D02*
X3711Y18043D01*
X3967Y18365D02*
X4124Y18365D01*
X4124Y18365D02*
X4124Y18043D01*
X3967Y18043D02*
X4124Y18043D01*
X3967Y18365D02*
X3967Y18043D01*
X4222Y18365D02*
X4380Y18365D01*
X4380Y18365D02*
X4380Y18043D01*
X4222Y18043D02*
X4380Y18043D01*
X4222Y18365D02*
X4222Y18043D01*
X4477Y18365D02*
X4635Y18365D01*
X4635Y18365D02*
X4635Y18043D01*
X4477Y18043D02*
X4635Y18043D01*
X4477Y18365D02*
X4477Y18043D01*
X4733Y18365D02*
X4891Y18365D01*
X4891Y18365D02*
X4891Y18043D01*
X4733Y18043D02*
X4891Y18043D01*
X4733Y18365D02*
X4733Y18043D01*
X4989Y18365D02*
X5147Y18365D01*
X5147Y18365D02*
X5147Y18043D01*
X4989Y18043D02*
X5147Y18043D01*
X4989Y18365D02*
X4989Y18043D01*
X5245Y18365D02*
X5403Y18365D01*
X5403Y18365D02*
X5403Y18043D01*
X5245Y18043D02*
X5403Y18043D01*
X5245Y18365D02*
X5245Y18043D01*
X5245Y15973D02*
X5403Y15973D01*
X5403Y15973D02*
X5403Y15650D01*
X5245Y15650D02*
X5403Y15650D01*
X5245Y15973D02*
X5245Y15650D01*
X4989Y15973D02*
X5147Y15973D01*
X5147Y15973D02*
X5147Y15650D01*
X4989Y15650D02*
X5147Y15650D01*
X4989Y15973D02*
X4989Y15650D01*
X4733Y15973D02*
X4891Y15973D01*
X4891Y15973D02*
X4891Y15650D01*
X4733Y15650D02*
X4891Y15650D01*
X4733Y15973D02*
X4733Y15650D01*
X4477Y15973D02*
X4635Y15973D01*
X4635Y15973D02*
X4635Y15650D01*
X4477Y15650D02*
X4635Y15650D01*
X4477Y15973D02*
X4477Y15650D01*
X4222Y15973D02*
X4380Y15973D01*
X4380Y15973D02*
X4380Y15650D01*
X4222Y15650D02*
X4380Y15650D01*
X4222Y15973D02*
X4222Y15650D01*
X3967Y15973D02*
X4124Y15973D01*
X4124Y15973D02*
X4124Y15650D01*
X3967Y15650D02*
X4124Y15650D01*
X3967Y15973D02*
X3967Y15650D01*
X3711Y15973D02*
X3868Y15973D01*
X3868Y15973D02*
X3868Y15650D01*
X3711Y15650D02*
X3868Y15650D01*
X3711Y15973D02*
X3711Y15650D01*
X3455Y15973D02*
X3612Y15973D01*
X3612Y15973D02*
X3612Y15650D01*
X3455Y15650D02*
X3612Y15650D01*
X3455Y15973D02*
X3455Y15650D01*
X3455Y18365D02*
X3612Y18365D01*
X3612Y18365D02*
X3612Y18043D01*
X3455Y18043D02*
X3612Y18043D01*
X3455Y18365D02*
X3455Y18043D01*
X3711Y18365D02*
X3868Y18365D01*
X3868Y18365D02*
X3868Y18043D01*
X3711Y18043D02*
X3868Y18043D01*
X3711Y18365D02*
X3711Y18043D01*
X3967Y18365D02*
X4124Y18365D01*
X4124Y18365D02*
X4124Y18043D01*
X3967Y18043D02*
X4124Y18043D01*
X3967Y18365D02*
X3967Y18043D01*
X4222Y18365D02*
X4380Y18365D01*
X4380Y18365D02*
X4380Y18043D01*
X4222Y18043D02*
X4380Y18043D01*
X4222Y18365D02*
X4222Y18043D01*
X4477Y18365D02*
X4635Y18365D01*
X4635Y18365D02*
X4635Y18043D01*
X4477Y18043D02*
X4635Y18043D01*
X4477Y18365D02*
X4477Y18043D01*
X4733Y18365D02*
X4891Y18365D01*
X4891Y18365D02*
X4891Y18043D01*
X4733Y18043D02*
X4891Y18043D01*
X4733Y18365D02*
X4733Y18043D01*
X4989Y18365D02*
X5147Y18365D01*
X5147Y18365D02*
X5147Y18043D01*
X4989Y18043D02*
X5147Y18043D01*
X4989Y18365D02*
X4989Y18043D01*
X5245Y18365D02*
X5403Y18365D01*
X5403Y18365D02*
X5403Y18043D01*
X5245Y18043D02*
X5403Y18043D01*
X5245Y18365D02*
X5245Y18043D01*
X5245Y15973D02*
X5403Y15973D01*
X5403Y15973D02*
X5403Y15650D01*
X5245Y15650D02*
X5403Y15650D01*
X5245Y15973D02*
X5245Y15650D01*
X4989Y15973D02*
X5147Y15973D01*
X5147Y15973D02*
X5147Y15650D01*
X4989Y15650D02*
X5147Y15650D01*
X4989Y15973D02*
X4989Y15650D01*
X4733Y15973D02*
X4891Y15973D01*
X4891Y15973D02*
X4891Y15650D01*
X4733Y15650D02*
X4891Y15650D01*
X4733Y15973D02*
X4733Y15650D01*
X4477Y15973D02*
X4635Y15973D01*
X4635Y15973D02*
X4635Y15650D01*
X4477Y15650D02*
X4635Y15650D01*
X4477Y15973D02*
X4477Y15650D01*
X4222Y15973D02*
X4380Y15973D01*
X4380Y15973D02*
X4380Y15650D01*
X4222Y15650D02*
X4380Y15650D01*
X4222Y15973D02*
X4222Y15650D01*
X3967Y15973D02*
X4124Y15973D01*
X4124Y15973D02*
X4124Y15650D01*
X3967Y15650D02*
X4124Y15650D01*
X3967Y15973D02*
X3967Y15650D01*
X3711Y15973D02*
X3868Y15973D01*
X3868Y15973D02*
X3868Y15650D01*
X3711Y15650D02*
X3868Y15650D01*
X3711Y15973D02*
X3711Y15650D01*
X3455Y15973D02*
X3612Y15973D01*
X3612Y15973D02*
X3612Y15650D01*
X3455Y15650D02*
X3612Y15650D01*
X3455Y15973D02*
X3455Y15650D01*
G54D17*
X5629Y17991D02*
X3228Y17991D01*
X3228Y16024D02*
X5629Y16024D01*
X5629Y17991D02*
X5629Y16024D01*
X3228Y16024D02*
X3307Y16024D01*
X3228Y16024D02*
X3228Y16851D01*
X3228Y17243D02*
X3228Y17991D01*
X3228Y17991D02*
X3307Y17991D01*
X5550Y17991D02*
X5629Y17991D01*
X5629Y17991D02*
X5629Y16024D01*
X5629Y16024D02*
X5550Y16024D01*
X3228Y17243D02*
G75*
G02X3228Y16851I0J-196D01*
G74*
G01*
G54D14*
X11836Y18050D02*
G75*
G03X11836Y18050I-50J0D01*
G74*
G01*
X11786Y18500D02*
X11786Y18100D01*
X11786Y18100D02*
X12386Y18100D01*
X12386Y18100D02*
X12386Y18500D01*
X12386Y18900D02*
X12386Y19300D01*
X12386Y19300D02*
X11786Y19300D01*
X11786Y19300D02*
X11786Y18900D01*
X9592Y15452D02*
G75*
G03X9592Y15452I-50J0D01*
G74*
G01*
X9542Y15902D02*
X9542Y15502D01*
X9542Y15502D02*
X10142Y15502D01*
X10142Y15502D02*
X10142Y15902D01*
X10142Y16302D02*
X10142Y16702D01*
X10142Y16702D02*
X9542Y16702D01*
X9542Y16702D02*
X9542Y16302D01*
%LPC*%
G54D18*
X13858Y18167D03*
X15590Y18168D03*
G54D19*
X5081Y2432D03*
X5081Y1432D03*
X4081Y2432D03*
X4081Y1432D03*
X3081Y2432D03*
X3081Y1432D03*
X2081Y2432D03*
X2081Y1432D03*
X8081Y10737D03*
X8081Y9737D03*
X8081Y8737D03*
X8081Y7737D03*
X8081Y6737D03*
X8081Y5737D03*
X8081Y4737D03*
X8081Y3737D03*
G54D20*
X17125Y9863D03*
X17125Y9113D03*
G54D21*
X17853Y14488D03*
X18603Y14488D03*
G54D20*
X17834Y9113D03*
X17834Y9863D03*
X12401Y11987D03*
X12401Y12737D03*
X13110Y11477D03*
X13110Y10727D03*
X12401Y11477D03*
X12401Y10727D03*
X13110Y11987D03*
X13110Y12737D03*
X17637Y11199D03*
X17637Y11949D03*
X18307Y11199D03*
X18307Y11949D03*
G54D19*
X12283Y2215D03*
X13283Y2115D03*
X14283Y2215D03*
X15283Y2115D03*
G54D22*
X16548Y16694D03*
X18648Y16694D03*
X16548Y16194D03*
X16548Y15694D03*
X16548Y15194D03*
X18648Y16194D03*
X18648Y15694D03*
X18648Y15194D03*
G54D21*
X17343Y13700D03*
X16593Y13700D03*
X17853Y13700D03*
X18603Y13700D03*
X17343Y14488D03*
X16593Y14488D03*
G54D20*
X11732Y10727D03*
X11732Y11477D03*
X11732Y12737D03*
X11732Y11987D03*
X16417Y9115D03*
X16417Y8365D03*
X15748Y9115D03*
X15748Y8365D03*
G54D23*
X10664Y17361D03*
X11574Y17361D03*
X12484Y17361D03*
G54D24*
X11574Y14921D03*
G54D25*
X10841Y19055D03*
X11441Y19055D03*
X10841Y18307D03*
X11441Y18307D03*
X14591Y5196D03*
X13991Y5196D03*
X14591Y5866D03*
X13991Y5866D03*
G54D19*
X12174Y4173D03*
X13314Y4173D03*
X16369Y4212D03*
X15229Y4212D03*
X12174Y5196D03*
X13314Y5196D03*
X12134Y6181D03*
X13274Y6181D03*
X19330Y984D03*
X19330Y1984D03*
X19330Y2984D03*
X19330Y3984D03*
X19330Y4984D03*
X19330Y5984D03*
X19330Y6984D03*
X19330Y7984D03*
X19330Y8984D03*
X19330Y9984D03*
X19330Y10984D03*
X19330Y11984D03*
X19330Y12984D03*
X10314Y12992D03*
X10314Y11992D03*
X10314Y10992D03*
X10314Y9992D03*
X10314Y8992D03*
X10314Y7992D03*
X10314Y6992D03*
X10314Y5992D03*
X10314Y4992D03*
X10314Y3992D03*
X10314Y2992D03*
X10314Y1992D03*
X10314Y992D03*
G54D25*
X17731Y6889D03*
X18331Y6889D03*
X17692Y5629D03*
X18292Y5629D03*
G54D26*
X16355Y5254D03*
X17187Y5629D03*
X16355Y6004D03*
X16355Y6514D03*
X17187Y6889D03*
X16355Y7264D03*
G54D27*
X15748Y7189D03*
X15748Y6589D03*
X15748Y5329D03*
X15748Y5929D03*
G54D19*
X944Y19538D03*
X1944Y19438D03*
X2944Y19538D03*
X3944Y19438D03*
X4944Y19538D03*
X5944Y19438D03*
X6944Y19538D03*
X7944Y19438D03*
X944Y14538D03*
X1944Y14438D03*
X2944Y14538D03*
X3944Y14438D03*
X4944Y14538D03*
X5944Y14438D03*
X6944Y14538D03*
X7944Y14438D03*
G54D21*
X17262Y17440D03*
X18012Y17440D03*
G54D19*
X12283Y1220D03*
X13283Y1120D03*
X14283Y1220D03*
X15283Y1120D03*
X16283Y1220D03*
X17283Y1120D03*
G54D28*
X3534Y18169D03*
X3789Y18169D03*
X4045Y18169D03*
X4301Y18169D03*
X4556Y18169D03*
X4812Y18169D03*
X5068Y18169D03*
X5324Y18169D03*
X5324Y15847D03*
X5068Y15847D03*
X4812Y15847D03*
X4556Y15847D03*
X4301Y15847D03*
X4045Y15847D03*
X3789Y15847D03*
X3534Y15847D03*
G54D20*
X12086Y18325D03*
X12086Y19075D03*
X9842Y15727D03*
X9842Y16477D03*
M02*
