G04 (created by PCBNEW (2013-mar-13)-testing) date Thu 22 Aug 2013 04:52:17 PM WEST*
%MOIN*%
G04 Gerber Fmt 3.4, Leading zero omitted, Abs format*
%FSLAX34Y34*%
G01*
G70*
G90*
G04 APERTURE LIST*
%ADD10C,0.005906*%
%ADD11C,0.003937*%
%ADD12O,0.074000X0.074000*%
%ADD13R,0.055000X0.035000*%
%ADD14R,0.035000X0.055000*%
%ADD15R,0.055100X0.023600*%
%ADD16R,0.048000X0.088000*%
%ADD17R,0.141700X0.086600*%
%ADD18R,0.025000X0.045000*%
%ADD19R,0.039400X0.023600*%
%ADD20R,0.045000X0.025000*%
%ADD21R,0.015700X0.062900*%
%ADD22C,0.031496*%
%ADD23C,0.010000*%
%ADD24C,0.017323*%
%ADD25C,0.020000*%
%ADD26C,0.012992*%
G04 APERTURE END LIST*
G54D10*
G54D11*
X1181Y393D02*
X20078Y393D01*
X393Y20078D02*
X393Y1181D01*
X393Y1181D02*
G75*
G03X1181Y393I787J0D01*
G74*
G01*
X20078Y20078D02*
X20078Y393D01*
X393Y20078D02*
X20078Y20078D01*
G54D12*
X5081Y2432D03*
X5081Y1432D03*
X4081Y2432D03*
X4081Y1432D03*
X3081Y2432D03*
X3081Y1432D03*
X2081Y2432D03*
X2081Y1432D03*
X8081Y10737D03*
X8081Y9737D03*
X8081Y8737D03*
X8081Y7737D03*
X8081Y6737D03*
X8081Y5737D03*
X8081Y4737D03*
X8081Y3737D03*
G54D13*
X17125Y9863D03*
X17125Y9113D03*
G54D14*
X17853Y14488D03*
X18603Y14488D03*
G54D13*
X17834Y9113D03*
X17834Y9863D03*
X12401Y11987D03*
X12401Y12737D03*
X13110Y11477D03*
X13110Y10727D03*
X12401Y11477D03*
X12401Y10727D03*
X13110Y11987D03*
X13110Y12737D03*
X17637Y11199D03*
X17637Y11949D03*
X18307Y11199D03*
X18307Y11949D03*
G54D12*
X12283Y2215D03*
X13283Y2115D03*
X14283Y2215D03*
X15283Y2115D03*
G54D15*
X16548Y16694D03*
X18648Y16694D03*
X16548Y16194D03*
X16548Y15694D03*
X16548Y15194D03*
X18648Y16194D03*
X18648Y15694D03*
X18648Y15194D03*
G54D14*
X17343Y13700D03*
X16593Y13700D03*
X17853Y13700D03*
X18603Y13700D03*
X17343Y14488D03*
X16593Y14488D03*
G54D13*
X11732Y10727D03*
X11732Y11477D03*
X11732Y12737D03*
X11732Y11987D03*
X16417Y9115D03*
X16417Y8365D03*
X15748Y9115D03*
X15748Y8365D03*
G54D16*
X10664Y17361D03*
X11574Y17361D03*
X12484Y17361D03*
G54D17*
X11574Y14921D03*
G54D18*
X10841Y19055D03*
X11441Y19055D03*
X10841Y18307D03*
X11441Y18307D03*
X14591Y5196D03*
X13991Y5196D03*
X14591Y5866D03*
X13991Y5866D03*
G54D12*
X12174Y4173D03*
X13314Y4173D03*
X16369Y4212D03*
X15229Y4212D03*
X12174Y5196D03*
X13314Y5196D03*
X12134Y6181D03*
X13274Y6181D03*
X19330Y984D03*
X19330Y1984D03*
X19330Y2984D03*
X19330Y3984D03*
X19330Y4984D03*
X19330Y5984D03*
X19330Y6984D03*
X19330Y7984D03*
X19330Y8984D03*
X19330Y9984D03*
X19330Y10984D03*
X19330Y11984D03*
X19330Y12984D03*
X10314Y12992D03*
X10314Y11992D03*
X10314Y10992D03*
X10314Y9992D03*
X10314Y8992D03*
X10314Y7992D03*
X10314Y6992D03*
X10314Y5992D03*
X10314Y4992D03*
X10314Y3992D03*
X10314Y2992D03*
X10314Y1992D03*
X10314Y992D03*
G54D18*
X17731Y6889D03*
X18331Y6889D03*
X17692Y5629D03*
X18292Y5629D03*
G54D19*
X16355Y5254D03*
X17187Y5629D03*
X16355Y6004D03*
X16355Y6514D03*
X17187Y6889D03*
X16355Y7264D03*
G54D20*
X15748Y7189D03*
X15748Y6589D03*
X15748Y5329D03*
X15748Y5929D03*
G54D12*
X944Y19538D03*
X1944Y19438D03*
X2944Y19538D03*
X3944Y19438D03*
X4944Y19538D03*
X5944Y19438D03*
X6944Y19538D03*
X7944Y19438D03*
X944Y14538D03*
X1944Y14438D03*
X2944Y14538D03*
X3944Y14438D03*
X4944Y14538D03*
X5944Y14438D03*
X6944Y14538D03*
X7944Y14438D03*
G54D14*
X17262Y17440D03*
X18012Y17440D03*
G54D12*
X12283Y1220D03*
X13283Y1120D03*
X14283Y1220D03*
X15283Y1120D03*
X16283Y1220D03*
X17283Y1120D03*
G54D21*
X3534Y18169D03*
X3789Y18169D03*
X4045Y18169D03*
X4301Y18169D03*
X4556Y18169D03*
X4812Y18169D03*
X5068Y18169D03*
X5324Y18169D03*
X5324Y15847D03*
X5068Y15847D03*
X4812Y15847D03*
X4556Y15847D03*
X4301Y15847D03*
X4045Y15847D03*
X3789Y15847D03*
X3534Y15847D03*
G54D13*
X12086Y18325D03*
X12086Y19075D03*
X9842Y15727D03*
X9842Y16477D03*
G54D22*
X17007Y4685D03*
X12677Y18307D03*
X7521Y1937D03*
X2431Y4297D03*
X3381Y3637D03*
X6181Y3037D03*
X4481Y3837D03*
X3581Y2937D03*
X4381Y3337D03*
X6531Y8717D03*
X15157Y7283D03*
X15157Y7677D03*
X11889Y8307D03*
X13818Y8582D03*
X14094Y8267D03*
X16811Y11811D03*
X17755Y13149D03*
X16614Y12401D03*
X12007Y13267D03*
X12637Y16062D03*
X12913Y15787D03*
X12401Y13267D03*
X15881Y11937D03*
X11732Y9842D03*
X18307Y13464D03*
X16535Y13228D03*
X17440Y10826D03*
X15748Y9330D03*
X18831Y5487D03*
X15281Y12237D03*
X17362Y6456D03*
X18031Y10275D03*
X14763Y13582D03*
X13110Y13228D03*
X17165Y7992D03*
X14409Y7952D03*
X15590Y9685D03*
X12480Y10196D03*
X11496Y19527D03*
X5581Y3237D03*
X6681Y10637D03*
X3581Y12167D03*
X3601Y12627D03*
X3586Y13047D03*
X3461Y13412D03*
X1451Y13437D03*
X1271Y13042D03*
X1276Y13042D03*
X1301Y12162D03*
X1251Y12602D03*
X1611Y11872D03*
X3241Y11862D03*
X2063Y11742D03*
X2066Y11407D03*
X2061Y11072D03*
X2806Y11057D03*
X2801Y11387D03*
X2811Y11727D03*
X1958Y9960D03*
X3621Y5507D03*
X2781Y5477D03*
X1891Y5482D03*
X1911Y6312D03*
X1931Y9152D03*
X1956Y8452D03*
X2766Y7007D03*
X1911Y6997D03*
X1921Y7732D03*
X3616Y7012D03*
X2781Y9962D03*
X4451Y9977D03*
X3641Y9942D03*
X3626Y9157D03*
X3616Y8427D03*
X3616Y7737D03*
X3626Y6347D03*
X4467Y7022D03*
X4467Y8368D03*
X2775Y8478D03*
X5296Y9977D03*
X5296Y8372D03*
X5286Y7012D03*
X5274Y5508D03*
X4321Y5517D03*
X17066Y8484D03*
X17637Y10472D03*
X18188Y5314D03*
X18228Y6535D03*
X14724Y9842D03*
X14409Y9370D03*
G54D23*
X17007Y4685D02*
X17007Y4724D01*
X17007Y4724D02*
X16692Y5039D01*
G54D24*
X9842Y15727D02*
X10060Y15727D01*
X10060Y15727D02*
X10866Y14921D01*
X10866Y14921D02*
X11574Y14921D01*
G54D23*
X16355Y5730D02*
X16355Y6004D01*
X16692Y5039D02*
X16692Y5393D01*
X16692Y5393D02*
X16355Y5730D01*
G54D24*
X10314Y992D02*
X10322Y992D01*
X11299Y3298D02*
X12174Y4173D01*
X11299Y1968D02*
X11299Y3298D01*
X10322Y992D02*
X11299Y1968D01*
X10314Y992D02*
X10346Y992D01*
X18937Y590D02*
X19330Y984D01*
X10748Y590D02*
X18937Y590D01*
X10346Y992D02*
X10748Y590D01*
G54D25*
X10314Y992D02*
X10110Y992D01*
X10866Y14921D02*
X11574Y14921D01*
X9527Y13582D02*
X10866Y14921D01*
X9527Y1574D02*
X9527Y13582D01*
X10110Y992D02*
X9527Y1574D01*
G54D23*
X16355Y7264D02*
X16355Y7148D01*
X16355Y7148D02*
X16811Y6692D01*
X16811Y6692D02*
X16811Y6460D01*
X16811Y6460D02*
X16355Y6004D01*
X11441Y18307D02*
X11441Y17494D01*
X11441Y17494D02*
X11574Y17361D01*
G54D25*
X11574Y17361D02*
X11574Y14921D01*
X12174Y4173D02*
X12174Y5196D01*
X12134Y6181D02*
X12134Y5236D01*
X12134Y5236D02*
X12174Y5196D01*
G54D24*
X12086Y18325D02*
X12658Y18325D01*
X12658Y18325D02*
X12677Y18307D01*
G54D25*
X12484Y17361D02*
X12484Y18114D01*
X12484Y18114D02*
X12677Y18307D01*
G54D23*
X8081Y6737D02*
X8361Y6737D01*
X8611Y3027D02*
X7521Y1937D01*
X8611Y6487D02*
X8611Y3027D01*
X8361Y6737D02*
X8611Y6487D01*
X2431Y4297D02*
X4421Y4297D01*
X4881Y3237D02*
X4576Y2932D01*
X4881Y3837D02*
X4881Y3237D01*
X4421Y4297D02*
X4881Y3837D01*
X4576Y1927D02*
X4081Y1432D01*
X4576Y2932D02*
X4576Y1927D01*
X2086Y2437D02*
X2081Y2432D01*
X2181Y2437D02*
X2086Y2437D01*
X3381Y3637D02*
X2181Y2437D01*
X6181Y3037D02*
X5881Y2737D01*
X5881Y2737D02*
X5881Y1337D01*
X5881Y1337D02*
X5376Y832D01*
X5376Y832D02*
X2886Y832D01*
X2886Y832D02*
X2581Y1137D01*
X2581Y1137D02*
X2581Y1932D01*
X2581Y1932D02*
X2081Y2432D01*
X3581Y3337D02*
X4081Y3837D01*
X4081Y3837D02*
X4481Y3837D01*
G54D26*
X3081Y2437D02*
X3081Y2432D01*
G54D23*
X3581Y3337D02*
X3081Y2837D01*
G54D26*
X3081Y2837D02*
X3081Y2437D01*
G54D23*
X3981Y3337D02*
X4381Y3337D01*
X3981Y3337D02*
X3581Y2937D01*
X6531Y8717D02*
X8011Y8717D01*
X8061Y8767D02*
X8081Y8737D01*
X8011Y8717D02*
X8061Y8767D01*
X2081Y862D02*
X2081Y1432D01*
X2271Y672D02*
X2081Y862D01*
X5651Y672D02*
X2271Y672D01*
X6606Y1627D02*
X5651Y672D01*
X6606Y8642D02*
X6606Y1627D01*
X6531Y8717D02*
X6606Y8642D01*
X15251Y7189D02*
X15748Y7189D01*
X15157Y7283D02*
X15251Y7189D01*
X14724Y7244D02*
X14724Y7165D01*
X14724Y7165D02*
X14724Y6811D01*
X15157Y7677D02*
X14724Y7244D01*
X15605Y5929D02*
X14724Y6811D01*
X15605Y5929D02*
X15748Y5929D01*
X14591Y5866D02*
X14409Y5866D01*
X14409Y5866D02*
X14291Y5748D01*
X15283Y2115D02*
X15283Y2393D01*
X12204Y8307D02*
X11889Y8307D01*
X14291Y6220D02*
X12204Y8307D01*
X14291Y3385D02*
X14291Y5748D01*
X14291Y5748D02*
X14291Y6220D01*
X15283Y2393D02*
X14291Y3385D01*
X15229Y4212D02*
X14881Y4212D01*
X14591Y4503D02*
X14591Y5196D01*
X14881Y4212D02*
X14591Y4503D01*
X14283Y2215D02*
X13965Y2215D01*
X13965Y2215D02*
X13503Y2677D01*
X13503Y2677D02*
X13070Y2677D01*
X13070Y2677D02*
X12755Y2992D01*
X12755Y2992D02*
X12755Y6929D01*
X12755Y6929D02*
X10905Y8779D01*
X10905Y8779D02*
X10905Y9401D01*
X10905Y9401D02*
X10314Y9992D01*
X16369Y4212D02*
X15944Y4212D01*
X13818Y7244D02*
X13818Y8582D01*
X14921Y6141D02*
X13818Y7244D01*
X14921Y5236D02*
X14921Y6141D01*
X15944Y4212D02*
X14921Y5236D01*
X17322Y1120D02*
X17322Y3976D01*
X14069Y8243D02*
X14094Y8267D01*
X14069Y7219D02*
X14069Y8243D01*
X15118Y6171D02*
X14069Y7219D01*
X15118Y5314D02*
X15118Y6171D01*
X15708Y4724D02*
X15118Y5314D01*
X16574Y4724D02*
X15708Y4724D01*
X17322Y3976D02*
X16574Y4724D01*
X17343Y13700D02*
X17343Y13406D01*
X16889Y11889D02*
X16811Y11811D01*
X16889Y12952D02*
X16889Y11889D01*
X17343Y13406D02*
X16889Y12952D01*
X17343Y13700D02*
X17343Y13878D01*
X17853Y14388D02*
X17853Y14488D01*
X17343Y13878D02*
X17853Y14388D01*
X18648Y15694D02*
X18214Y15694D01*
X17853Y15333D02*
X17853Y14488D01*
X18214Y15694D02*
X17853Y15333D01*
X17853Y13247D02*
X17755Y13149D01*
X17853Y13700D02*
X17853Y13247D01*
X17853Y13700D02*
X17853Y13779D01*
X18844Y16194D02*
X19094Y15944D01*
X19094Y15944D02*
X19094Y15551D01*
X19094Y15551D02*
X18976Y15433D01*
X18976Y15433D02*
X18228Y15433D01*
X18228Y15433D02*
X18149Y15354D01*
X18149Y15354D02*
X18149Y14075D01*
X18844Y16194D02*
X18648Y16194D01*
X17853Y13779D02*
X18149Y14075D01*
X17343Y14488D02*
X17322Y14488D01*
X17322Y14488D02*
X16968Y14133D01*
X16692Y12480D02*
X16614Y12401D01*
X16692Y12982D02*
X16692Y12480D01*
X16968Y13257D02*
X16692Y12982D01*
X16968Y14133D02*
X16968Y13257D01*
X17343Y14488D02*
X17343Y15060D01*
X17343Y15060D02*
X17519Y15236D01*
X18466Y16694D02*
X18648Y16694D01*
X18149Y16377D02*
X18466Y16694D01*
X18149Y15866D02*
X18149Y16377D01*
X17519Y15236D02*
X18149Y15866D01*
X18603Y14488D02*
X18603Y15149D01*
X18603Y15149D02*
X18648Y15194D01*
X12637Y14330D02*
X12637Y13897D01*
X12637Y13897D02*
X12007Y13267D01*
X12637Y16062D02*
X12637Y14330D01*
X12913Y15787D02*
X12834Y15708D01*
X12834Y15708D02*
X12834Y13700D01*
X12834Y13700D02*
X12401Y13267D01*
X17125Y9863D02*
X17125Y10092D01*
X17125Y10092D02*
X15881Y11337D01*
X15881Y11337D02*
X15881Y11937D01*
X11732Y9842D02*
X11732Y10727D01*
X18603Y13700D02*
X18543Y13700D01*
X18543Y13700D02*
X18307Y13464D01*
X16548Y16694D02*
X16548Y16726D01*
X16548Y16726D02*
X17262Y17440D01*
X17125Y9863D02*
X16869Y9863D01*
X16593Y13700D02*
X16593Y13286D01*
X16593Y13286D02*
X16535Y13228D01*
X16593Y14488D02*
X16593Y14546D01*
X17086Y15039D02*
X17086Y15944D01*
X16593Y14546D02*
X17086Y15039D01*
X16593Y14488D02*
X16593Y13700D01*
X16548Y16694D02*
X16887Y16694D01*
X17086Y16496D02*
X17086Y15944D01*
X16887Y16694D02*
X17086Y16496D01*
X17086Y15944D02*
X16836Y15694D01*
X16836Y15694D02*
X16548Y15694D01*
X11732Y12737D02*
X11674Y12737D01*
X11674Y12737D02*
X11259Y12322D01*
X11259Y12322D02*
X11259Y11199D01*
X11259Y11199D02*
X11732Y10727D01*
X17637Y11199D02*
X17637Y11023D01*
X17637Y11023D02*
X17440Y10826D01*
X15748Y9115D02*
X16417Y9115D01*
X15748Y9115D02*
X15748Y9330D01*
X18700Y5618D02*
X18700Y6338D01*
X18831Y5487D02*
X18700Y5618D01*
X14763Y13582D02*
X14763Y12905D01*
X15281Y12387D02*
X15281Y12237D01*
X14763Y12905D02*
X15281Y12387D01*
X17165Y7992D02*
X18176Y7992D01*
X18176Y7992D02*
X18700Y7468D01*
X18700Y7468D02*
X18700Y6338D01*
X18582Y6220D02*
X17598Y6220D01*
G54D24*
X18700Y6338D02*
X18582Y6220D01*
G54D23*
X17598Y6220D02*
X17362Y6456D01*
X17401Y6417D02*
X17559Y6417D01*
X17362Y6456D02*
X17401Y6417D01*
X17834Y9863D02*
X17834Y10078D01*
X17834Y10078D02*
X18031Y10275D01*
X16548Y15194D02*
X15946Y15194D01*
X18012Y17892D02*
X18012Y17440D01*
X17874Y18031D02*
X18012Y17892D01*
X16574Y18031D02*
X17874Y18031D01*
X15787Y17244D02*
X16574Y18031D01*
X15787Y15354D02*
X15787Y17244D01*
X15946Y15194D02*
X15787Y15354D01*
X14448Y13267D02*
X14763Y13582D01*
X13149Y13267D02*
X14448Y13267D01*
X13110Y13228D02*
X13149Y13267D01*
X16792Y8365D02*
X16417Y8365D01*
X17165Y7992D02*
X16792Y8365D01*
X15748Y8365D02*
X14941Y8365D01*
X14941Y8365D02*
X14685Y8622D01*
X14685Y8307D02*
X14685Y8622D01*
X14685Y8228D02*
X14685Y8307D01*
X14409Y7952D02*
X14685Y8228D01*
X14685Y8622D02*
X14685Y8976D01*
X14685Y8976D02*
X14921Y9212D01*
X15118Y9212D02*
X14921Y9212D01*
X15590Y9685D02*
X15118Y9212D01*
X16417Y8365D02*
X15748Y8365D01*
G54D25*
X12401Y10727D02*
X12401Y10275D01*
X12401Y10275D02*
X12480Y10196D01*
G54D23*
X11441Y19055D02*
X11417Y19606D01*
X11417Y19606D02*
X11496Y19527D01*
X12401Y10727D02*
X13110Y10727D01*
X13110Y12737D02*
X12401Y12737D01*
X5410Y5508D02*
X5274Y5508D01*
X5581Y5337D02*
X5410Y5508D01*
X5581Y3237D02*
X5581Y5337D01*
X8081Y9737D02*
X7581Y9737D01*
X7581Y9737D02*
X6681Y10637D01*
X3601Y12627D02*
X3646Y12232D01*
X3646Y12232D02*
X3581Y12167D01*
X3631Y12657D02*
X3631Y12672D01*
X3601Y12627D02*
X3631Y12657D01*
X3631Y12672D02*
X3601Y12642D01*
X3556Y13017D02*
X3556Y13012D01*
X3586Y13047D02*
X3556Y13017D01*
X3461Y13412D02*
X3461Y13407D01*
X1451Y13437D02*
X1786Y13367D01*
X1251Y12602D02*
X1271Y13037D01*
X1271Y13037D02*
X1276Y13042D01*
X1786Y13367D02*
X1851Y13432D01*
X1926Y12482D02*
X1396Y12257D01*
X1396Y12257D02*
X1301Y12162D01*
X1316Y12537D02*
X1301Y12157D01*
X1251Y12602D02*
X1316Y12537D01*
X1286Y12177D02*
X1286Y12172D01*
X1286Y12172D02*
X1301Y12157D01*
X1611Y11872D02*
X1616Y11872D01*
X3246Y11867D02*
X3246Y11877D01*
X3241Y11862D02*
X3246Y11867D01*
X1821Y10097D02*
X1958Y9960D01*
X1696Y11887D02*
X1821Y10097D01*
X2063Y11742D02*
X1696Y11887D01*
X2056Y11077D02*
X2066Y11407D01*
X2061Y11072D02*
X2056Y11077D01*
X2801Y11052D02*
X2781Y9962D01*
X2806Y11057D02*
X2801Y11052D01*
X2801Y11717D02*
X2801Y11387D01*
X2811Y11727D02*
X2801Y11717D01*
X2781Y9962D02*
X1961Y9962D01*
X1961Y9962D02*
X1958Y9960D01*
X1911Y6997D02*
X1911Y6312D01*
X3626Y5512D02*
X3626Y6347D01*
X3621Y5507D02*
X3626Y5512D01*
X1896Y5477D02*
X2781Y5477D01*
X1891Y5482D02*
X1896Y5477D01*
X1958Y9960D02*
X1958Y9180D01*
X1958Y9180D02*
X1931Y9152D01*
X1921Y7007D02*
X2766Y7007D01*
X1911Y6997D02*
X1921Y7007D01*
X1921Y8417D02*
X1921Y7732D01*
X1956Y8452D02*
X1921Y8417D01*
X3616Y7012D02*
X3626Y7022D01*
X3626Y7022D02*
X4467Y7022D01*
X3636Y7037D02*
X3636Y7717D01*
X3676Y9977D02*
X4451Y9977D01*
X3641Y9942D02*
X3676Y9977D01*
X3626Y8437D02*
X3626Y9157D01*
X3616Y8427D02*
X3626Y8437D01*
X3636Y7717D02*
X3616Y7737D01*
X3601Y5542D02*
X3601Y6322D01*
X3626Y5517D02*
X3601Y5542D01*
X4321Y5517D02*
X3626Y5517D01*
X3601Y6322D02*
X3626Y6347D01*
X4477Y7012D02*
X5286Y7012D01*
X4467Y7022D02*
X4477Y7012D01*
X4467Y8368D02*
X5292Y8368D01*
X5292Y8368D02*
X5296Y8372D01*
X4466Y8369D02*
X4466Y8422D01*
X4467Y8368D02*
X4466Y8369D01*
X3151Y7827D02*
X3656Y8332D01*
X2811Y7827D02*
X3151Y7827D01*
X2775Y8478D02*
X2921Y8332D01*
X2921Y8332D02*
X3656Y8332D01*
X1958Y9960D02*
X1976Y9977D01*
X1976Y9977D02*
X5296Y9977D01*
X5296Y8372D02*
X5286Y8362D01*
X5286Y8362D02*
X5286Y7012D01*
X5274Y5508D02*
X5265Y5517D01*
X5265Y5517D02*
X4321Y5517D01*
X17187Y6889D02*
X17731Y6889D01*
X17125Y9113D02*
X17125Y8543D01*
X17125Y8543D02*
X17066Y8484D01*
X17125Y9113D02*
X17834Y9113D01*
G54D25*
X13283Y4142D02*
X13314Y4173D01*
X13322Y1120D02*
X13322Y2075D01*
X13322Y2075D02*
X13283Y2115D01*
G54D23*
X18307Y11199D02*
X18307Y11141D01*
X18307Y11141D02*
X17637Y10472D01*
X18292Y5418D02*
X18292Y5629D01*
X18188Y5314D02*
X18292Y5418D01*
X18331Y6638D02*
X18331Y6889D01*
X18228Y6535D02*
X18331Y6638D01*
X17187Y5629D02*
X17692Y5629D01*
X13274Y6181D02*
X13676Y6181D01*
X13676Y6181D02*
X13991Y5866D01*
X13314Y5196D02*
X13991Y5196D01*
X16355Y5254D02*
X15823Y5254D01*
X15823Y5254D02*
X15748Y5329D01*
X16355Y6514D02*
X15823Y6514D01*
X15823Y6514D02*
X15748Y6589D01*
X11732Y11987D02*
X12401Y11987D01*
X13110Y11987D02*
X13721Y11987D01*
X14724Y10984D02*
X14724Y9842D01*
X13721Y11987D02*
X14724Y10984D01*
X13110Y11987D02*
X12401Y11987D01*
X13110Y11477D02*
X13955Y11477D01*
X14409Y11023D02*
X14409Y9370D01*
X13955Y11477D02*
X14409Y11023D01*
X11732Y11477D02*
X12401Y11477D01*
X13110Y11477D02*
X12401Y11477D01*
X10841Y18307D02*
X10841Y19055D01*
X10664Y17361D02*
X10664Y18130D01*
X10664Y18130D02*
X10841Y18307D01*
G54D24*
X5068Y15847D02*
X5068Y15443D01*
X6128Y15354D02*
X6944Y14538D01*
X5157Y15354D02*
X6128Y15354D01*
X5068Y15443D02*
X5157Y15354D01*
X5324Y15847D02*
X6535Y15847D01*
X6535Y15847D02*
X7944Y14438D01*
X4045Y18169D02*
X4045Y18631D01*
X3585Y18897D02*
X2944Y19538D01*
X3779Y18897D02*
X3585Y18897D01*
X4045Y18631D02*
X3779Y18897D01*
X3534Y18169D02*
X2313Y18169D01*
X2313Y18169D02*
X944Y19538D01*
X3789Y18169D02*
X3789Y18533D01*
X2721Y18661D02*
X1944Y19438D01*
X3661Y18661D02*
X2721Y18661D01*
X3789Y18533D02*
X3661Y18661D01*
X3534Y15847D02*
X2253Y15847D01*
X2253Y15847D02*
X944Y14538D01*
X4812Y15847D02*
X4812Y15345D01*
X5264Y15118D02*
X5944Y14438D01*
X5039Y15118D02*
X5264Y15118D01*
X4812Y15345D02*
X5039Y15118D01*
X4556Y15847D02*
X4556Y14926D01*
X4556Y14926D02*
X4944Y14538D01*
X4301Y15847D02*
X4301Y14794D01*
X4301Y14794D02*
X3944Y14438D01*
X4045Y15847D02*
X4045Y15384D01*
X3199Y14538D02*
X2944Y14538D01*
X4045Y15384D02*
X3199Y14538D01*
X3789Y15847D02*
X3789Y15482D01*
X2861Y15354D02*
X1944Y14438D01*
X3661Y15354D02*
X2861Y15354D01*
X3789Y15482D02*
X3661Y15354D01*
X4301Y18169D02*
X4301Y19081D01*
X4301Y19081D02*
X3944Y19438D01*
X4556Y18169D02*
X4556Y19149D01*
X4556Y19149D02*
X4944Y19538D01*
X4812Y18169D02*
X4812Y18631D01*
X5443Y18937D02*
X5944Y19438D01*
X5118Y18937D02*
X5443Y18937D01*
X4812Y18631D02*
X5118Y18937D01*
X5068Y18169D02*
X5068Y18533D01*
X6068Y18661D02*
X6944Y19538D01*
X5196Y18661D02*
X6068Y18661D01*
X5068Y18533D02*
X5196Y18661D01*
X5324Y18169D02*
X6675Y18169D01*
X6675Y18169D02*
X7944Y19438D01*
G54D10*
G36*
X8730Y523D02*
X5704Y523D01*
X5712Y524D01*
X5712Y524D01*
X5764Y559D01*
X6719Y1514D01*
X6753Y1566D01*
X6753Y1566D01*
X6766Y1627D01*
X6766Y8557D01*
X7627Y8557D01*
X7628Y8554D01*
X7732Y8398D01*
X7888Y8294D01*
X8071Y8257D01*
X8090Y8257D01*
X8274Y8294D01*
X8429Y8398D01*
X8533Y8554D01*
X8570Y8737D01*
X8533Y8921D01*
X8429Y9077D01*
X8295Y9166D01*
X8446Y9237D01*
X8610Y9415D01*
X8683Y9591D01*
X8683Y9883D01*
X8610Y10060D01*
X8446Y10238D01*
X8295Y10308D01*
X8429Y10398D01*
X8533Y10554D01*
X8570Y10737D01*
X8533Y10921D01*
X8429Y11077D01*
X8274Y11181D01*
X8090Y11217D01*
X8071Y11217D01*
X7888Y11181D01*
X7732Y11077D01*
X7628Y10921D01*
X7591Y10737D01*
X7628Y10554D01*
X7732Y10398D01*
X7866Y10308D01*
X7715Y10238D01*
X7551Y10060D01*
X7478Y9883D01*
X7525Y9787D01*
X8031Y9787D01*
X8031Y9795D01*
X8131Y9795D01*
X8131Y9787D01*
X8636Y9787D01*
X8683Y9883D01*
X8683Y9591D01*
X8636Y9687D01*
X8131Y9687D01*
X8131Y9679D01*
X8031Y9679D01*
X8031Y9687D01*
X7525Y9687D01*
X7478Y9591D01*
X7551Y9415D01*
X7715Y9237D01*
X7866Y9166D01*
X7732Y9077D01*
X7628Y8921D01*
X7619Y8877D01*
X6749Y8877D01*
X6682Y8944D01*
X6584Y8985D01*
X6478Y8985D01*
X6379Y8944D01*
X6304Y8869D01*
X6263Y8771D01*
X6263Y8664D01*
X6304Y8566D01*
X6379Y8491D01*
X6446Y8463D01*
X6446Y3096D01*
X6407Y3189D01*
X6332Y3264D01*
X6234Y3305D01*
X6128Y3305D01*
X6029Y3264D01*
X5954Y3189D01*
X5913Y3091D01*
X5913Y2996D01*
X5767Y2850D01*
X5733Y2799D01*
X5721Y2737D01*
X5721Y1404D01*
X5469Y1152D01*
X5533Y1249D01*
X5570Y1432D01*
X5533Y1616D01*
X5429Y1772D01*
X5295Y1861D01*
X5446Y1932D01*
X5610Y2110D01*
X5683Y2286D01*
X5683Y2578D01*
X5610Y2755D01*
X5446Y2933D01*
X5227Y3035D01*
X5131Y2988D01*
X5131Y2482D01*
X5636Y2482D01*
X5683Y2578D01*
X5683Y2286D01*
X5636Y2382D01*
X5131Y2382D01*
X5131Y2374D01*
X5031Y2374D01*
X5031Y2382D01*
X5023Y2382D01*
X5023Y2482D01*
X5031Y2482D01*
X5031Y2988D01*
X4935Y3035D01*
X4878Y3009D01*
X4994Y3124D01*
X5028Y3176D01*
X5041Y3237D01*
X5041Y3837D01*
X5028Y3899D01*
X4994Y3950D01*
X4534Y4410D01*
X4482Y4445D01*
X4421Y4457D01*
X2649Y4457D01*
X2582Y4524D01*
X2484Y4565D01*
X2378Y4565D01*
X2279Y4524D01*
X2204Y4449D01*
X2163Y4351D01*
X2163Y4244D01*
X2204Y4146D01*
X2279Y4071D01*
X2377Y4030D01*
X2484Y4030D01*
X2582Y4070D01*
X2649Y4137D01*
X4354Y4137D01*
X4399Y4093D01*
X4329Y4064D01*
X4262Y3997D01*
X4081Y3997D01*
X4019Y3985D01*
X3967Y3950D01*
X3648Y3631D01*
X3648Y3690D01*
X3607Y3789D01*
X3532Y3864D01*
X3434Y3905D01*
X3328Y3905D01*
X3229Y3864D01*
X3154Y3789D01*
X3113Y3691D01*
X3113Y3596D01*
X2345Y2828D01*
X2274Y2876D01*
X2090Y2912D01*
X2071Y2912D01*
X1888Y2876D01*
X1732Y2772D01*
X1628Y2616D01*
X1591Y2432D01*
X1628Y2249D01*
X1732Y2093D01*
X1888Y1989D01*
X2071Y1952D01*
X2090Y1952D01*
X2274Y1989D01*
X2288Y1998D01*
X2421Y1866D01*
X2421Y1778D01*
X2274Y1876D01*
X2090Y1912D01*
X2071Y1912D01*
X1888Y1876D01*
X1732Y1772D01*
X1628Y1616D01*
X1591Y1432D01*
X1628Y1249D01*
X1732Y1093D01*
X1888Y989D01*
X1921Y982D01*
X1921Y862D01*
X1933Y801D01*
X1967Y749D01*
X2157Y559D01*
X2157Y559D01*
X2209Y524D01*
X2217Y523D01*
X1193Y523D01*
X930Y575D01*
X717Y717D01*
X575Y930D01*
X523Y1193D01*
X523Y13629D01*
X8730Y13629D01*
X8730Y6591D01*
X8724Y6600D01*
X8570Y6754D01*
X8570Y7737D01*
X8533Y7921D01*
X8429Y8077D01*
X8274Y8181D01*
X8090Y8217D01*
X8071Y8217D01*
X7888Y8181D01*
X7732Y8077D01*
X7628Y7921D01*
X7591Y7737D01*
X7628Y7554D01*
X7732Y7398D01*
X7888Y7294D01*
X8071Y7257D01*
X8090Y7257D01*
X8274Y7294D01*
X8429Y7398D01*
X8533Y7554D01*
X8570Y7737D01*
X8570Y6754D01*
X8566Y6758D01*
X8533Y6921D01*
X8429Y7077D01*
X8274Y7181D01*
X8090Y7217D01*
X8071Y7217D01*
X7888Y7181D01*
X7732Y7077D01*
X7628Y6921D01*
X7591Y6737D01*
X7628Y6554D01*
X7732Y6398D01*
X7888Y6294D01*
X8071Y6257D01*
X8090Y6257D01*
X8274Y6294D01*
X8429Y6398D01*
X8447Y6424D01*
X8451Y6421D01*
X8451Y6045D01*
X8429Y6077D01*
X8274Y6181D01*
X8090Y6217D01*
X8071Y6217D01*
X7888Y6181D01*
X7732Y6077D01*
X7628Y5921D01*
X7591Y5737D01*
X7628Y5554D01*
X7732Y5398D01*
X7888Y5294D01*
X8071Y5257D01*
X8090Y5257D01*
X8274Y5294D01*
X8429Y5398D01*
X8451Y5430D01*
X8451Y5045D01*
X8429Y5077D01*
X8274Y5181D01*
X8090Y5217D01*
X8071Y5217D01*
X7888Y5181D01*
X7732Y5077D01*
X7628Y4921D01*
X7591Y4737D01*
X7628Y4554D01*
X7732Y4398D01*
X7888Y4294D01*
X8071Y4257D01*
X8090Y4257D01*
X8274Y4294D01*
X8429Y4398D01*
X8451Y4430D01*
X8451Y4045D01*
X8429Y4077D01*
X8274Y4181D01*
X8090Y4217D01*
X8071Y4217D01*
X7888Y4181D01*
X7732Y4077D01*
X7628Y3921D01*
X7591Y3737D01*
X7628Y3554D01*
X7732Y3398D01*
X7888Y3294D01*
X8071Y3257D01*
X8090Y3257D01*
X8274Y3294D01*
X8429Y3398D01*
X8451Y3430D01*
X8451Y3094D01*
X7562Y2205D01*
X7468Y2205D01*
X7369Y2164D01*
X7294Y2089D01*
X7253Y1991D01*
X7253Y1884D01*
X7294Y1786D01*
X7369Y1711D01*
X7467Y1670D01*
X7574Y1670D01*
X7672Y1710D01*
X7747Y1786D01*
X7788Y1884D01*
X7788Y1979D01*
X8724Y2914D01*
X8730Y2923D01*
X8730Y523D01*
X8730Y523D01*
G37*
G54D23*
X8730Y523D02*
X5704Y523D01*
X5712Y524D01*
X5712Y524D01*
X5764Y559D01*
X6719Y1514D01*
X6753Y1566D01*
X6753Y1566D01*
X6766Y1627D01*
X6766Y8557D01*
X7627Y8557D01*
X7628Y8554D01*
X7732Y8398D01*
X7888Y8294D01*
X8071Y8257D01*
X8090Y8257D01*
X8274Y8294D01*
X8429Y8398D01*
X8533Y8554D01*
X8570Y8737D01*
X8533Y8921D01*
X8429Y9077D01*
X8295Y9166D01*
X8446Y9237D01*
X8610Y9415D01*
X8683Y9591D01*
X8683Y9883D01*
X8610Y10060D01*
X8446Y10238D01*
X8295Y10308D01*
X8429Y10398D01*
X8533Y10554D01*
X8570Y10737D01*
X8533Y10921D01*
X8429Y11077D01*
X8274Y11181D01*
X8090Y11217D01*
X8071Y11217D01*
X7888Y11181D01*
X7732Y11077D01*
X7628Y10921D01*
X7591Y10737D01*
X7628Y10554D01*
X7732Y10398D01*
X7866Y10308D01*
X7715Y10238D01*
X7551Y10060D01*
X7478Y9883D01*
X7525Y9787D01*
X8031Y9787D01*
X8031Y9795D01*
X8131Y9795D01*
X8131Y9787D01*
X8636Y9787D01*
X8683Y9883D01*
X8683Y9591D01*
X8636Y9687D01*
X8131Y9687D01*
X8131Y9679D01*
X8031Y9679D01*
X8031Y9687D01*
X7525Y9687D01*
X7478Y9591D01*
X7551Y9415D01*
X7715Y9237D01*
X7866Y9166D01*
X7732Y9077D01*
X7628Y8921D01*
X7619Y8877D01*
X6749Y8877D01*
X6682Y8944D01*
X6584Y8985D01*
X6478Y8985D01*
X6379Y8944D01*
X6304Y8869D01*
X6263Y8771D01*
X6263Y8664D01*
X6304Y8566D01*
X6379Y8491D01*
X6446Y8463D01*
X6446Y3096D01*
X6407Y3189D01*
X6332Y3264D01*
X6234Y3305D01*
X6128Y3305D01*
X6029Y3264D01*
X5954Y3189D01*
X5913Y3091D01*
X5913Y2996D01*
X5767Y2850D01*
X5733Y2799D01*
X5721Y2737D01*
X5721Y1404D01*
X5469Y1152D01*
X5533Y1249D01*
X5570Y1432D01*
X5533Y1616D01*
X5429Y1772D01*
X5295Y1861D01*
X5446Y1932D01*
X5610Y2110D01*
X5683Y2286D01*
X5683Y2578D01*
X5610Y2755D01*
X5446Y2933D01*
X5227Y3035D01*
X5131Y2988D01*
X5131Y2482D01*
X5636Y2482D01*
X5683Y2578D01*
X5683Y2286D01*
X5636Y2382D01*
X5131Y2382D01*
X5131Y2374D01*
X5031Y2374D01*
X5031Y2382D01*
X5023Y2382D01*
X5023Y2482D01*
X5031Y2482D01*
X5031Y2988D01*
X4935Y3035D01*
X4878Y3009D01*
X4994Y3124D01*
X5028Y3176D01*
X5041Y3237D01*
X5041Y3837D01*
X5028Y3899D01*
X4994Y3950D01*
X4534Y4410D01*
X4482Y4445D01*
X4421Y4457D01*
X2649Y4457D01*
X2582Y4524D01*
X2484Y4565D01*
X2378Y4565D01*
X2279Y4524D01*
X2204Y4449D01*
X2163Y4351D01*
X2163Y4244D01*
X2204Y4146D01*
X2279Y4071D01*
X2377Y4030D01*
X2484Y4030D01*
X2582Y4070D01*
X2649Y4137D01*
X4354Y4137D01*
X4399Y4093D01*
X4329Y4064D01*
X4262Y3997D01*
X4081Y3997D01*
X4019Y3985D01*
X3967Y3950D01*
X3648Y3631D01*
X3648Y3690D01*
X3607Y3789D01*
X3532Y3864D01*
X3434Y3905D01*
X3328Y3905D01*
X3229Y3864D01*
X3154Y3789D01*
X3113Y3691D01*
X3113Y3596D01*
X2345Y2828D01*
X2274Y2876D01*
X2090Y2912D01*
X2071Y2912D01*
X1888Y2876D01*
X1732Y2772D01*
X1628Y2616D01*
X1591Y2432D01*
X1628Y2249D01*
X1732Y2093D01*
X1888Y1989D01*
X2071Y1952D01*
X2090Y1952D01*
X2274Y1989D01*
X2288Y1998D01*
X2421Y1866D01*
X2421Y1778D01*
X2274Y1876D01*
X2090Y1912D01*
X2071Y1912D01*
X1888Y1876D01*
X1732Y1772D01*
X1628Y1616D01*
X1591Y1432D01*
X1628Y1249D01*
X1732Y1093D01*
X1888Y989D01*
X1921Y982D01*
X1921Y862D01*
X1933Y801D01*
X1967Y749D01*
X2157Y559D01*
X2157Y559D01*
X2209Y524D01*
X2217Y523D01*
X1193Y523D01*
X930Y575D01*
X717Y717D01*
X575Y930D01*
X523Y1193D01*
X523Y13629D01*
X8730Y13629D01*
X8730Y6591D01*
X8724Y6600D01*
X8570Y6754D01*
X8570Y7737D01*
X8533Y7921D01*
X8429Y8077D01*
X8274Y8181D01*
X8090Y8217D01*
X8071Y8217D01*
X7888Y8181D01*
X7732Y8077D01*
X7628Y7921D01*
X7591Y7737D01*
X7628Y7554D01*
X7732Y7398D01*
X7888Y7294D01*
X8071Y7257D01*
X8090Y7257D01*
X8274Y7294D01*
X8429Y7398D01*
X8533Y7554D01*
X8570Y7737D01*
X8570Y6754D01*
X8566Y6758D01*
X8533Y6921D01*
X8429Y7077D01*
X8274Y7181D01*
X8090Y7217D01*
X8071Y7217D01*
X7888Y7181D01*
X7732Y7077D01*
X7628Y6921D01*
X7591Y6737D01*
X7628Y6554D01*
X7732Y6398D01*
X7888Y6294D01*
X8071Y6257D01*
X8090Y6257D01*
X8274Y6294D01*
X8429Y6398D01*
X8447Y6424D01*
X8451Y6421D01*
X8451Y6045D01*
X8429Y6077D01*
X8274Y6181D01*
X8090Y6217D01*
X8071Y6217D01*
X7888Y6181D01*
X7732Y6077D01*
X7628Y5921D01*
X7591Y5737D01*
X7628Y5554D01*
X7732Y5398D01*
X7888Y5294D01*
X8071Y5257D01*
X8090Y5257D01*
X8274Y5294D01*
X8429Y5398D01*
X8451Y5430D01*
X8451Y5045D01*
X8429Y5077D01*
X8274Y5181D01*
X8090Y5217D01*
X8071Y5217D01*
X7888Y5181D01*
X7732Y5077D01*
X7628Y4921D01*
X7591Y4737D01*
X7628Y4554D01*
X7732Y4398D01*
X7888Y4294D01*
X8071Y4257D01*
X8090Y4257D01*
X8274Y4294D01*
X8429Y4398D01*
X8451Y4430D01*
X8451Y4045D01*
X8429Y4077D01*
X8274Y4181D01*
X8090Y4217D01*
X8071Y4217D01*
X7888Y4181D01*
X7732Y4077D01*
X7628Y3921D01*
X7591Y3737D01*
X7628Y3554D01*
X7732Y3398D01*
X7888Y3294D01*
X8071Y3257D01*
X8090Y3257D01*
X8274Y3294D01*
X8429Y3398D01*
X8451Y3430D01*
X8451Y3094D01*
X7562Y2205D01*
X7468Y2205D01*
X7369Y2164D01*
X7294Y2089D01*
X7253Y1991D01*
X7253Y1884D01*
X7294Y1786D01*
X7369Y1711D01*
X7467Y1670D01*
X7574Y1670D01*
X7672Y1710D01*
X7747Y1786D01*
X7788Y1884D01*
X7788Y1979D01*
X8724Y2914D01*
X8730Y2923D01*
X8730Y523D01*
G54D10*
G36*
X10372Y1942D02*
X10364Y1942D01*
X10364Y1934D01*
X10264Y1934D01*
X10264Y1942D01*
X10257Y1942D01*
X10257Y2042D01*
X10264Y2042D01*
X10264Y2050D01*
X10364Y2050D01*
X10364Y2042D01*
X10372Y2042D01*
X10372Y1942D01*
X10372Y1942D01*
G37*
G54D23*
X10372Y1942D02*
X10364Y1942D01*
X10364Y1934D01*
X10264Y1934D01*
X10264Y1942D01*
X10257Y1942D01*
X10257Y2042D01*
X10264Y2042D01*
X10264Y2050D01*
X10364Y2050D01*
X10364Y2042D01*
X10372Y2042D01*
X10372Y1942D01*
G54D10*
G36*
X12559Y2763D02*
X12429Y2817D01*
X12333Y2770D01*
X12333Y2265D01*
X12341Y2265D01*
X12341Y2165D01*
X12333Y2165D01*
X12333Y1775D01*
X12333Y1660D01*
X12333Y1270D01*
X12341Y1270D01*
X12341Y1170D01*
X12333Y1170D01*
X12333Y1162D01*
X12233Y1162D01*
X12233Y1170D01*
X12233Y1270D01*
X12233Y1660D01*
X12233Y1775D01*
X12233Y2165D01*
X12233Y2265D01*
X12233Y2770D01*
X12137Y2817D01*
X11960Y2744D01*
X11782Y2580D01*
X11680Y2361D01*
X11727Y2265D01*
X12233Y2265D01*
X12233Y2165D01*
X11727Y2165D01*
X11680Y2069D01*
X11782Y1849D01*
X11920Y1722D01*
X11917Y1721D01*
X11754Y1543D01*
X11680Y1366D01*
X11728Y1270D01*
X12233Y1270D01*
X12233Y1170D01*
X11728Y1170D01*
X11680Y1074D01*
X11741Y927D01*
X10934Y927D01*
X10947Y992D01*
X10922Y1115D01*
X11537Y1730D01*
X11537Y1730D01*
X11610Y1839D01*
X11635Y1968D01*
X11635Y3158D01*
X12043Y3566D01*
X12174Y3541D01*
X12411Y3588D01*
X12455Y3618D01*
X12455Y2992D01*
X12478Y2877D01*
X12543Y2779D01*
X12559Y2763D01*
X12559Y2763D01*
G37*
G54D23*
X12559Y2763D02*
X12429Y2817D01*
X12333Y2770D01*
X12333Y2265D01*
X12341Y2265D01*
X12341Y2165D01*
X12333Y2165D01*
X12333Y1775D01*
X12333Y1660D01*
X12333Y1270D01*
X12341Y1270D01*
X12341Y1170D01*
X12333Y1170D01*
X12333Y1162D01*
X12233Y1162D01*
X12233Y1170D01*
X12233Y1270D01*
X12233Y1660D01*
X12233Y1775D01*
X12233Y2165D01*
X12233Y2265D01*
X12233Y2770D01*
X12137Y2817D01*
X11960Y2744D01*
X11782Y2580D01*
X11680Y2361D01*
X11727Y2265D01*
X12233Y2265D01*
X12233Y2165D01*
X11727Y2165D01*
X11680Y2069D01*
X11782Y1849D01*
X11920Y1722D01*
X11917Y1721D01*
X11754Y1543D01*
X11680Y1366D01*
X11728Y1270D01*
X12233Y1270D01*
X12233Y1170D01*
X11728Y1170D01*
X11680Y1074D01*
X11741Y927D01*
X10934Y927D01*
X10947Y992D01*
X10922Y1115D01*
X11537Y1730D01*
X11537Y1730D01*
X11610Y1839D01*
X11635Y1968D01*
X11635Y3158D01*
X12043Y3566D01*
X12174Y3541D01*
X12411Y3588D01*
X12455Y3618D01*
X12455Y2992D01*
X12478Y2877D01*
X12543Y2779D01*
X12559Y2763D01*
G54D10*
G36*
X19388Y11934D02*
X19380Y11934D01*
X19380Y11926D01*
X19280Y11926D01*
X19280Y11934D01*
X18775Y11934D01*
X18758Y11899D01*
X18357Y11899D01*
X18357Y11891D01*
X18257Y11891D01*
X18257Y11899D01*
X18257Y11999D01*
X18257Y12312D01*
X18194Y12374D01*
X18081Y12374D01*
X17982Y12374D01*
X17972Y12370D01*
X17962Y12374D01*
X17863Y12374D01*
X17750Y12374D01*
X17687Y12312D01*
X17687Y11999D01*
X17844Y11999D01*
X18100Y11999D01*
X18257Y11999D01*
X18257Y11899D01*
X18100Y11899D01*
X17844Y11899D01*
X17687Y11899D01*
X17687Y11891D01*
X17587Y11891D01*
X17587Y11899D01*
X17579Y11899D01*
X17579Y11999D01*
X17587Y11999D01*
X17587Y12312D01*
X17525Y12374D01*
X17412Y12374D01*
X17313Y12374D01*
X17221Y12336D01*
X17189Y12305D01*
X17189Y12828D01*
X17372Y13011D01*
X17410Y12919D01*
X17524Y12804D01*
X17674Y12742D01*
X17836Y12742D01*
X17986Y12803D01*
X18101Y12918D01*
X18163Y13068D01*
X18163Y13083D01*
X18225Y13057D01*
X18387Y13057D01*
X18537Y13118D01*
X18594Y13175D01*
X18736Y13175D01*
X18698Y12984D01*
X18745Y12746D01*
X18880Y12545D01*
X18968Y12486D01*
X18965Y12485D01*
X18801Y12307D01*
X18787Y12273D01*
X18723Y12336D01*
X18631Y12374D01*
X18532Y12374D01*
X18419Y12374D01*
X18357Y12312D01*
X18357Y11999D01*
X18769Y11999D01*
X18804Y12034D01*
X19280Y12034D01*
X19280Y12042D01*
X19380Y12042D01*
X19380Y12034D01*
X19388Y12034D01*
X19388Y11934D01*
X19388Y11934D01*
G37*
G54D23*
X19388Y11934D02*
X19380Y11934D01*
X19380Y11926D01*
X19280Y11926D01*
X19280Y11934D01*
X18775Y11934D01*
X18758Y11899D01*
X18357Y11899D01*
X18357Y11891D01*
X18257Y11891D01*
X18257Y11899D01*
X18257Y11999D01*
X18257Y12312D01*
X18194Y12374D01*
X18081Y12374D01*
X17982Y12374D01*
X17972Y12370D01*
X17962Y12374D01*
X17863Y12374D01*
X17750Y12374D01*
X17687Y12312D01*
X17687Y11999D01*
X17844Y11999D01*
X18100Y11999D01*
X18257Y11999D01*
X18257Y11899D01*
X18100Y11899D01*
X17844Y11899D01*
X17687Y11899D01*
X17687Y11891D01*
X17587Y11891D01*
X17587Y11899D01*
X17579Y11899D01*
X17579Y11999D01*
X17587Y11999D01*
X17587Y12312D01*
X17525Y12374D01*
X17412Y12374D01*
X17313Y12374D01*
X17221Y12336D01*
X17189Y12305D01*
X17189Y12828D01*
X17372Y13011D01*
X17410Y12919D01*
X17524Y12804D01*
X17674Y12742D01*
X17836Y12742D01*
X17986Y12803D01*
X18101Y12918D01*
X18163Y13068D01*
X18163Y13083D01*
X18225Y13057D01*
X18387Y13057D01*
X18537Y13118D01*
X18594Y13175D01*
X18736Y13175D01*
X18698Y12984D01*
X18745Y12746D01*
X18880Y12545D01*
X18968Y12486D01*
X18965Y12485D01*
X18801Y12307D01*
X18787Y12273D01*
X18723Y12336D01*
X18631Y12374D01*
X18532Y12374D01*
X18419Y12374D01*
X18357Y12312D01*
X18357Y11999D01*
X18769Y11999D01*
X18804Y12034D01*
X19280Y12034D01*
X19280Y12042D01*
X19380Y12042D01*
X19380Y12034D01*
X19388Y12034D01*
X19388Y11934D01*
G54D10*
G36*
X19388Y1934D02*
X19380Y1934D01*
X19380Y1926D01*
X19280Y1926D01*
X19280Y1934D01*
X18775Y1934D01*
X18728Y1838D01*
X18801Y1661D01*
X18965Y1483D01*
X18968Y1481D01*
X18880Y1422D01*
X18745Y1221D01*
X18698Y984D01*
X18709Y927D01*
X17877Y927D01*
X17915Y1120D01*
X17868Y1357D01*
X17734Y1558D01*
X17622Y1633D01*
X17622Y3976D01*
X17599Y4091D01*
X17599Y4091D01*
X17573Y4130D01*
X17534Y4188D01*
X17311Y4412D01*
X17353Y4453D01*
X17415Y4603D01*
X17415Y4765D01*
X17353Y4915D01*
X17238Y5030D01*
X17089Y5092D01*
X17064Y5092D01*
X16992Y5163D01*
X16992Y5261D01*
X17040Y5261D01*
X17356Y5261D01*
X17425Y5192D01*
X17517Y5154D01*
X17616Y5154D01*
X17814Y5154D01*
X17843Y5084D01*
X17957Y4969D01*
X18107Y4907D01*
X18269Y4907D01*
X18419Y4969D01*
X18534Y5083D01*
X18594Y5228D01*
X18629Y5263D01*
X18667Y5355D01*
X18667Y5454D01*
X18667Y5904D01*
X18629Y5996D01*
X18558Y6066D01*
X18466Y6104D01*
X18367Y6104D01*
X18117Y6104D01*
X18025Y6066D01*
X17992Y6033D01*
X17958Y6066D01*
X17866Y6104D01*
X17767Y6104D01*
X17517Y6104D01*
X17425Y6066D01*
X17356Y5997D01*
X17334Y5997D01*
X16940Y5997D01*
X16849Y5959D01*
X16802Y5913D01*
X16802Y5936D01*
X16802Y6027D01*
X17023Y6248D01*
X17088Y6345D01*
X17088Y6345D01*
X17111Y6460D01*
X17111Y6460D01*
X17111Y6521D01*
X17395Y6521D01*
X17464Y6452D01*
X17556Y6414D01*
X17656Y6414D01*
X17837Y6414D01*
X17882Y6304D01*
X17997Y6190D01*
X18146Y6128D01*
X18309Y6127D01*
X18458Y6189D01*
X18573Y6304D01*
X18635Y6454D01*
X18635Y6490D01*
X18668Y6523D01*
X18706Y6615D01*
X18706Y6714D01*
X18706Y6944D01*
X18745Y6746D01*
X18880Y6545D01*
X18972Y6484D01*
X18880Y6422D01*
X18745Y6221D01*
X18698Y5984D01*
X18745Y5746D01*
X18880Y5545D01*
X18972Y5484D01*
X18880Y5422D01*
X18745Y5221D01*
X18698Y4984D01*
X18745Y4746D01*
X18880Y4545D01*
X18972Y4484D01*
X18880Y4422D01*
X18745Y4221D01*
X18698Y3984D01*
X18745Y3746D01*
X18880Y3545D01*
X18972Y3484D01*
X18880Y3422D01*
X18745Y3221D01*
X18698Y2984D01*
X18745Y2746D01*
X18880Y2545D01*
X18968Y2486D01*
X18965Y2485D01*
X18801Y2307D01*
X18728Y2130D01*
X18775Y2034D01*
X19280Y2034D01*
X19280Y2042D01*
X19380Y2042D01*
X19380Y2034D01*
X19388Y2034D01*
X19388Y1934D01*
X19388Y1934D01*
G37*
G54D23*
X19388Y1934D02*
X19380Y1934D01*
X19380Y1926D01*
X19280Y1926D01*
X19280Y1934D01*
X18775Y1934D01*
X18728Y1838D01*
X18801Y1661D01*
X18965Y1483D01*
X18968Y1481D01*
X18880Y1422D01*
X18745Y1221D01*
X18698Y984D01*
X18709Y927D01*
X17877Y927D01*
X17915Y1120D01*
X17868Y1357D01*
X17734Y1558D01*
X17622Y1633D01*
X17622Y3976D01*
X17599Y4091D01*
X17599Y4091D01*
X17573Y4130D01*
X17534Y4188D01*
X17311Y4412D01*
X17353Y4453D01*
X17415Y4603D01*
X17415Y4765D01*
X17353Y4915D01*
X17238Y5030D01*
X17089Y5092D01*
X17064Y5092D01*
X16992Y5163D01*
X16992Y5261D01*
X17040Y5261D01*
X17356Y5261D01*
X17425Y5192D01*
X17517Y5154D01*
X17616Y5154D01*
X17814Y5154D01*
X17843Y5084D01*
X17957Y4969D01*
X18107Y4907D01*
X18269Y4907D01*
X18419Y4969D01*
X18534Y5083D01*
X18594Y5228D01*
X18629Y5263D01*
X18667Y5355D01*
X18667Y5454D01*
X18667Y5904D01*
X18629Y5996D01*
X18558Y6066D01*
X18466Y6104D01*
X18367Y6104D01*
X18117Y6104D01*
X18025Y6066D01*
X17992Y6033D01*
X17958Y6066D01*
X17866Y6104D01*
X17767Y6104D01*
X17517Y6104D01*
X17425Y6066D01*
X17356Y5997D01*
X17334Y5997D01*
X16940Y5997D01*
X16849Y5959D01*
X16802Y5913D01*
X16802Y5936D01*
X16802Y6027D01*
X17023Y6248D01*
X17088Y6345D01*
X17088Y6345D01*
X17111Y6460D01*
X17111Y6460D01*
X17111Y6521D01*
X17395Y6521D01*
X17464Y6452D01*
X17556Y6414D01*
X17656Y6414D01*
X17837Y6414D01*
X17882Y6304D01*
X17997Y6190D01*
X18146Y6128D01*
X18309Y6127D01*
X18458Y6189D01*
X18573Y6304D01*
X18635Y6454D01*
X18635Y6490D01*
X18668Y6523D01*
X18706Y6615D01*
X18706Y6714D01*
X18706Y6944D01*
X18745Y6746D01*
X18880Y6545D01*
X18972Y6484D01*
X18880Y6422D01*
X18745Y6221D01*
X18698Y5984D01*
X18745Y5746D01*
X18880Y5545D01*
X18972Y5484D01*
X18880Y5422D01*
X18745Y5221D01*
X18698Y4984D01*
X18745Y4746D01*
X18880Y4545D01*
X18972Y4484D01*
X18880Y4422D01*
X18745Y4221D01*
X18698Y3984D01*
X18745Y3746D01*
X18880Y3545D01*
X18972Y3484D01*
X18880Y3422D01*
X18745Y3221D01*
X18698Y2984D01*
X18745Y2746D01*
X18880Y2545D01*
X18968Y2486D01*
X18965Y2485D01*
X18801Y2307D01*
X18728Y2130D01*
X18775Y2034D01*
X19280Y2034D01*
X19280Y2042D01*
X19380Y2042D01*
X19380Y2034D01*
X19388Y2034D01*
X19388Y1934D01*
G54D10*
G36*
X19809Y13381D02*
X19781Y13422D01*
X19580Y13557D01*
X19342Y13604D01*
X19318Y13604D01*
X19081Y13557D01*
X19028Y13521D01*
X19028Y14025D01*
X18999Y14094D01*
X19028Y14163D01*
X19028Y14262D01*
X19028Y14812D01*
X19015Y14844D01*
X19065Y14864D01*
X19135Y14935D01*
X19173Y15027D01*
X19173Y15126D01*
X19173Y15211D01*
X19188Y15220D01*
X19306Y15339D01*
X19371Y15436D01*
X19394Y15551D01*
X19394Y15551D01*
X19394Y15944D01*
X19371Y16059D01*
X19371Y16059D01*
X19345Y16098D01*
X19306Y16157D01*
X19173Y16289D01*
X19173Y16362D01*
X19139Y16444D01*
X19173Y16527D01*
X19173Y16626D01*
X19173Y16862D01*
X19135Y16954D01*
X19065Y17024D01*
X18973Y17062D01*
X18874Y17062D01*
X18415Y17062D01*
X18437Y17116D01*
X18437Y17215D01*
X18437Y17328D01*
X18437Y17553D01*
X18437Y17666D01*
X18437Y17765D01*
X18399Y17857D01*
X18329Y17927D01*
X18237Y17965D01*
X18125Y17965D01*
X18062Y17903D01*
X18062Y17490D01*
X18375Y17490D01*
X18437Y17553D01*
X18437Y17328D01*
X18375Y17390D01*
X18062Y17390D01*
X18062Y16978D01*
X18125Y16915D01*
X18145Y16915D01*
X18122Y16862D01*
X18122Y16775D01*
X17937Y16590D01*
X17872Y16492D01*
X17849Y16377D01*
X17849Y15990D01*
X17386Y15527D01*
X17386Y15944D01*
X17386Y16496D01*
X17363Y16610D01*
X17363Y16610D01*
X17298Y16708D01*
X17126Y16880D01*
X17162Y16915D01*
X17487Y16915D01*
X17579Y16954D01*
X17637Y17012D01*
X17696Y16954D01*
X17788Y16915D01*
X17900Y16915D01*
X17962Y16978D01*
X17962Y17390D01*
X17954Y17390D01*
X17954Y17490D01*
X17962Y17490D01*
X17962Y17903D01*
X17900Y17965D01*
X17788Y17965D01*
X17696Y17927D01*
X17637Y17869D01*
X17579Y17927D01*
X17487Y17965D01*
X17388Y17965D01*
X17038Y17965D01*
X16946Y17927D01*
X16875Y17857D01*
X16837Y17765D01*
X16837Y17666D01*
X16837Y17440D01*
X16460Y17062D01*
X16223Y17062D01*
X16131Y17024D01*
X16060Y16954D01*
X16022Y16862D01*
X16022Y16763D01*
X16022Y16527D01*
X16057Y16444D01*
X16022Y16362D01*
X16022Y16263D01*
X16022Y16027D01*
X16057Y15944D01*
X16022Y15862D01*
X16022Y15763D01*
X16022Y15527D01*
X16057Y15444D01*
X16022Y15362D01*
X16022Y15307D01*
X16085Y15244D01*
X16498Y15244D01*
X16498Y15252D01*
X16598Y15252D01*
X16598Y15244D01*
X16606Y15244D01*
X16606Y15144D01*
X16598Y15144D01*
X16598Y15137D01*
X16498Y15137D01*
X16498Y15144D01*
X16085Y15144D01*
X16022Y15082D01*
X16022Y15027D01*
X16060Y14935D01*
X16131Y14864D01*
X16181Y14844D01*
X16168Y14812D01*
X16168Y14713D01*
X16168Y14163D01*
X16197Y14094D01*
X16168Y14025D01*
X16168Y13926D01*
X16168Y13407D01*
X16128Y13309D01*
X16127Y13147D01*
X16189Y12997D01*
X16304Y12883D01*
X16392Y12846D01*
X16392Y12751D01*
X16383Y12747D01*
X16268Y12632D01*
X16206Y12482D01*
X16206Y12320D01*
X16268Y12171D01*
X16383Y12056D01*
X16458Y12024D01*
X16403Y11892D01*
X16403Y11730D01*
X16465Y11580D01*
X16579Y11465D01*
X16729Y11403D01*
X16891Y11403D01*
X17041Y11465D01*
X17156Y11579D01*
X17170Y11613D01*
X17209Y11574D01*
X17150Y11516D01*
X17112Y11424D01*
X17112Y11325D01*
X17112Y11074D01*
X17095Y11057D01*
X17033Y10908D01*
X17033Y10746D01*
X17095Y10596D01*
X17209Y10481D01*
X17230Y10473D01*
X17230Y10412D01*
X16181Y11462D01*
X16181Y11661D01*
X16226Y11706D01*
X16288Y11856D01*
X16288Y12018D01*
X16226Y12168D01*
X16112Y12283D01*
X16017Y12322D01*
X16017Y18253D01*
X15952Y18410D01*
X15832Y18530D01*
X15675Y18595D01*
X15505Y18596D01*
X15348Y18531D01*
X15228Y18411D01*
X15163Y18254D01*
X15163Y18084D01*
X15228Y17927D01*
X15348Y17807D01*
X15505Y17742D01*
X15674Y17741D01*
X15831Y17806D01*
X15952Y17926D01*
X16017Y18083D01*
X16017Y18253D01*
X16017Y12322D01*
X15962Y12345D01*
X15800Y12345D01*
X15650Y12283D01*
X15535Y12168D01*
X15473Y12019D01*
X15473Y11857D01*
X15535Y11707D01*
X15581Y11661D01*
X15581Y11337D01*
X15603Y11222D01*
X15668Y11125D01*
X16631Y10162D01*
X16600Y10087D01*
X16600Y9991D01*
X16591Y9977D01*
X16569Y9863D01*
X16591Y9748D01*
X16600Y9734D01*
X16600Y9638D01*
X16639Y9546D01*
X16645Y9540D01*
X16642Y9540D01*
X16102Y9540D01*
X16093Y9561D01*
X15979Y9675D01*
X15829Y9738D01*
X15667Y9738D01*
X15517Y9676D01*
X15402Y9561D01*
X15387Y9525D01*
X15331Y9502D01*
X15261Y9431D01*
X15223Y9339D01*
X15223Y9240D01*
X15223Y8890D01*
X15261Y8798D01*
X15319Y8740D01*
X15261Y8681D01*
X15223Y8589D01*
X15223Y8477D01*
X15285Y8415D01*
X15698Y8415D01*
X15698Y8423D01*
X15798Y8423D01*
X15798Y8415D01*
X15954Y8415D01*
X16210Y8415D01*
X16367Y8415D01*
X16367Y8423D01*
X16467Y8423D01*
X16467Y8415D01*
X16475Y8415D01*
X16475Y8315D01*
X16467Y8315D01*
X16467Y8002D01*
X16529Y7940D01*
X16642Y7940D01*
X16742Y7940D01*
X16833Y7978D01*
X16904Y8048D01*
X16926Y8101D01*
X16985Y8076D01*
X17147Y8076D01*
X17297Y8138D01*
X17412Y8253D01*
X17474Y8402D01*
X17474Y8564D01*
X17425Y8682D01*
X17425Y8688D01*
X17450Y8688D01*
X17480Y8700D01*
X17509Y8688D01*
X17609Y8688D01*
X18159Y8688D01*
X18251Y8726D01*
X18321Y8796D01*
X18359Y8888D01*
X18359Y8987D01*
X18359Y9337D01*
X18321Y9429D01*
X18263Y9488D01*
X18321Y9546D01*
X18359Y9638D01*
X18359Y9750D01*
X18297Y9813D01*
X17884Y9813D01*
X17884Y9805D01*
X17784Y9805D01*
X17784Y9813D01*
X17776Y9813D01*
X17776Y9913D01*
X17784Y9913D01*
X17784Y9921D01*
X17884Y9921D01*
X17884Y9913D01*
X18297Y9913D01*
X18359Y9975D01*
X18359Y10087D01*
X18321Y10179D01*
X18251Y10250D01*
X18159Y10288D01*
X18059Y10288D01*
X18002Y10288D01*
X18045Y10391D01*
X18045Y10455D01*
X18364Y10774D01*
X18631Y10774D01*
X18723Y10812D01*
X18731Y10820D01*
X18745Y10746D01*
X18880Y10545D01*
X18972Y10484D01*
X18880Y10422D01*
X18745Y10221D01*
X18698Y9984D01*
X18745Y9746D01*
X18880Y9545D01*
X18972Y9484D01*
X18880Y9422D01*
X18745Y9221D01*
X18698Y8984D01*
X18745Y8746D01*
X18880Y8545D01*
X18972Y8484D01*
X18880Y8422D01*
X18745Y8221D01*
X18698Y7984D01*
X18745Y7746D01*
X18880Y7545D01*
X18972Y7484D01*
X18880Y7422D01*
X18745Y7221D01*
X18706Y7024D01*
X18706Y7164D01*
X18668Y7256D01*
X18598Y7326D01*
X18506Y7364D01*
X18406Y7364D01*
X18156Y7364D01*
X18064Y7326D01*
X18031Y7293D01*
X17998Y7326D01*
X17906Y7364D01*
X17806Y7364D01*
X17556Y7364D01*
X17464Y7326D01*
X17395Y7257D01*
X17334Y7257D01*
X16940Y7257D01*
X16849Y7219D01*
X16802Y7173D01*
X16802Y7196D01*
X16802Y7432D01*
X16764Y7524D01*
X16694Y7594D01*
X16602Y7632D01*
X16502Y7632D01*
X16367Y7632D01*
X16367Y8002D01*
X16367Y8315D01*
X16210Y8315D01*
X15954Y8315D01*
X15798Y8315D01*
X15798Y8002D01*
X15860Y7940D01*
X15973Y7940D01*
X16072Y7940D01*
X16082Y7944D01*
X16092Y7940D01*
X16192Y7940D01*
X16304Y7940D01*
X16367Y8002D01*
X16367Y7632D01*
X16108Y7632D01*
X16017Y7594D01*
X15987Y7564D01*
X15923Y7564D01*
X15552Y7564D01*
X15564Y7595D01*
X15565Y7757D01*
X15503Y7907D01*
X15470Y7940D01*
X15522Y7940D01*
X15635Y7940D01*
X15698Y8002D01*
X15698Y8315D01*
X15285Y8315D01*
X15223Y8252D01*
X15223Y8140D01*
X15247Y8080D01*
X15238Y8084D01*
X15076Y8084D01*
X14926Y8022D01*
X14812Y7908D01*
X14750Y7758D01*
X14750Y7693D01*
X14512Y7456D01*
X14447Y7358D01*
X14431Y7281D01*
X14369Y7343D01*
X14369Y7966D01*
X14439Y8036D01*
X14501Y8186D01*
X14502Y8348D01*
X14440Y8498D01*
X14325Y8612D01*
X14226Y8654D01*
X14226Y8663D01*
X14164Y8813D01*
X14050Y8927D01*
X13900Y8990D01*
X13738Y8990D01*
X13635Y8947D01*
X13635Y10502D01*
X13635Y10614D01*
X13572Y10677D01*
X13160Y10677D01*
X13160Y10364D01*
X13222Y10302D01*
X13335Y10302D01*
X13434Y10302D01*
X13526Y10340D01*
X13597Y10410D01*
X13635Y10502D01*
X13635Y8947D01*
X13588Y8928D01*
X13473Y8813D01*
X13411Y8664D01*
X13411Y8501D01*
X13473Y8352D01*
X13518Y8306D01*
X13518Y7417D01*
X13060Y7875D01*
X13060Y10364D01*
X13060Y10677D01*
X12864Y10677D01*
X12647Y10677D01*
X12451Y10677D01*
X12451Y10364D01*
X12514Y10302D01*
X12626Y10302D01*
X12726Y10302D01*
X12755Y10314D01*
X12785Y10302D01*
X12884Y10302D01*
X12997Y10302D01*
X13060Y10364D01*
X13060Y7875D01*
X12416Y8519D01*
X12319Y8584D01*
X12204Y8607D01*
X12166Y8607D01*
X12120Y8652D01*
X11971Y8714D01*
X11809Y8714D01*
X11659Y8652D01*
X11557Y8551D01*
X11205Y8903D01*
X11205Y9401D01*
X11182Y9516D01*
X11117Y9613D01*
X11117Y9613D01*
X10912Y9818D01*
X10947Y9992D01*
X10899Y10229D01*
X10765Y10430D01*
X10673Y10492D01*
X10765Y10553D01*
X10899Y10754D01*
X10947Y10992D01*
X10899Y11229D01*
X10765Y11430D01*
X10676Y11489D01*
X10680Y11491D01*
X10844Y11669D01*
X10917Y11846D01*
X10870Y11942D01*
X10364Y11942D01*
X10364Y11934D01*
X10264Y11934D01*
X10264Y11942D01*
X10257Y11942D01*
X10257Y12042D01*
X10264Y12042D01*
X10264Y12050D01*
X10364Y12050D01*
X10364Y12042D01*
X10870Y12042D01*
X10917Y12138D01*
X10844Y12314D01*
X10680Y12492D01*
X10676Y12494D01*
X10765Y12553D01*
X10899Y12754D01*
X10947Y12992D01*
X10899Y13229D01*
X10765Y13430D01*
X10564Y13564D01*
X10327Y13612D01*
X10302Y13612D01*
X10065Y13564D01*
X9882Y13442D01*
X10720Y14280D01*
X10724Y14276D01*
X10816Y14238D01*
X10916Y14238D01*
X12333Y14238D01*
X12337Y14240D01*
X12337Y14021D01*
X11991Y13675D01*
X11927Y13675D01*
X11777Y13613D01*
X11662Y13498D01*
X11600Y13349D01*
X11600Y13187D01*
X11610Y13162D01*
X11407Y13162D01*
X11315Y13124D01*
X11245Y13053D01*
X11207Y12961D01*
X11207Y12862D01*
X11207Y12694D01*
X11047Y12534D01*
X10982Y12437D01*
X10959Y12322D01*
X10959Y11199D01*
X10982Y11084D01*
X11047Y10987D01*
X11207Y10828D01*
X11207Y10502D01*
X11245Y10410D01*
X11315Y10340D01*
X11407Y10302D01*
X11432Y10302D01*
X11432Y10118D01*
X11387Y10073D01*
X11324Y9923D01*
X11324Y9761D01*
X11386Y9612D01*
X11501Y9497D01*
X11650Y9435D01*
X11812Y9434D01*
X11962Y9496D01*
X12077Y9611D01*
X12139Y9761D01*
X12139Y9923D01*
X12077Y10073D01*
X12032Y10118D01*
X12032Y10302D01*
X12057Y10302D01*
X12066Y10306D01*
X12076Y10302D01*
X12176Y10302D01*
X12289Y10302D01*
X12351Y10364D01*
X12351Y10677D01*
X12343Y10677D01*
X12343Y10777D01*
X12351Y10777D01*
X12351Y10785D01*
X12451Y10785D01*
X12451Y10777D01*
X12647Y10777D01*
X12864Y10777D01*
X13060Y10777D01*
X13060Y10785D01*
X13160Y10785D01*
X13160Y10777D01*
X13572Y10777D01*
X13635Y10839D01*
X13635Y10952D01*
X13597Y11043D01*
X13538Y11102D01*
X13597Y11160D01*
X13604Y11177D01*
X13831Y11177D01*
X14109Y10899D01*
X14109Y9646D01*
X14064Y9601D01*
X14002Y9451D01*
X14001Y9289D01*
X14063Y9139D01*
X14178Y9024D01*
X14328Y8962D01*
X14490Y8962D01*
X14639Y9024D01*
X14754Y9138D01*
X14816Y9288D01*
X14816Y9439D01*
X14954Y9496D01*
X15069Y9611D01*
X15131Y9761D01*
X15131Y9923D01*
X15070Y10073D01*
X15024Y10118D01*
X15024Y10984D01*
X15001Y11099D01*
X14936Y11196D01*
X14285Y11847D01*
X14285Y18252D01*
X14220Y18409D01*
X14100Y18529D01*
X13943Y18594D01*
X13773Y18595D01*
X13616Y18530D01*
X13496Y18410D01*
X13431Y18253D01*
X13431Y18083D01*
X13496Y17926D01*
X13616Y17806D01*
X13773Y17741D01*
X13942Y17740D01*
X14099Y17805D01*
X14220Y17925D01*
X14285Y18082D01*
X14285Y18252D01*
X14285Y11847D01*
X13933Y12199D01*
X13836Y12264D01*
X13721Y12287D01*
X13604Y12287D01*
X13597Y12303D01*
X13538Y12362D01*
X13597Y12420D01*
X13635Y12512D01*
X13635Y12624D01*
X13635Y12849D01*
X13635Y12961D01*
X13597Y13053D01*
X13526Y13124D01*
X13434Y13162D01*
X13335Y13162D01*
X13222Y13162D01*
X13160Y13099D01*
X13160Y12787D01*
X13572Y12787D01*
X13635Y12849D01*
X13635Y12624D01*
X13572Y12687D01*
X13160Y12687D01*
X13160Y12679D01*
X13060Y12679D01*
X13060Y12687D01*
X12864Y12687D01*
X12647Y12687D01*
X12451Y12687D01*
X12451Y12679D01*
X12351Y12679D01*
X12351Y12687D01*
X12343Y12687D01*
X12343Y12787D01*
X12351Y12787D01*
X12351Y12795D01*
X12451Y12795D01*
X12451Y12787D01*
X12647Y12787D01*
X12864Y12787D01*
X13060Y12787D01*
X13060Y13099D01*
X12997Y13162D01*
X12884Y13162D01*
X12798Y13162D01*
X12808Y13186D01*
X12809Y13250D01*
X13046Y13488D01*
X13111Y13585D01*
X13111Y13585D01*
X13134Y13700D01*
X13134Y15437D01*
X13143Y15441D01*
X13258Y15556D01*
X13320Y15705D01*
X13320Y15868D01*
X13259Y16017D01*
X13144Y16132D01*
X13030Y16180D01*
X12983Y16293D01*
X12868Y16408D01*
X12719Y16470D01*
X12557Y16470D01*
X12407Y16408D01*
X12292Y16294D01*
X12230Y16144D01*
X12230Y15982D01*
X12292Y15832D01*
X12337Y15786D01*
X12337Y15602D01*
X12333Y15604D01*
X12233Y15604D01*
X11924Y15604D01*
X11924Y16696D01*
X11956Y16709D01*
X12026Y16780D01*
X12029Y16787D01*
X12032Y16780D01*
X12103Y16709D01*
X12195Y16671D01*
X12294Y16671D01*
X12774Y16671D01*
X12866Y16709D01*
X12936Y16780D01*
X12974Y16872D01*
X12974Y16971D01*
X12974Y17851D01*
X12936Y17943D01*
X12913Y17966D01*
X13022Y18075D01*
X13084Y18225D01*
X13084Y18387D01*
X13022Y18537D01*
X12908Y18652D01*
X12758Y18714D01*
X12596Y18714D01*
X12529Y18686D01*
X12515Y18700D01*
X12573Y18759D01*
X12611Y18851D01*
X12611Y18963D01*
X12611Y19188D01*
X12611Y19300D01*
X12573Y19392D01*
X12503Y19462D01*
X12411Y19500D01*
X12311Y19500D01*
X12199Y19500D01*
X12136Y19438D01*
X12136Y19125D01*
X12549Y19125D01*
X12611Y19188D01*
X12611Y18963D01*
X12549Y19025D01*
X12136Y19025D01*
X12136Y19017D01*
X12036Y19017D01*
X12036Y19025D01*
X12036Y19125D01*
X12036Y19438D01*
X11974Y19500D01*
X11861Y19500D01*
X11761Y19500D01*
X11717Y19482D01*
X11708Y19492D01*
X11616Y19530D01*
X11554Y19530D01*
X11491Y19467D01*
X11491Y19105D01*
X11754Y19105D01*
X11774Y19125D01*
X12036Y19125D01*
X12036Y19025D01*
X11624Y19025D01*
X11603Y19005D01*
X11491Y19005D01*
X11491Y18997D01*
X11391Y18997D01*
X11391Y19005D01*
X11383Y19005D01*
X11383Y19105D01*
X11391Y19105D01*
X11391Y19467D01*
X11329Y19530D01*
X11267Y19530D01*
X11175Y19492D01*
X11141Y19458D01*
X11108Y19492D01*
X11016Y19530D01*
X10917Y19530D01*
X10667Y19530D01*
X10575Y19492D01*
X10504Y19421D01*
X10466Y19329D01*
X10466Y19230D01*
X10466Y18780D01*
X10504Y18688D01*
X10512Y18681D01*
X10504Y18673D01*
X10466Y18581D01*
X10466Y18482D01*
X10466Y18356D01*
X10452Y18342D01*
X10387Y18244D01*
X10364Y18130D01*
X10364Y18047D01*
X10283Y18013D01*
X10212Y17943D01*
X10174Y17851D01*
X10174Y17752D01*
X10174Y16899D01*
X10167Y16902D01*
X10067Y16902D01*
X9955Y16902D01*
X9892Y16839D01*
X9892Y16527D01*
X10305Y16527D01*
X10367Y16589D01*
X10367Y16674D01*
X10375Y16671D01*
X10474Y16671D01*
X10954Y16671D01*
X11046Y16709D01*
X11116Y16780D01*
X11119Y16787D01*
X11122Y16780D01*
X11193Y16709D01*
X11224Y16696D01*
X11224Y15604D01*
X10816Y15604D01*
X10724Y15566D01*
X10711Y15553D01*
X10367Y15896D01*
X10367Y15952D01*
X10329Y16043D01*
X10271Y16102D01*
X10329Y16160D01*
X10367Y16252D01*
X10367Y16364D01*
X10305Y16427D01*
X9892Y16427D01*
X9892Y16419D01*
X9792Y16419D01*
X9792Y16427D01*
X9792Y16527D01*
X9792Y16839D01*
X9730Y16902D01*
X9617Y16902D01*
X9517Y16902D01*
X9425Y16864D01*
X9355Y16793D01*
X9317Y16702D01*
X9317Y16589D01*
X9380Y16527D01*
X9792Y16527D01*
X9792Y16427D01*
X9380Y16427D01*
X9317Y16364D01*
X9317Y16252D01*
X9355Y16160D01*
X9413Y16102D01*
X9355Y16043D01*
X9317Y15952D01*
X9317Y15852D01*
X9317Y15502D01*
X9355Y15410D01*
X9425Y15340D01*
X9517Y15302D01*
X9617Y15302D01*
X10009Y15302D01*
X10381Y14931D01*
X9280Y13830D01*
X9204Y13716D01*
X9177Y13582D01*
X9177Y1574D01*
X9204Y1440D01*
X9280Y1327D01*
X9699Y907D01*
X9730Y754D01*
X9791Y663D01*
X9068Y663D01*
X9161Y19809D01*
X19809Y19809D01*
X19809Y13381D01*
X19809Y13381D01*
G37*
G54D23*
X19809Y13381D02*
X19781Y13422D01*
X19580Y13557D01*
X19342Y13604D01*
X19318Y13604D01*
X19081Y13557D01*
X19028Y13521D01*
X19028Y14025D01*
X18999Y14094D01*
X19028Y14163D01*
X19028Y14262D01*
X19028Y14812D01*
X19015Y14844D01*
X19065Y14864D01*
X19135Y14935D01*
X19173Y15027D01*
X19173Y15126D01*
X19173Y15211D01*
X19188Y15220D01*
X19306Y15339D01*
X19371Y15436D01*
X19394Y15551D01*
X19394Y15551D01*
X19394Y15944D01*
X19371Y16059D01*
X19371Y16059D01*
X19345Y16098D01*
X19306Y16157D01*
X19173Y16289D01*
X19173Y16362D01*
X19139Y16444D01*
X19173Y16527D01*
X19173Y16626D01*
X19173Y16862D01*
X19135Y16954D01*
X19065Y17024D01*
X18973Y17062D01*
X18874Y17062D01*
X18415Y17062D01*
X18437Y17116D01*
X18437Y17215D01*
X18437Y17328D01*
X18437Y17553D01*
X18437Y17666D01*
X18437Y17765D01*
X18399Y17857D01*
X18329Y17927D01*
X18237Y17965D01*
X18125Y17965D01*
X18062Y17903D01*
X18062Y17490D01*
X18375Y17490D01*
X18437Y17553D01*
X18437Y17328D01*
X18375Y17390D01*
X18062Y17390D01*
X18062Y16978D01*
X18125Y16915D01*
X18145Y16915D01*
X18122Y16862D01*
X18122Y16775D01*
X17937Y16590D01*
X17872Y16492D01*
X17849Y16377D01*
X17849Y15990D01*
X17386Y15527D01*
X17386Y15944D01*
X17386Y16496D01*
X17363Y16610D01*
X17363Y16610D01*
X17298Y16708D01*
X17126Y16880D01*
X17162Y16915D01*
X17487Y16915D01*
X17579Y16954D01*
X17637Y17012D01*
X17696Y16954D01*
X17788Y16915D01*
X17900Y16915D01*
X17962Y16978D01*
X17962Y17390D01*
X17954Y17390D01*
X17954Y17490D01*
X17962Y17490D01*
X17962Y17903D01*
X17900Y17965D01*
X17788Y17965D01*
X17696Y17927D01*
X17637Y17869D01*
X17579Y17927D01*
X17487Y17965D01*
X17388Y17965D01*
X17038Y17965D01*
X16946Y17927D01*
X16875Y17857D01*
X16837Y17765D01*
X16837Y17666D01*
X16837Y17440D01*
X16460Y17062D01*
X16223Y17062D01*
X16131Y17024D01*
X16060Y16954D01*
X16022Y16862D01*
X16022Y16763D01*
X16022Y16527D01*
X16057Y16444D01*
X16022Y16362D01*
X16022Y16263D01*
X16022Y16027D01*
X16057Y15944D01*
X16022Y15862D01*
X16022Y15763D01*
X16022Y15527D01*
X16057Y15444D01*
X16022Y15362D01*
X16022Y15307D01*
X16085Y15244D01*
X16498Y15244D01*
X16498Y15252D01*
X16598Y15252D01*
X16598Y15244D01*
X16606Y15244D01*
X16606Y15144D01*
X16598Y15144D01*
X16598Y15137D01*
X16498Y15137D01*
X16498Y15144D01*
X16085Y15144D01*
X16022Y15082D01*
X16022Y15027D01*
X16060Y14935D01*
X16131Y14864D01*
X16181Y14844D01*
X16168Y14812D01*
X16168Y14713D01*
X16168Y14163D01*
X16197Y14094D01*
X16168Y14025D01*
X16168Y13926D01*
X16168Y13407D01*
X16128Y13309D01*
X16127Y13147D01*
X16189Y12997D01*
X16304Y12883D01*
X16392Y12846D01*
X16392Y12751D01*
X16383Y12747D01*
X16268Y12632D01*
X16206Y12482D01*
X16206Y12320D01*
X16268Y12171D01*
X16383Y12056D01*
X16458Y12024D01*
X16403Y11892D01*
X16403Y11730D01*
X16465Y11580D01*
X16579Y11465D01*
X16729Y11403D01*
X16891Y11403D01*
X17041Y11465D01*
X17156Y11579D01*
X17170Y11613D01*
X17209Y11574D01*
X17150Y11516D01*
X17112Y11424D01*
X17112Y11325D01*
X17112Y11074D01*
X17095Y11057D01*
X17033Y10908D01*
X17033Y10746D01*
X17095Y10596D01*
X17209Y10481D01*
X17230Y10473D01*
X17230Y10412D01*
X16181Y11462D01*
X16181Y11661D01*
X16226Y11706D01*
X16288Y11856D01*
X16288Y12018D01*
X16226Y12168D01*
X16112Y12283D01*
X16017Y12322D01*
X16017Y18253D01*
X15952Y18410D01*
X15832Y18530D01*
X15675Y18595D01*
X15505Y18596D01*
X15348Y18531D01*
X15228Y18411D01*
X15163Y18254D01*
X15163Y18084D01*
X15228Y17927D01*
X15348Y17807D01*
X15505Y17742D01*
X15674Y17741D01*
X15831Y17806D01*
X15952Y17926D01*
X16017Y18083D01*
X16017Y18253D01*
X16017Y12322D01*
X15962Y12345D01*
X15800Y12345D01*
X15650Y12283D01*
X15535Y12168D01*
X15473Y12019D01*
X15473Y11857D01*
X15535Y11707D01*
X15581Y11661D01*
X15581Y11337D01*
X15603Y11222D01*
X15668Y11125D01*
X16631Y10162D01*
X16600Y10087D01*
X16600Y9991D01*
X16591Y9977D01*
X16569Y9863D01*
X16591Y9748D01*
X16600Y9734D01*
X16600Y9638D01*
X16639Y9546D01*
X16645Y9540D01*
X16642Y9540D01*
X16102Y9540D01*
X16093Y9561D01*
X15979Y9675D01*
X15829Y9738D01*
X15667Y9738D01*
X15517Y9676D01*
X15402Y9561D01*
X15387Y9525D01*
X15331Y9502D01*
X15261Y9431D01*
X15223Y9339D01*
X15223Y9240D01*
X15223Y8890D01*
X15261Y8798D01*
X15319Y8740D01*
X15261Y8681D01*
X15223Y8589D01*
X15223Y8477D01*
X15285Y8415D01*
X15698Y8415D01*
X15698Y8423D01*
X15798Y8423D01*
X15798Y8415D01*
X15954Y8415D01*
X16210Y8415D01*
X16367Y8415D01*
X16367Y8423D01*
X16467Y8423D01*
X16467Y8415D01*
X16475Y8415D01*
X16475Y8315D01*
X16467Y8315D01*
X16467Y8002D01*
X16529Y7940D01*
X16642Y7940D01*
X16742Y7940D01*
X16833Y7978D01*
X16904Y8048D01*
X16926Y8101D01*
X16985Y8076D01*
X17147Y8076D01*
X17297Y8138D01*
X17412Y8253D01*
X17474Y8402D01*
X17474Y8564D01*
X17425Y8682D01*
X17425Y8688D01*
X17450Y8688D01*
X17480Y8700D01*
X17509Y8688D01*
X17609Y8688D01*
X18159Y8688D01*
X18251Y8726D01*
X18321Y8796D01*
X18359Y8888D01*
X18359Y8987D01*
X18359Y9337D01*
X18321Y9429D01*
X18263Y9488D01*
X18321Y9546D01*
X18359Y9638D01*
X18359Y9750D01*
X18297Y9813D01*
X17884Y9813D01*
X17884Y9805D01*
X17784Y9805D01*
X17784Y9813D01*
X17776Y9813D01*
X17776Y9913D01*
X17784Y9913D01*
X17784Y9921D01*
X17884Y9921D01*
X17884Y9913D01*
X18297Y9913D01*
X18359Y9975D01*
X18359Y10087D01*
X18321Y10179D01*
X18251Y10250D01*
X18159Y10288D01*
X18059Y10288D01*
X18002Y10288D01*
X18045Y10391D01*
X18045Y10455D01*
X18364Y10774D01*
X18631Y10774D01*
X18723Y10812D01*
X18731Y10820D01*
X18745Y10746D01*
X18880Y10545D01*
X18972Y10484D01*
X18880Y10422D01*
X18745Y10221D01*
X18698Y9984D01*
X18745Y9746D01*
X18880Y9545D01*
X18972Y9484D01*
X18880Y9422D01*
X18745Y9221D01*
X18698Y8984D01*
X18745Y8746D01*
X18880Y8545D01*
X18972Y8484D01*
X18880Y8422D01*
X18745Y8221D01*
X18698Y7984D01*
X18745Y7746D01*
X18880Y7545D01*
X18972Y7484D01*
X18880Y7422D01*
X18745Y7221D01*
X18706Y7024D01*
X18706Y7164D01*
X18668Y7256D01*
X18598Y7326D01*
X18506Y7364D01*
X18406Y7364D01*
X18156Y7364D01*
X18064Y7326D01*
X18031Y7293D01*
X17998Y7326D01*
X17906Y7364D01*
X17806Y7364D01*
X17556Y7364D01*
X17464Y7326D01*
X17395Y7257D01*
X17334Y7257D01*
X16940Y7257D01*
X16849Y7219D01*
X16802Y7173D01*
X16802Y7196D01*
X16802Y7432D01*
X16764Y7524D01*
X16694Y7594D01*
X16602Y7632D01*
X16502Y7632D01*
X16367Y7632D01*
X16367Y8002D01*
X16367Y8315D01*
X16210Y8315D01*
X15954Y8315D01*
X15798Y8315D01*
X15798Y8002D01*
X15860Y7940D01*
X15973Y7940D01*
X16072Y7940D01*
X16082Y7944D01*
X16092Y7940D01*
X16192Y7940D01*
X16304Y7940D01*
X16367Y8002D01*
X16367Y7632D01*
X16108Y7632D01*
X16017Y7594D01*
X15987Y7564D01*
X15923Y7564D01*
X15552Y7564D01*
X15564Y7595D01*
X15565Y7757D01*
X15503Y7907D01*
X15470Y7940D01*
X15522Y7940D01*
X15635Y7940D01*
X15698Y8002D01*
X15698Y8315D01*
X15285Y8315D01*
X15223Y8252D01*
X15223Y8140D01*
X15247Y8080D01*
X15238Y8084D01*
X15076Y8084D01*
X14926Y8022D01*
X14812Y7908D01*
X14750Y7758D01*
X14750Y7693D01*
X14512Y7456D01*
X14447Y7358D01*
X14431Y7281D01*
X14369Y7343D01*
X14369Y7966D01*
X14439Y8036D01*
X14501Y8186D01*
X14502Y8348D01*
X14440Y8498D01*
X14325Y8612D01*
X14226Y8654D01*
X14226Y8663D01*
X14164Y8813D01*
X14050Y8927D01*
X13900Y8990D01*
X13738Y8990D01*
X13635Y8947D01*
X13635Y10502D01*
X13635Y10614D01*
X13572Y10677D01*
X13160Y10677D01*
X13160Y10364D01*
X13222Y10302D01*
X13335Y10302D01*
X13434Y10302D01*
X13526Y10340D01*
X13597Y10410D01*
X13635Y10502D01*
X13635Y8947D01*
X13588Y8928D01*
X13473Y8813D01*
X13411Y8664D01*
X13411Y8501D01*
X13473Y8352D01*
X13518Y8306D01*
X13518Y7417D01*
X13060Y7875D01*
X13060Y10364D01*
X13060Y10677D01*
X12864Y10677D01*
X12647Y10677D01*
X12451Y10677D01*
X12451Y10364D01*
X12514Y10302D01*
X12626Y10302D01*
X12726Y10302D01*
X12755Y10314D01*
X12785Y10302D01*
X12884Y10302D01*
X12997Y10302D01*
X13060Y10364D01*
X13060Y7875D01*
X12416Y8519D01*
X12319Y8584D01*
X12204Y8607D01*
X12166Y8607D01*
X12120Y8652D01*
X11971Y8714D01*
X11809Y8714D01*
X11659Y8652D01*
X11557Y8551D01*
X11205Y8903D01*
X11205Y9401D01*
X11182Y9516D01*
X11117Y9613D01*
X11117Y9613D01*
X10912Y9818D01*
X10947Y9992D01*
X10899Y10229D01*
X10765Y10430D01*
X10673Y10492D01*
X10765Y10553D01*
X10899Y10754D01*
X10947Y10992D01*
X10899Y11229D01*
X10765Y11430D01*
X10676Y11489D01*
X10680Y11491D01*
X10844Y11669D01*
X10917Y11846D01*
X10870Y11942D01*
X10364Y11942D01*
X10364Y11934D01*
X10264Y11934D01*
X10264Y11942D01*
X10257Y11942D01*
X10257Y12042D01*
X10264Y12042D01*
X10264Y12050D01*
X10364Y12050D01*
X10364Y12042D01*
X10870Y12042D01*
X10917Y12138D01*
X10844Y12314D01*
X10680Y12492D01*
X10676Y12494D01*
X10765Y12553D01*
X10899Y12754D01*
X10947Y12992D01*
X10899Y13229D01*
X10765Y13430D01*
X10564Y13564D01*
X10327Y13612D01*
X10302Y13612D01*
X10065Y13564D01*
X9882Y13442D01*
X10720Y14280D01*
X10724Y14276D01*
X10816Y14238D01*
X10916Y14238D01*
X12333Y14238D01*
X12337Y14240D01*
X12337Y14021D01*
X11991Y13675D01*
X11927Y13675D01*
X11777Y13613D01*
X11662Y13498D01*
X11600Y13349D01*
X11600Y13187D01*
X11610Y13162D01*
X11407Y13162D01*
X11315Y13124D01*
X11245Y13053D01*
X11207Y12961D01*
X11207Y12862D01*
X11207Y12694D01*
X11047Y12534D01*
X10982Y12437D01*
X10959Y12322D01*
X10959Y11199D01*
X10982Y11084D01*
X11047Y10987D01*
X11207Y10828D01*
X11207Y10502D01*
X11245Y10410D01*
X11315Y10340D01*
X11407Y10302D01*
X11432Y10302D01*
X11432Y10118D01*
X11387Y10073D01*
X11324Y9923D01*
X11324Y9761D01*
X11386Y9612D01*
X11501Y9497D01*
X11650Y9435D01*
X11812Y9434D01*
X11962Y9496D01*
X12077Y9611D01*
X12139Y9761D01*
X12139Y9923D01*
X12077Y10073D01*
X12032Y10118D01*
X12032Y10302D01*
X12057Y10302D01*
X12066Y10306D01*
X12076Y10302D01*
X12176Y10302D01*
X12289Y10302D01*
X12351Y10364D01*
X12351Y10677D01*
X12343Y10677D01*
X12343Y10777D01*
X12351Y10777D01*
X12351Y10785D01*
X12451Y10785D01*
X12451Y10777D01*
X12647Y10777D01*
X12864Y10777D01*
X13060Y10777D01*
X13060Y10785D01*
X13160Y10785D01*
X13160Y10777D01*
X13572Y10777D01*
X13635Y10839D01*
X13635Y10952D01*
X13597Y11043D01*
X13538Y11102D01*
X13597Y11160D01*
X13604Y11177D01*
X13831Y11177D01*
X14109Y10899D01*
X14109Y9646D01*
X14064Y9601D01*
X14002Y9451D01*
X14001Y9289D01*
X14063Y9139D01*
X14178Y9024D01*
X14328Y8962D01*
X14490Y8962D01*
X14639Y9024D01*
X14754Y9138D01*
X14816Y9288D01*
X14816Y9439D01*
X14954Y9496D01*
X15069Y9611D01*
X15131Y9761D01*
X15131Y9923D01*
X15070Y10073D01*
X15024Y10118D01*
X15024Y10984D01*
X15001Y11099D01*
X14936Y11196D01*
X14285Y11847D01*
X14285Y18252D01*
X14220Y18409D01*
X14100Y18529D01*
X13943Y18594D01*
X13773Y18595D01*
X13616Y18530D01*
X13496Y18410D01*
X13431Y18253D01*
X13431Y18083D01*
X13496Y17926D01*
X13616Y17806D01*
X13773Y17741D01*
X13942Y17740D01*
X14099Y17805D01*
X14220Y17925D01*
X14285Y18082D01*
X14285Y18252D01*
X14285Y11847D01*
X13933Y12199D01*
X13836Y12264D01*
X13721Y12287D01*
X13604Y12287D01*
X13597Y12303D01*
X13538Y12362D01*
X13597Y12420D01*
X13635Y12512D01*
X13635Y12624D01*
X13635Y12849D01*
X13635Y12961D01*
X13597Y13053D01*
X13526Y13124D01*
X13434Y13162D01*
X13335Y13162D01*
X13222Y13162D01*
X13160Y13099D01*
X13160Y12787D01*
X13572Y12787D01*
X13635Y12849D01*
X13635Y12624D01*
X13572Y12687D01*
X13160Y12687D01*
X13160Y12679D01*
X13060Y12679D01*
X13060Y12687D01*
X12864Y12687D01*
X12647Y12687D01*
X12451Y12687D01*
X12451Y12679D01*
X12351Y12679D01*
X12351Y12687D01*
X12343Y12687D01*
X12343Y12787D01*
X12351Y12787D01*
X12351Y12795D01*
X12451Y12795D01*
X12451Y12787D01*
X12647Y12787D01*
X12864Y12787D01*
X13060Y12787D01*
X13060Y13099D01*
X12997Y13162D01*
X12884Y13162D01*
X12798Y13162D01*
X12808Y13186D01*
X12809Y13250D01*
X13046Y13488D01*
X13111Y13585D01*
X13111Y13585D01*
X13134Y13700D01*
X13134Y15437D01*
X13143Y15441D01*
X13258Y15556D01*
X13320Y15705D01*
X13320Y15868D01*
X13259Y16017D01*
X13144Y16132D01*
X13030Y16180D01*
X12983Y16293D01*
X12868Y16408D01*
X12719Y16470D01*
X12557Y16470D01*
X12407Y16408D01*
X12292Y16294D01*
X12230Y16144D01*
X12230Y15982D01*
X12292Y15832D01*
X12337Y15786D01*
X12337Y15602D01*
X12333Y15604D01*
X12233Y15604D01*
X11924Y15604D01*
X11924Y16696D01*
X11956Y16709D01*
X12026Y16780D01*
X12029Y16787D01*
X12032Y16780D01*
X12103Y16709D01*
X12195Y16671D01*
X12294Y16671D01*
X12774Y16671D01*
X12866Y16709D01*
X12936Y16780D01*
X12974Y16872D01*
X12974Y16971D01*
X12974Y17851D01*
X12936Y17943D01*
X12913Y17966D01*
X13022Y18075D01*
X13084Y18225D01*
X13084Y18387D01*
X13022Y18537D01*
X12908Y18652D01*
X12758Y18714D01*
X12596Y18714D01*
X12529Y18686D01*
X12515Y18700D01*
X12573Y18759D01*
X12611Y18851D01*
X12611Y18963D01*
X12611Y19188D01*
X12611Y19300D01*
X12573Y19392D01*
X12503Y19462D01*
X12411Y19500D01*
X12311Y19500D01*
X12199Y19500D01*
X12136Y19438D01*
X12136Y19125D01*
X12549Y19125D01*
X12611Y19188D01*
X12611Y18963D01*
X12549Y19025D01*
X12136Y19025D01*
X12136Y19017D01*
X12036Y19017D01*
X12036Y19025D01*
X12036Y19125D01*
X12036Y19438D01*
X11974Y19500D01*
X11861Y19500D01*
X11761Y19500D01*
X11717Y19482D01*
X11708Y19492D01*
X11616Y19530D01*
X11554Y19530D01*
X11491Y19467D01*
X11491Y19105D01*
X11754Y19105D01*
X11774Y19125D01*
X12036Y19125D01*
X12036Y19025D01*
X11624Y19025D01*
X11603Y19005D01*
X11491Y19005D01*
X11491Y18997D01*
X11391Y18997D01*
X11391Y19005D01*
X11383Y19005D01*
X11383Y19105D01*
X11391Y19105D01*
X11391Y19467D01*
X11329Y19530D01*
X11267Y19530D01*
X11175Y19492D01*
X11141Y19458D01*
X11108Y19492D01*
X11016Y19530D01*
X10917Y19530D01*
X10667Y19530D01*
X10575Y19492D01*
X10504Y19421D01*
X10466Y19329D01*
X10466Y19230D01*
X10466Y18780D01*
X10504Y18688D01*
X10512Y18681D01*
X10504Y18673D01*
X10466Y18581D01*
X10466Y18482D01*
X10466Y18356D01*
X10452Y18342D01*
X10387Y18244D01*
X10364Y18130D01*
X10364Y18047D01*
X10283Y18013D01*
X10212Y17943D01*
X10174Y17851D01*
X10174Y17752D01*
X10174Y16899D01*
X10167Y16902D01*
X10067Y16902D01*
X9955Y16902D01*
X9892Y16839D01*
X9892Y16527D01*
X10305Y16527D01*
X10367Y16589D01*
X10367Y16674D01*
X10375Y16671D01*
X10474Y16671D01*
X10954Y16671D01*
X11046Y16709D01*
X11116Y16780D01*
X11119Y16787D01*
X11122Y16780D01*
X11193Y16709D01*
X11224Y16696D01*
X11224Y15604D01*
X10816Y15604D01*
X10724Y15566D01*
X10711Y15553D01*
X10367Y15896D01*
X10367Y15952D01*
X10329Y16043D01*
X10271Y16102D01*
X10329Y16160D01*
X10367Y16252D01*
X10367Y16364D01*
X10305Y16427D01*
X9892Y16427D01*
X9892Y16419D01*
X9792Y16419D01*
X9792Y16427D01*
X9792Y16527D01*
X9792Y16839D01*
X9730Y16902D01*
X9617Y16902D01*
X9517Y16902D01*
X9425Y16864D01*
X9355Y16793D01*
X9317Y16702D01*
X9317Y16589D01*
X9380Y16527D01*
X9792Y16527D01*
X9792Y16427D01*
X9380Y16427D01*
X9317Y16364D01*
X9317Y16252D01*
X9355Y16160D01*
X9413Y16102D01*
X9355Y16043D01*
X9317Y15952D01*
X9317Y15852D01*
X9317Y15502D01*
X9355Y15410D01*
X9425Y15340D01*
X9517Y15302D01*
X9617Y15302D01*
X10009Y15302D01*
X10381Y14931D01*
X9280Y13830D01*
X9204Y13716D01*
X9177Y13582D01*
X9177Y1574D01*
X9204Y1440D01*
X9280Y1327D01*
X9699Y907D01*
X9730Y754D01*
X9791Y663D01*
X9068Y663D01*
X9161Y19809D01*
X19809Y19809D01*
X19809Y13381D01*
M02*
