G04 (created by PCBNEW (2013-mar-13)-testing) date Thu 22 Aug 2013 04:52:17 PM WEST*
%MOIN*%
G04 Gerber Fmt 3.4, Leading zero omitted, Abs format*
%FSLAX34Y34*%
G01*
G70*
G90*
G04 APERTURE LIST*
%ADD10C,0.005906*%
%ADD11C,0.004724*%
%ADD12C,0.003937*%
%ADD13C,0.031496*%
%ADD14C,0.015000*%
%ADD15C,0.002800*%
%ADD16C,0.003900*%
%ADD17C,0.006000*%
%ADD18C,0.005000*%
%ADD19C,0.008000*%
%ADD20C,0.002600*%
%ADD21C,0.004000*%
%ADD22C,0.010000*%
%ADD23R,0.059055X0.059055*%
%ADD24C,0.035400*%
%ADD25R,0.019700X0.090600*%
%ADD26R,0.078700X0.098400*%
%ADD27R,0.023600X0.015700*%
%ADD28R,0.055000X0.035000*%
%ADD29O,0.074000X0.074000*%
%ADD30R,0.033400X0.086600*%
%ADD31R,0.039300X0.041300*%
%ADD32R,0.047200X0.027500*%
%ADD33R,0.027500X0.047200*%
%ADD34R,0.094400X0.074800*%
%ADD35R,0.047200X0.047200*%
%ADD36R,0.035000X0.055000*%
%ADD37R,0.015700X0.023600*%
%ADD38R,0.220500X0.082700*%
%ADD39R,0.031400X0.031400*%
%ADD40R,0.025000X0.045000*%
%ADD41R,0.020000X0.045000*%
G04 APERTURE END LIST*
G54D10*
G54D11*
X14197Y3970D02*
X13882Y3970D01*
X13882Y4090D01*
X13897Y4120D01*
X13912Y4135D01*
X13942Y4150D01*
X13987Y4150D01*
X14017Y4135D01*
X14032Y4120D01*
X14047Y4090D01*
X14047Y3970D01*
X13882Y4240D02*
X13882Y4420D01*
X14197Y4330D02*
X13882Y4330D01*
X16981Y3085D02*
X17161Y3085D01*
X17071Y2770D02*
X17071Y3085D01*
X17266Y2770D02*
X17266Y3085D01*
X17371Y2860D01*
X17476Y3085D01*
X17476Y2770D01*
X17611Y2785D02*
X17656Y2770D01*
X17731Y2770D01*
X17761Y2785D01*
X17776Y2800D01*
X17791Y2830D01*
X17791Y2860D01*
X17776Y2890D01*
X17761Y2905D01*
X17731Y2920D01*
X17671Y2935D01*
X17641Y2950D01*
X17626Y2965D01*
X17611Y2995D01*
X17611Y3025D01*
X17626Y3055D01*
X17641Y3070D01*
X17671Y3085D01*
X17746Y3085D01*
X17791Y3070D01*
X17349Y2312D02*
X17334Y2297D01*
X17289Y2282D01*
X17259Y2282D01*
X17214Y2297D01*
X17184Y2327D01*
X17169Y2357D01*
X17154Y2417D01*
X17154Y2462D01*
X17169Y2522D01*
X17184Y2552D01*
X17214Y2582D01*
X17259Y2597D01*
X17289Y2597D01*
X17334Y2582D01*
X17349Y2567D01*
X17469Y2297D02*
X17514Y2282D01*
X17589Y2282D01*
X17619Y2297D01*
X17634Y2312D01*
X17649Y2342D01*
X17649Y2372D01*
X17634Y2402D01*
X17619Y2417D01*
X17589Y2432D01*
X17529Y2447D01*
X17499Y2462D01*
X17484Y2477D01*
X17469Y2507D01*
X17469Y2537D01*
X17484Y2567D01*
X17499Y2582D01*
X17529Y2597D01*
X17604Y2597D01*
X17649Y2582D01*
X17019Y1884D02*
X17169Y1884D01*
X16989Y1794D02*
X17094Y2109D01*
X17199Y1794D01*
X17304Y1794D02*
X17304Y2109D01*
X17379Y2109D01*
X17424Y2094D01*
X17454Y2064D01*
X17469Y2034D01*
X17484Y1974D01*
X17484Y1929D01*
X17469Y1869D01*
X17454Y1839D01*
X17424Y1809D01*
X17379Y1794D01*
X17304Y1794D01*
X17589Y2109D02*
X17784Y2109D01*
X17679Y1989D01*
X17724Y1989D01*
X17754Y1974D01*
X17769Y1959D01*
X17784Y1929D01*
X17784Y1854D01*
X17769Y1824D01*
X17754Y1809D01*
X17724Y1794D01*
X17634Y1794D01*
X17604Y1809D01*
X17589Y1824D01*
X15926Y3085D02*
X16106Y3085D01*
X16016Y2770D02*
X16016Y3085D01*
X16211Y2770D02*
X16211Y3085D01*
X16286Y3085D01*
X16331Y3070D01*
X16361Y3040D01*
X16376Y3010D01*
X16391Y2950D01*
X16391Y2905D01*
X16376Y2845D01*
X16361Y2815D01*
X16331Y2785D01*
X16286Y2770D01*
X16211Y2770D01*
X16586Y3085D02*
X16646Y3085D01*
X16676Y3070D01*
X16706Y3040D01*
X16721Y2980D01*
X16721Y2875D01*
X16706Y2815D01*
X16676Y2785D01*
X16646Y2770D01*
X16586Y2770D01*
X16556Y2785D01*
X16526Y2815D01*
X16511Y2875D01*
X16511Y2980D01*
X16526Y3040D01*
X16556Y3070D01*
X16586Y3085D01*
X15843Y2282D02*
X15843Y2597D01*
X15948Y2372D01*
X16053Y2597D01*
X16053Y2282D01*
X16203Y2282D02*
X16203Y2597D01*
X16338Y2297D02*
X16383Y2282D01*
X16458Y2282D01*
X16488Y2297D01*
X16503Y2312D01*
X16518Y2342D01*
X16518Y2372D01*
X16503Y2402D01*
X16488Y2417D01*
X16458Y2432D01*
X16398Y2447D01*
X16368Y2462D01*
X16353Y2477D01*
X16338Y2507D01*
X16338Y2537D01*
X16353Y2567D01*
X16368Y2582D01*
X16398Y2597D01*
X16473Y2597D01*
X16518Y2582D01*
X16713Y2597D02*
X16773Y2597D01*
X16803Y2582D01*
X16833Y2552D01*
X16848Y2492D01*
X16848Y2387D01*
X16833Y2327D01*
X16803Y2297D01*
X16773Y2282D01*
X16713Y2282D01*
X16683Y2297D01*
X16653Y2327D01*
X16638Y2387D01*
X16638Y2492D01*
X16653Y2552D01*
X16683Y2582D01*
X16713Y2597D01*
X15956Y1884D02*
X16106Y1884D01*
X15926Y1794D02*
X16031Y2109D01*
X16136Y1794D01*
X16241Y1794D02*
X16241Y2109D01*
X16316Y2109D01*
X16361Y2094D01*
X16391Y2064D01*
X16406Y2034D01*
X16421Y1974D01*
X16421Y1929D01*
X16406Y1869D01*
X16391Y1839D01*
X16361Y1809D01*
X16316Y1794D01*
X16241Y1794D01*
X16541Y2079D02*
X16556Y2094D01*
X16586Y2109D01*
X16661Y2109D01*
X16691Y2094D01*
X16706Y2079D01*
X16721Y2049D01*
X16721Y2019D01*
X16706Y1974D01*
X16526Y1794D01*
X16721Y1794D01*
X14910Y3558D02*
X15089Y3558D01*
X15000Y3243D02*
X15000Y3558D01*
X15374Y3273D02*
X15359Y3258D01*
X15314Y3243D01*
X15284Y3243D01*
X15239Y3258D01*
X15209Y3288D01*
X15194Y3318D01*
X15179Y3378D01*
X15179Y3423D01*
X15194Y3483D01*
X15209Y3513D01*
X15239Y3543D01*
X15284Y3558D01*
X15314Y3558D01*
X15359Y3543D01*
X15374Y3528D01*
X15509Y3243D02*
X15509Y3558D01*
X15689Y3243D02*
X15554Y3423D01*
X15689Y3558D02*
X15509Y3378D01*
X14932Y2845D02*
X15082Y2845D01*
X14902Y2755D02*
X15007Y3070D01*
X15112Y2755D01*
X15217Y2755D02*
X15217Y3070D01*
X15292Y3070D01*
X15337Y3055D01*
X15367Y3025D01*
X15382Y2995D01*
X15397Y2935D01*
X15397Y2890D01*
X15382Y2830D01*
X15367Y2800D01*
X15337Y2770D01*
X15292Y2755D01*
X15217Y2755D01*
X15592Y3070D02*
X15622Y3070D01*
X15652Y3055D01*
X15667Y3040D01*
X15682Y3010D01*
X15697Y2950D01*
X15697Y2875D01*
X15682Y2815D01*
X15667Y2785D01*
X15652Y2770D01*
X15622Y2755D01*
X15592Y2755D01*
X15562Y2770D01*
X15547Y2785D01*
X15532Y2815D01*
X15517Y2875D01*
X15517Y2950D01*
X15532Y3010D01*
X15547Y3040D01*
X15562Y3055D01*
X15592Y3070D01*
X13908Y2860D02*
X14058Y2860D01*
X13878Y2770D02*
X13983Y3085D01*
X14088Y2770D01*
X14193Y2770D02*
X14193Y3085D01*
X14268Y3085D01*
X14313Y3070D01*
X14343Y3040D01*
X14358Y3010D01*
X14373Y2950D01*
X14373Y2905D01*
X14358Y2845D01*
X14343Y2815D01*
X14313Y2785D01*
X14268Y2770D01*
X14193Y2770D01*
X14673Y2770D02*
X14493Y2770D01*
X14583Y2770D02*
X14583Y3085D01*
X14553Y3040D01*
X14523Y3010D01*
X14493Y2995D01*
X12877Y3085D02*
X13072Y3085D01*
X12967Y2965D01*
X13012Y2965D01*
X13042Y2950D01*
X13057Y2935D01*
X13072Y2905D01*
X13072Y2830D01*
X13057Y2800D01*
X13042Y2785D01*
X13012Y2770D01*
X12922Y2770D01*
X12892Y2785D01*
X12877Y2800D01*
X13162Y3085D02*
X13267Y2770D01*
X13372Y3085D01*
X13447Y3085D02*
X13642Y3085D01*
X13537Y2965D01*
X13582Y2965D01*
X13612Y2950D01*
X13627Y2935D01*
X13642Y2905D01*
X13642Y2830D01*
X13627Y2800D01*
X13612Y2785D01*
X13582Y2770D01*
X13492Y2770D01*
X13462Y2785D01*
X13447Y2800D01*
X12043Y3070D02*
X12013Y3085D01*
X11968Y3085D01*
X11923Y3070D01*
X11893Y3040D01*
X11878Y3010D01*
X11863Y2950D01*
X11863Y2905D01*
X11878Y2845D01*
X11893Y2815D01*
X11923Y2785D01*
X11968Y2770D01*
X11998Y2770D01*
X12043Y2785D01*
X12058Y2800D01*
X12058Y2905D01*
X11998Y2905D01*
X12193Y2770D02*
X12193Y3085D01*
X12373Y2770D01*
X12373Y3085D01*
X12523Y2770D02*
X12523Y3085D01*
X12598Y3085D01*
X12643Y3070D01*
X12673Y3040D01*
X12688Y3010D01*
X12703Y2950D01*
X12703Y2905D01*
X12688Y2845D01*
X12673Y2815D01*
X12643Y2785D01*
X12598Y2770D01*
X12523Y2770D01*
X16141Y4818D02*
X16141Y5133D01*
X16216Y5133D01*
X16261Y5118D01*
X16291Y5088D01*
X16306Y5058D01*
X16321Y4998D01*
X16321Y4953D01*
X16306Y4893D01*
X16291Y4863D01*
X16261Y4833D01*
X16216Y4818D01*
X16141Y4818D01*
X16456Y4818D02*
X16456Y5133D01*
X15067Y4818D02*
X15067Y5133D01*
X15142Y5133D01*
X15187Y5118D01*
X15217Y5088D01*
X15232Y5058D01*
X15247Y4998D01*
X15247Y4953D01*
X15232Y4893D01*
X15217Y4863D01*
X15187Y4833D01*
X15142Y4818D01*
X15067Y4818D01*
X15442Y5133D02*
X15502Y5133D01*
X15532Y5118D01*
X15562Y5088D01*
X15577Y5028D01*
X15577Y4923D01*
X15562Y4863D01*
X15532Y4833D01*
X15502Y4818D01*
X15442Y4818D01*
X15412Y4833D01*
X15382Y4863D01*
X15367Y4923D01*
X15367Y5028D01*
X15382Y5088D01*
X15412Y5118D01*
X15442Y5133D01*
X15483Y5226D02*
X15528Y5211D01*
X15603Y5211D01*
X15633Y5226D01*
X15648Y5241D01*
X15663Y5271D01*
X15663Y5301D01*
X15648Y5331D01*
X15633Y5346D01*
X15603Y5361D01*
X15543Y5376D01*
X15513Y5391D01*
X15498Y5406D01*
X15483Y5436D01*
X15483Y5466D01*
X15498Y5496D01*
X15513Y5511D01*
X15543Y5526D01*
X15618Y5526D01*
X15663Y5511D01*
X15798Y5211D02*
X15798Y5526D01*
X15873Y5526D01*
X15918Y5511D01*
X15948Y5481D01*
X15963Y5451D01*
X15978Y5391D01*
X15978Y5346D01*
X15963Y5286D01*
X15948Y5256D01*
X15918Y5226D01*
X15873Y5211D01*
X15798Y5211D01*
X16098Y5301D02*
X16248Y5301D01*
X16068Y5211D02*
X16173Y5526D01*
X16278Y5211D01*
X14173Y4762D02*
X13858Y4762D01*
X13858Y4882D01*
X13873Y4912D01*
X13888Y4927D01*
X13918Y4942D01*
X13963Y4942D01*
X13993Y4927D01*
X14008Y4912D01*
X14023Y4882D01*
X14023Y4762D01*
X14173Y5077D02*
X13858Y5077D01*
X13858Y5152D01*
X13873Y5197D01*
X13903Y5227D01*
X13933Y5242D01*
X13993Y5257D01*
X14038Y5257D01*
X14098Y5242D01*
X14128Y5227D01*
X14158Y5197D01*
X14173Y5152D01*
X14173Y5077D01*
X14083Y5377D02*
X14083Y5527D01*
X14173Y5347D02*
X13858Y5452D01*
X14173Y5557D01*
X14123Y5820D02*
X13808Y5820D01*
X13808Y5940D01*
X13823Y5970D01*
X13838Y5985D01*
X13868Y6000D01*
X13913Y6000D01*
X13943Y5985D01*
X13958Y5970D01*
X13973Y5940D01*
X13973Y5820D01*
X14093Y6315D02*
X14108Y6300D01*
X14123Y6255D01*
X14123Y6225D01*
X14108Y6180D01*
X14078Y6150D01*
X14048Y6135D01*
X13988Y6120D01*
X13943Y6120D01*
X13883Y6135D01*
X13853Y6150D01*
X13823Y6180D01*
X13808Y6225D01*
X13808Y6255D01*
X13823Y6300D01*
X13838Y6315D01*
X14123Y6600D02*
X14123Y6450D01*
X13808Y6450D01*
X16610Y5763D02*
X16790Y5763D01*
X16700Y5448D02*
X16700Y5763D01*
X16865Y5763D02*
X17075Y5448D01*
X17075Y5763D02*
X16865Y5448D01*
X16797Y6707D02*
X16692Y6857D01*
X16617Y6707D02*
X16617Y7022D01*
X16737Y7022D01*
X16767Y7007D01*
X16782Y6992D01*
X16797Y6962D01*
X16797Y6917D01*
X16782Y6887D01*
X16767Y6872D01*
X16737Y6857D01*
X16617Y6857D01*
X16902Y7022D02*
X17112Y6707D01*
X17112Y7022D02*
X16902Y6707D01*
X17150Y18518D02*
X17150Y18833D01*
X17270Y18833D01*
X17300Y18818D01*
X17315Y18803D01*
X17330Y18773D01*
X17330Y18728D01*
X17315Y18698D01*
X17300Y18683D01*
X17270Y18668D01*
X17150Y18668D01*
X17525Y18833D02*
X17585Y18833D01*
X17615Y18818D01*
X17645Y18788D01*
X17660Y18728D01*
X17660Y18623D01*
X17645Y18563D01*
X17615Y18533D01*
X17585Y18518D01*
X17525Y18518D01*
X17495Y18533D01*
X17465Y18563D01*
X17450Y18623D01*
X17450Y18728D01*
X17465Y18788D01*
X17495Y18818D01*
X17525Y18833D01*
X17765Y18833D02*
X17840Y18518D01*
X17900Y18743D01*
X17960Y18518D01*
X18035Y18833D01*
X18155Y18683D02*
X18260Y18683D01*
X18305Y18518D02*
X18155Y18518D01*
X18155Y18833D01*
X18305Y18833D01*
X18620Y18518D02*
X18515Y18668D01*
X18440Y18518D02*
X18440Y18833D01*
X18560Y18833D01*
X18590Y18818D01*
X18605Y18803D01*
X18620Y18773D01*
X18620Y18728D01*
X18605Y18698D01*
X18590Y18683D01*
X18560Y18668D01*
X18440Y18668D01*
X19145Y18518D02*
X18995Y18518D01*
X18995Y18833D01*
X19250Y18683D02*
X19355Y18683D01*
X19400Y18518D02*
X19250Y18518D01*
X19250Y18833D01*
X19400Y18833D01*
X19535Y18518D02*
X19535Y18833D01*
X19610Y18833D01*
X19655Y18818D01*
X19685Y18788D01*
X19700Y18758D01*
X19715Y18698D01*
X19715Y18653D01*
X19700Y18593D01*
X19685Y18563D01*
X19655Y18533D01*
X19610Y18518D01*
X19535Y18518D01*
X11233Y10601D02*
X11233Y10751D01*
X11323Y10571D02*
X11008Y10676D01*
X11323Y10781D01*
X11323Y10886D02*
X11008Y10886D01*
X11008Y10961D01*
X11023Y11006D01*
X11053Y11036D01*
X11083Y11051D01*
X11143Y11066D01*
X11188Y11066D01*
X11248Y11051D01*
X11278Y11036D01*
X11308Y11006D01*
X11323Y10961D01*
X11323Y10886D01*
X11008Y11261D02*
X11008Y11291D01*
X11023Y11321D01*
X11038Y11336D01*
X11068Y11351D01*
X11128Y11366D01*
X11203Y11366D01*
X11263Y11351D01*
X11293Y11336D01*
X11308Y11321D01*
X11323Y11291D01*
X11323Y11261D01*
X11308Y11231D01*
X11293Y11216D01*
X11263Y11201D01*
X11203Y11186D01*
X11128Y11186D01*
X11068Y11201D01*
X11038Y11216D01*
X11023Y11231D01*
X11008Y11261D01*
X11233Y9578D02*
X11233Y9728D01*
X11323Y9548D02*
X11008Y9653D01*
X11323Y9758D01*
X11323Y9863D02*
X11008Y9863D01*
X11008Y9938D01*
X11023Y9983D01*
X11053Y10013D01*
X11083Y10028D01*
X11143Y10043D01*
X11188Y10043D01*
X11248Y10028D01*
X11278Y10013D01*
X11308Y9983D01*
X11323Y9938D01*
X11323Y9863D01*
X11323Y10343D02*
X11323Y10163D01*
X11323Y10253D02*
X11008Y10253D01*
X11053Y10223D01*
X11083Y10193D01*
X11098Y10163D01*
X11233Y8593D02*
X11233Y8743D01*
X11323Y8563D02*
X11008Y8668D01*
X11323Y8773D01*
X11323Y8878D02*
X11008Y8878D01*
X11008Y8953D01*
X11023Y8998D01*
X11053Y9028D01*
X11083Y9043D01*
X11143Y9058D01*
X11188Y9058D01*
X11248Y9043D01*
X11278Y9028D01*
X11308Y8998D01*
X11323Y8953D01*
X11323Y8878D01*
X11038Y9178D02*
X11023Y9193D01*
X11008Y9223D01*
X11008Y9298D01*
X11023Y9328D01*
X11038Y9343D01*
X11068Y9358D01*
X11098Y9358D01*
X11143Y9343D01*
X11323Y9163D01*
X11323Y9358D01*
X11233Y7609D02*
X11233Y7759D01*
X11323Y7579D02*
X11008Y7684D01*
X11323Y7789D01*
X11323Y7894D02*
X11008Y7894D01*
X11008Y7969D01*
X11023Y8014D01*
X11053Y8044D01*
X11083Y8059D01*
X11143Y8074D01*
X11188Y8074D01*
X11248Y8059D01*
X11278Y8044D01*
X11308Y8014D01*
X11323Y7969D01*
X11323Y7894D01*
X11008Y8179D02*
X11008Y8374D01*
X11128Y8269D01*
X11128Y8314D01*
X11143Y8344D01*
X11158Y8359D01*
X11188Y8374D01*
X11263Y8374D01*
X11293Y8359D01*
X11308Y8344D01*
X11323Y8314D01*
X11323Y8224D01*
X11308Y8194D01*
X11293Y8179D01*
X11233Y6586D02*
X11233Y6736D01*
X11323Y6556D02*
X11008Y6661D01*
X11323Y6766D01*
X11323Y6871D02*
X11008Y6871D01*
X11008Y6946D01*
X11023Y6991D01*
X11053Y7020D01*
X11083Y7035D01*
X11143Y7050D01*
X11188Y7050D01*
X11248Y7035D01*
X11278Y7020D01*
X11308Y6991D01*
X11323Y6946D01*
X11323Y6871D01*
X11113Y7320D02*
X11323Y7320D01*
X10993Y7245D02*
X11218Y7170D01*
X11218Y7365D01*
X11233Y5601D02*
X11233Y5751D01*
X11323Y5571D02*
X11008Y5676D01*
X11323Y5781D01*
X11323Y5886D02*
X11008Y5886D01*
X11008Y5961D01*
X11023Y6006D01*
X11053Y6036D01*
X11083Y6051D01*
X11143Y6066D01*
X11188Y6066D01*
X11248Y6051D01*
X11278Y6036D01*
X11308Y6006D01*
X11323Y5961D01*
X11323Y5886D01*
X11008Y6351D02*
X11008Y6201D01*
X11158Y6186D01*
X11143Y6201D01*
X11128Y6231D01*
X11128Y6306D01*
X11143Y6336D01*
X11158Y6351D01*
X11188Y6366D01*
X11263Y6366D01*
X11293Y6351D01*
X11308Y6336D01*
X11323Y6306D01*
X11323Y6231D01*
X11308Y6201D01*
X11293Y6186D01*
X11233Y4578D02*
X11233Y4728D01*
X11323Y4548D02*
X11008Y4653D01*
X11323Y4758D01*
X11323Y4863D02*
X11008Y4863D01*
X11008Y4938D01*
X11023Y4983D01*
X11053Y5013D01*
X11083Y5028D01*
X11143Y5043D01*
X11188Y5043D01*
X11248Y5028D01*
X11278Y5013D01*
X11308Y4983D01*
X11323Y4938D01*
X11323Y4863D01*
X11008Y5313D02*
X11008Y5253D01*
X11023Y5223D01*
X11038Y5208D01*
X11083Y5178D01*
X11143Y5163D01*
X11263Y5163D01*
X11293Y5178D01*
X11308Y5193D01*
X11323Y5223D01*
X11323Y5283D01*
X11308Y5313D01*
X11293Y5328D01*
X11263Y5343D01*
X11188Y5343D01*
X11158Y5328D01*
X11143Y5313D01*
X11128Y5283D01*
X11128Y5223D01*
X11143Y5193D01*
X11158Y5178D01*
X11188Y5163D01*
X11233Y3593D02*
X11233Y3743D01*
X11323Y3563D02*
X11008Y3668D01*
X11323Y3773D01*
X11323Y3878D02*
X11008Y3878D01*
X11008Y3953D01*
X11023Y3998D01*
X11053Y4028D01*
X11083Y4043D01*
X11143Y4058D01*
X11188Y4058D01*
X11248Y4043D01*
X11278Y4028D01*
X11308Y3998D01*
X11323Y3953D01*
X11323Y3878D01*
X11008Y4163D02*
X11008Y4373D01*
X11323Y4238D01*
X11233Y2609D02*
X11233Y2759D01*
X11323Y2579D02*
X11008Y2684D01*
X11323Y2789D01*
X11293Y3074D02*
X11308Y3059D01*
X11323Y3014D01*
X11323Y2984D01*
X11308Y2939D01*
X11278Y2909D01*
X11248Y2894D01*
X11188Y2879D01*
X11143Y2879D01*
X11083Y2894D01*
X11053Y2909D01*
X11023Y2939D01*
X11008Y2984D01*
X11008Y3014D01*
X11023Y3059D01*
X11038Y3074D01*
X11008Y3269D02*
X11008Y3299D01*
X11023Y3329D01*
X11038Y3344D01*
X11068Y3359D01*
X11128Y3374D01*
X11203Y3374D01*
X11263Y3359D01*
X11293Y3344D01*
X11308Y3329D01*
X11323Y3299D01*
X11323Y3269D01*
X11308Y3239D01*
X11293Y3224D01*
X11263Y3209D01*
X11203Y3194D01*
X11128Y3194D01*
X11068Y3209D01*
X11038Y3224D01*
X11023Y3239D01*
X11008Y3269D01*
X11008Y554D02*
X11008Y749D01*
X11128Y644D01*
X11128Y689D01*
X11143Y719D01*
X11158Y734D01*
X11188Y749D01*
X11263Y749D01*
X11293Y734D01*
X11308Y719D01*
X11323Y689D01*
X11323Y599D01*
X11308Y569D01*
X11293Y554D01*
X11008Y839D02*
X11323Y944D01*
X11008Y1049D01*
X11008Y1124D02*
X11008Y1319D01*
X11128Y1214D01*
X11128Y1259D01*
X11143Y1289D01*
X11158Y1304D01*
X11188Y1319D01*
X11263Y1319D01*
X11293Y1304D01*
X11308Y1289D01*
X11323Y1259D01*
X11323Y1169D01*
X11308Y1139D01*
X11293Y1124D01*
X11023Y1728D02*
X11008Y1698D01*
X11008Y1653D01*
X11023Y1608D01*
X11053Y1578D01*
X11083Y1563D01*
X11143Y1548D01*
X11188Y1548D01*
X11248Y1563D01*
X11278Y1578D01*
X11308Y1608D01*
X11323Y1653D01*
X11323Y1683D01*
X11308Y1728D01*
X11293Y1743D01*
X11188Y1743D01*
X11188Y1683D01*
X11323Y1878D02*
X11008Y1878D01*
X11323Y2058D01*
X11008Y2058D01*
X11323Y2208D02*
X11008Y2208D01*
X11008Y2283D01*
X11023Y2328D01*
X11053Y2358D01*
X11083Y2373D01*
X11143Y2388D01*
X11188Y2388D01*
X11248Y2373D01*
X11278Y2358D01*
X11308Y2328D01*
X11323Y2283D01*
X11323Y2208D01*
X10984Y11767D02*
X10969Y11737D01*
X10969Y11692D01*
X10984Y11647D01*
X11014Y11617D01*
X11044Y11602D01*
X11104Y11587D01*
X11149Y11587D01*
X11209Y11602D01*
X11239Y11617D01*
X11269Y11647D01*
X11284Y11692D01*
X11284Y11722D01*
X11269Y11767D01*
X11254Y11782D01*
X11149Y11782D01*
X11149Y11722D01*
X11284Y11917D02*
X10969Y11917D01*
X11284Y12097D01*
X10969Y12097D01*
X11284Y12247D02*
X10969Y12247D01*
X10969Y12322D01*
X10984Y12367D01*
X11014Y12397D01*
X11044Y12412D01*
X11104Y12427D01*
X11149Y12427D01*
X11209Y12412D01*
X11239Y12397D01*
X11269Y12367D01*
X11284Y12322D01*
X11284Y12247D01*
X18331Y554D02*
X18331Y749D01*
X18451Y644D01*
X18451Y689D01*
X18466Y719D01*
X18481Y734D01*
X18511Y749D01*
X18586Y749D01*
X18616Y734D01*
X18631Y719D01*
X18646Y689D01*
X18646Y599D01*
X18631Y569D01*
X18616Y554D01*
X18331Y839D02*
X18646Y944D01*
X18331Y1049D01*
X18331Y1124D02*
X18331Y1319D01*
X18451Y1214D01*
X18451Y1259D01*
X18466Y1289D01*
X18481Y1304D01*
X18511Y1319D01*
X18586Y1319D01*
X18616Y1304D01*
X18631Y1289D01*
X18646Y1259D01*
X18646Y1169D01*
X18631Y1139D01*
X18616Y1124D01*
X18346Y1728D02*
X18331Y1698D01*
X18331Y1653D01*
X18346Y1608D01*
X18376Y1578D01*
X18406Y1563D01*
X18466Y1548D01*
X18511Y1548D01*
X18571Y1563D01*
X18601Y1578D01*
X18631Y1608D01*
X18646Y1653D01*
X18646Y1683D01*
X18631Y1728D01*
X18616Y1743D01*
X18511Y1743D01*
X18511Y1683D01*
X18646Y1878D02*
X18331Y1878D01*
X18646Y2058D01*
X18331Y2058D01*
X18646Y2208D02*
X18331Y2208D01*
X18331Y2283D01*
X18346Y2328D01*
X18376Y2358D01*
X18406Y2373D01*
X18466Y2388D01*
X18511Y2388D01*
X18571Y2373D01*
X18601Y2358D01*
X18631Y2328D01*
X18646Y2283D01*
X18646Y2208D01*
X18556Y2609D02*
X18556Y2759D01*
X18646Y2579D02*
X18331Y2684D01*
X18646Y2789D01*
X18616Y3074D02*
X18631Y3059D01*
X18646Y3014D01*
X18646Y2984D01*
X18631Y2939D01*
X18601Y2909D01*
X18571Y2894D01*
X18511Y2879D01*
X18466Y2879D01*
X18406Y2894D01*
X18376Y2909D01*
X18346Y2939D01*
X18331Y2984D01*
X18331Y3014D01*
X18346Y3059D01*
X18361Y3074D01*
X18646Y3374D02*
X18646Y3194D01*
X18646Y3284D02*
X18331Y3284D01*
X18376Y3254D01*
X18406Y3224D01*
X18421Y3194D01*
X18556Y3633D02*
X18556Y3783D01*
X18646Y3603D02*
X18331Y3708D01*
X18646Y3813D01*
X18616Y4098D02*
X18631Y4083D01*
X18646Y4038D01*
X18646Y4008D01*
X18631Y3963D01*
X18601Y3933D01*
X18571Y3918D01*
X18511Y3903D01*
X18466Y3903D01*
X18406Y3918D01*
X18376Y3933D01*
X18346Y3963D01*
X18331Y4008D01*
X18331Y4038D01*
X18346Y4083D01*
X18361Y4098D01*
X18361Y4218D02*
X18346Y4233D01*
X18331Y4263D01*
X18331Y4338D01*
X18346Y4368D01*
X18361Y4383D01*
X18391Y4398D01*
X18421Y4398D01*
X18466Y4383D01*
X18646Y4203D01*
X18646Y4398D01*
X18556Y4578D02*
X18556Y4728D01*
X18646Y4548D02*
X18331Y4653D01*
X18646Y4758D01*
X18616Y5043D02*
X18631Y5028D01*
X18646Y4983D01*
X18646Y4953D01*
X18631Y4908D01*
X18601Y4878D01*
X18571Y4863D01*
X18511Y4848D01*
X18466Y4848D01*
X18406Y4863D01*
X18376Y4878D01*
X18346Y4908D01*
X18331Y4953D01*
X18331Y4983D01*
X18346Y5028D01*
X18361Y5043D01*
X18331Y5148D02*
X18331Y5343D01*
X18451Y5238D01*
X18451Y5283D01*
X18466Y5313D01*
X18481Y5328D01*
X18511Y5343D01*
X18586Y5343D01*
X18616Y5328D01*
X18631Y5313D01*
X18646Y5283D01*
X18646Y5193D01*
X18631Y5163D01*
X18616Y5148D01*
X18556Y5562D02*
X18556Y5712D01*
X18646Y5532D02*
X18331Y5637D01*
X18646Y5742D01*
X18616Y6027D02*
X18631Y6012D01*
X18646Y5967D01*
X18646Y5937D01*
X18631Y5892D01*
X18601Y5862D01*
X18571Y5847D01*
X18511Y5832D01*
X18466Y5832D01*
X18406Y5847D01*
X18376Y5862D01*
X18346Y5892D01*
X18331Y5937D01*
X18331Y5967D01*
X18346Y6012D01*
X18361Y6027D01*
X18436Y6297D02*
X18646Y6297D01*
X18316Y6222D02*
X18541Y6147D01*
X18541Y6342D01*
X18556Y6586D02*
X18556Y6736D01*
X18646Y6556D02*
X18331Y6661D01*
X18646Y6766D01*
X18616Y7050D02*
X18631Y7035D01*
X18646Y6991D01*
X18646Y6961D01*
X18631Y6916D01*
X18601Y6886D01*
X18571Y6871D01*
X18511Y6856D01*
X18466Y6856D01*
X18406Y6871D01*
X18376Y6886D01*
X18346Y6916D01*
X18331Y6961D01*
X18331Y6991D01*
X18346Y7035D01*
X18361Y7050D01*
X18331Y7335D02*
X18331Y7185D01*
X18481Y7170D01*
X18466Y7185D01*
X18451Y7215D01*
X18451Y7290D01*
X18466Y7320D01*
X18481Y7335D01*
X18511Y7350D01*
X18586Y7350D01*
X18616Y7335D01*
X18631Y7320D01*
X18646Y7290D01*
X18646Y7215D01*
X18631Y7185D01*
X18616Y7170D01*
X18556Y7609D02*
X18556Y7759D01*
X18646Y7579D02*
X18331Y7684D01*
X18646Y7789D01*
X18616Y8074D02*
X18631Y8059D01*
X18646Y8014D01*
X18646Y7984D01*
X18631Y7939D01*
X18601Y7909D01*
X18571Y7894D01*
X18511Y7879D01*
X18466Y7879D01*
X18406Y7894D01*
X18376Y7909D01*
X18346Y7939D01*
X18331Y7984D01*
X18331Y8014D01*
X18346Y8059D01*
X18361Y8074D01*
X18331Y8344D02*
X18331Y8284D01*
X18346Y8254D01*
X18361Y8239D01*
X18406Y8209D01*
X18466Y8194D01*
X18586Y8194D01*
X18616Y8209D01*
X18631Y8224D01*
X18646Y8254D01*
X18646Y8314D01*
X18631Y8344D01*
X18616Y8359D01*
X18586Y8374D01*
X18511Y8374D01*
X18481Y8359D01*
X18466Y8344D01*
X18451Y8314D01*
X18451Y8254D01*
X18466Y8224D01*
X18481Y8209D01*
X18511Y8194D01*
X18556Y8593D02*
X18556Y8743D01*
X18646Y8563D02*
X18331Y8668D01*
X18646Y8773D01*
X18616Y9058D02*
X18631Y9043D01*
X18646Y8998D01*
X18646Y8968D01*
X18631Y8923D01*
X18601Y8893D01*
X18571Y8878D01*
X18511Y8863D01*
X18466Y8863D01*
X18406Y8878D01*
X18376Y8893D01*
X18346Y8923D01*
X18331Y8968D01*
X18331Y8998D01*
X18346Y9043D01*
X18361Y9058D01*
X18331Y9163D02*
X18331Y9373D01*
X18646Y9238D01*
X18556Y9578D02*
X18556Y9728D01*
X18646Y9548D02*
X18331Y9653D01*
X18646Y9758D01*
X18616Y10043D02*
X18631Y10028D01*
X18646Y9983D01*
X18646Y9953D01*
X18631Y9908D01*
X18601Y9878D01*
X18571Y9863D01*
X18511Y9848D01*
X18466Y9848D01*
X18406Y9863D01*
X18376Y9878D01*
X18346Y9908D01*
X18331Y9953D01*
X18331Y9983D01*
X18346Y10028D01*
X18361Y10043D01*
X18466Y10223D02*
X18451Y10193D01*
X18436Y10178D01*
X18406Y10163D01*
X18391Y10163D01*
X18361Y10178D01*
X18346Y10193D01*
X18331Y10223D01*
X18331Y10283D01*
X18346Y10313D01*
X18361Y10328D01*
X18391Y10343D01*
X18406Y10343D01*
X18436Y10328D01*
X18451Y10313D01*
X18466Y10283D01*
X18466Y10223D01*
X18481Y10193D01*
X18496Y10178D01*
X18526Y10163D01*
X18586Y10163D01*
X18616Y10178D01*
X18631Y10193D01*
X18646Y10223D01*
X18646Y10283D01*
X18631Y10313D01*
X18616Y10328D01*
X18586Y10343D01*
X18526Y10343D01*
X18496Y10328D01*
X18481Y10313D01*
X18466Y10283D01*
X18556Y10601D02*
X18556Y10751D01*
X18646Y10571D02*
X18331Y10676D01*
X18646Y10781D01*
X18616Y11066D02*
X18631Y11051D01*
X18646Y11006D01*
X18646Y10976D01*
X18631Y10931D01*
X18601Y10901D01*
X18571Y10886D01*
X18511Y10871D01*
X18466Y10871D01*
X18406Y10886D01*
X18376Y10901D01*
X18346Y10931D01*
X18331Y10976D01*
X18331Y11006D01*
X18346Y11051D01*
X18361Y11066D01*
X18646Y11216D02*
X18646Y11276D01*
X18631Y11306D01*
X18616Y11321D01*
X18571Y11351D01*
X18511Y11366D01*
X18391Y11366D01*
X18361Y11351D01*
X18346Y11336D01*
X18331Y11306D01*
X18331Y11246D01*
X18346Y11216D01*
X18361Y11201D01*
X18391Y11186D01*
X18466Y11186D01*
X18496Y11201D01*
X18511Y11216D01*
X18526Y11246D01*
X18526Y11306D01*
X18511Y11336D01*
X18496Y11351D01*
X18466Y11366D01*
X18346Y11767D02*
X18331Y11737D01*
X18331Y11692D01*
X18346Y11647D01*
X18376Y11617D01*
X18406Y11602D01*
X18466Y11587D01*
X18511Y11587D01*
X18571Y11602D01*
X18601Y11617D01*
X18631Y11647D01*
X18646Y11692D01*
X18646Y11722D01*
X18631Y11767D01*
X18616Y11782D01*
X18511Y11782D01*
X18511Y11722D01*
X18646Y11917D02*
X18331Y11917D01*
X18646Y12097D01*
X18331Y12097D01*
X18646Y12247D02*
X18331Y12247D01*
X18331Y12322D01*
X18346Y12367D01*
X18376Y12397D01*
X18406Y12412D01*
X18466Y12427D01*
X18511Y12427D01*
X18571Y12412D01*
X18601Y12397D01*
X18631Y12367D01*
X18646Y12322D01*
X18646Y12247D01*
X18331Y12932D02*
X18331Y12782D01*
X18481Y12767D01*
X18466Y12782D01*
X18451Y12812D01*
X18451Y12887D01*
X18466Y12917D01*
X18481Y12932D01*
X18511Y12947D01*
X18586Y12947D01*
X18616Y12932D01*
X18631Y12917D01*
X18646Y12887D01*
X18646Y12812D01*
X18631Y12782D01*
X18616Y12767D01*
X18331Y13037D02*
X18646Y13142D01*
X18331Y13247D01*
X10969Y12932D02*
X10969Y12782D01*
X11119Y12767D01*
X11104Y12782D01*
X11089Y12812D01*
X11089Y12887D01*
X11104Y12917D01*
X11119Y12932D01*
X11149Y12947D01*
X11224Y12947D01*
X11254Y12932D01*
X11269Y12917D01*
X11284Y12887D01*
X11284Y12812D01*
X11269Y12782D01*
X11254Y12767D01*
X10969Y13037D02*
X11284Y13142D01*
X10969Y13247D01*
X7410Y7326D02*
X7425Y7372D01*
X7425Y7448D01*
X7410Y7478D01*
X7395Y7493D01*
X7364Y7509D01*
X7334Y7509D01*
X7303Y7493D01*
X7288Y7478D01*
X7273Y7448D01*
X7258Y7387D01*
X7243Y7356D01*
X7227Y7341D01*
X7197Y7326D01*
X7166Y7326D01*
X7136Y7341D01*
X7121Y7356D01*
X7105Y7387D01*
X7105Y7463D01*
X7121Y7509D01*
X7395Y7829D02*
X7410Y7813D01*
X7425Y7768D01*
X7425Y7737D01*
X7410Y7692D01*
X7380Y7661D01*
X7349Y7646D01*
X7288Y7631D01*
X7243Y7631D01*
X7182Y7646D01*
X7151Y7661D01*
X7121Y7692D01*
X7105Y7737D01*
X7105Y7768D01*
X7121Y7813D01*
X7136Y7829D01*
X7425Y7966D02*
X7105Y7966D01*
X7425Y8149D02*
X7243Y8012D01*
X7105Y8149D02*
X7288Y7966D01*
X7425Y3210D02*
X7105Y3210D01*
X7425Y3545D02*
X7273Y3438D01*
X7425Y3362D02*
X7105Y3362D01*
X7105Y3484D01*
X7121Y3514D01*
X7136Y3530D01*
X7166Y3545D01*
X7212Y3545D01*
X7243Y3530D01*
X7258Y3514D01*
X7273Y3484D01*
X7273Y3362D01*
X7456Y3895D02*
X7441Y3865D01*
X7410Y3834D01*
X7364Y3789D01*
X7349Y3758D01*
X7349Y3728D01*
X7425Y3743D02*
X7410Y3713D01*
X7380Y3682D01*
X7319Y3667D01*
X7212Y3667D01*
X7151Y3682D01*
X7121Y3713D01*
X7105Y3743D01*
X7105Y3804D01*
X7121Y3834D01*
X7151Y3865D01*
X7212Y3880D01*
X7319Y3880D01*
X7380Y3865D01*
X7410Y3834D01*
X7425Y3804D01*
X7425Y3743D01*
X7425Y5334D02*
X7105Y5334D01*
X7334Y5441D01*
X7105Y5548D01*
X7425Y5548D01*
X7425Y5700D02*
X7105Y5700D01*
X7410Y5837D02*
X7425Y5883D01*
X7425Y5959D01*
X7410Y5990D01*
X7395Y6005D01*
X7364Y6020D01*
X7334Y6020D01*
X7303Y6005D01*
X7288Y5990D01*
X7273Y5959D01*
X7258Y5898D01*
X7243Y5868D01*
X7227Y5853D01*
X7197Y5837D01*
X7166Y5837D01*
X7136Y5853D01*
X7121Y5868D01*
X7105Y5898D01*
X7105Y5974D01*
X7121Y6020D01*
X7105Y6218D02*
X7105Y6279D01*
X7121Y6310D01*
X7151Y6340D01*
X7212Y6355D01*
X7319Y6355D01*
X7380Y6340D01*
X7410Y6310D01*
X7425Y6279D01*
X7425Y6218D01*
X7410Y6188D01*
X7380Y6157D01*
X7319Y6142D01*
X7212Y6142D01*
X7151Y6157D01*
X7121Y6188D01*
X7105Y6218D01*
X7395Y8692D02*
X7410Y8676D01*
X7425Y8631D01*
X7425Y8600D01*
X7410Y8554D01*
X7380Y8524D01*
X7349Y8509D01*
X7288Y8493D01*
X7243Y8493D01*
X7182Y8509D01*
X7151Y8524D01*
X7121Y8554D01*
X7105Y8600D01*
X7105Y8631D01*
X7121Y8676D01*
X7136Y8692D01*
X7258Y8829D02*
X7258Y8935D01*
X7425Y8981D02*
X7425Y8829D01*
X7105Y8829D01*
X7105Y8981D01*
X7425Y4134D02*
X7105Y4134D01*
X7334Y4241D01*
X7105Y4348D01*
X7425Y4348D01*
X7105Y4561D02*
X7105Y4622D01*
X7121Y4653D01*
X7151Y4683D01*
X7212Y4698D01*
X7319Y4698D01*
X7380Y4683D01*
X7410Y4653D01*
X7425Y4622D01*
X7425Y4561D01*
X7410Y4531D01*
X7380Y4500D01*
X7319Y4485D01*
X7212Y4485D01*
X7151Y4500D01*
X7121Y4531D01*
X7105Y4561D01*
X7410Y4820D02*
X7425Y4866D01*
X7425Y4942D01*
X7410Y4973D01*
X7395Y4988D01*
X7364Y5003D01*
X7334Y5003D01*
X7303Y4988D01*
X7288Y4973D01*
X7273Y4942D01*
X7258Y4881D01*
X7243Y4851D01*
X7227Y4835D01*
X7197Y4820D01*
X7166Y4820D01*
X7136Y4835D01*
X7121Y4851D01*
X7105Y4881D01*
X7105Y4957D01*
X7121Y5003D01*
X7425Y5140D02*
X7105Y5140D01*
X7395Y6784D02*
X7410Y6769D01*
X7425Y6723D01*
X7425Y6693D01*
X7410Y6647D01*
X7380Y6616D01*
X7349Y6601D01*
X7288Y6586D01*
X7243Y6586D01*
X7182Y6601D01*
X7151Y6616D01*
X7121Y6647D01*
X7105Y6693D01*
X7105Y6723D01*
X7121Y6769D01*
X7136Y6784D01*
X7410Y6906D02*
X7425Y6952D01*
X7425Y7028D01*
X7410Y7058D01*
X7395Y7073D01*
X7364Y7089D01*
X7334Y7089D01*
X7303Y7073D01*
X7288Y7058D01*
X7273Y7028D01*
X7258Y6967D01*
X7243Y6936D01*
X7227Y6921D01*
X7197Y6906D01*
X7166Y6906D01*
X7136Y6921D01*
X7121Y6936D01*
X7105Y6967D01*
X7105Y7043D01*
X7121Y7089D01*
X7105Y10341D02*
X7105Y10539D01*
X7227Y10433D01*
X7227Y10478D01*
X7243Y10509D01*
X7258Y10524D01*
X7288Y10539D01*
X7364Y10539D01*
X7395Y10524D01*
X7410Y10509D01*
X7425Y10478D01*
X7425Y10387D01*
X7410Y10356D01*
X7395Y10341D01*
X7105Y10631D02*
X7425Y10737D01*
X7105Y10844D01*
X7105Y10920D02*
X7105Y11118D01*
X7227Y11012D01*
X7227Y11057D01*
X7243Y11088D01*
X7258Y11103D01*
X7288Y11118D01*
X7364Y11118D01*
X7395Y11103D01*
X7410Y11088D01*
X7425Y11057D01*
X7425Y10966D01*
X7410Y10935D01*
X7395Y10920D01*
X7121Y9493D02*
X7105Y9463D01*
X7105Y9417D01*
X7121Y9372D01*
X7151Y9341D01*
X7182Y9326D01*
X7243Y9311D01*
X7288Y9311D01*
X7349Y9326D01*
X7380Y9341D01*
X7410Y9372D01*
X7425Y9417D01*
X7425Y9448D01*
X7410Y9493D01*
X7395Y9509D01*
X7288Y9509D01*
X7288Y9448D01*
X7425Y9646D02*
X7105Y9646D01*
X7425Y9829D01*
X7105Y9829D01*
X7425Y9981D02*
X7105Y9981D01*
X7105Y10057D01*
X7121Y10103D01*
X7151Y10133D01*
X7182Y10149D01*
X7243Y10164D01*
X7288Y10164D01*
X7349Y10149D01*
X7380Y10133D01*
X7410Y10103D01*
X7425Y10057D01*
X7425Y9981D01*
G54D12*
X1181Y393D02*
X20078Y393D01*
X393Y20078D02*
X393Y1181D01*
X393Y1181D02*
G75*
G03X1181Y393I787J0D01*
G74*
G01*
G54D11*
X3719Y3077D02*
X3764Y3062D01*
X3841Y3062D01*
X3871Y3077D01*
X3886Y3092D01*
X3902Y3123D01*
X3902Y3153D01*
X3886Y3184D01*
X3871Y3199D01*
X3841Y3214D01*
X3780Y3229D01*
X3749Y3245D01*
X3734Y3260D01*
X3719Y3290D01*
X3719Y3321D01*
X3734Y3351D01*
X3749Y3367D01*
X3780Y3382D01*
X3856Y3382D01*
X3902Y3367D01*
X4222Y3092D02*
X4206Y3077D01*
X4161Y3062D01*
X4130Y3062D01*
X4084Y3077D01*
X4054Y3108D01*
X4039Y3138D01*
X4024Y3199D01*
X4024Y3245D01*
X4039Y3306D01*
X4054Y3336D01*
X4084Y3367D01*
X4130Y3382D01*
X4161Y3382D01*
X4206Y3367D01*
X4222Y3351D01*
X4359Y3062D02*
X4359Y3382D01*
X4542Y3062D02*
X4404Y3245D01*
X4542Y3382D02*
X4359Y3199D01*
X1998Y533D02*
X1983Y518D01*
X1937Y503D01*
X1906Y503D01*
X1861Y518D01*
X1830Y548D01*
X1815Y579D01*
X1800Y640D01*
X1800Y686D01*
X1815Y747D01*
X1830Y777D01*
X1861Y808D01*
X1906Y823D01*
X1937Y823D01*
X1983Y808D01*
X1998Y792D01*
X2135Y670D02*
X2242Y670D01*
X2287Y503D02*
X2135Y503D01*
X2135Y823D01*
X2287Y823D01*
X2564Y503D02*
X2564Y823D01*
X2671Y594D01*
X2778Y823D01*
X2778Y503D01*
X2991Y823D02*
X3052Y823D01*
X3082Y808D01*
X3113Y777D01*
X3128Y716D01*
X3128Y609D01*
X3113Y548D01*
X3082Y518D01*
X3052Y503D01*
X2991Y503D01*
X2961Y518D01*
X2930Y548D01*
X2915Y609D01*
X2915Y716D01*
X2930Y777D01*
X2961Y808D01*
X2991Y823D01*
X3250Y518D02*
X3296Y503D01*
X3372Y503D01*
X3402Y518D01*
X3418Y533D01*
X3433Y564D01*
X3433Y594D01*
X3418Y625D01*
X3402Y640D01*
X3372Y655D01*
X3311Y670D01*
X3281Y686D01*
X3265Y701D01*
X3250Y731D01*
X3250Y762D01*
X3265Y792D01*
X3281Y808D01*
X3311Y823D01*
X3387Y823D01*
X3433Y808D01*
X3570Y503D02*
X3570Y823D01*
X4038Y533D02*
X4022Y518D01*
X3977Y503D01*
X3946Y503D01*
X3900Y518D01*
X3870Y548D01*
X3855Y579D01*
X3839Y640D01*
X3839Y686D01*
X3855Y747D01*
X3870Y777D01*
X3900Y808D01*
X3946Y823D01*
X3977Y823D01*
X4022Y808D01*
X4038Y792D01*
X4159Y518D02*
X4205Y503D01*
X4281Y503D01*
X4312Y518D01*
X4327Y533D01*
X4342Y564D01*
X4342Y594D01*
X4327Y625D01*
X4312Y640D01*
X4281Y655D01*
X4220Y670D01*
X4190Y686D01*
X4175Y701D01*
X4159Y731D01*
X4159Y762D01*
X4175Y792D01*
X4190Y808D01*
X4220Y823D01*
X4297Y823D01*
X4342Y808D01*
X4679Y823D02*
X4877Y823D01*
X4770Y701D01*
X4816Y701D01*
X4847Y686D01*
X4862Y670D01*
X4877Y640D01*
X4877Y564D01*
X4862Y533D01*
X4847Y518D01*
X4816Y503D01*
X4725Y503D01*
X4694Y518D01*
X4679Y533D01*
X4968Y823D02*
X5075Y503D01*
X5182Y823D01*
X5258Y823D02*
X5456Y823D01*
X5349Y701D01*
X5395Y701D01*
X5426Y686D01*
X5441Y670D01*
X5456Y640D01*
X5456Y564D01*
X5441Y533D01*
X5426Y518D01*
X5395Y503D01*
X5304Y503D01*
X5273Y518D01*
X5258Y533D01*
X4871Y3367D02*
X4840Y3382D01*
X4794Y3382D01*
X4749Y3367D01*
X4718Y3336D01*
X4703Y3306D01*
X4688Y3245D01*
X4688Y3199D01*
X4703Y3138D01*
X4718Y3108D01*
X4749Y3077D01*
X4794Y3062D01*
X4825Y3062D01*
X4871Y3077D01*
X4886Y3092D01*
X4886Y3199D01*
X4825Y3199D01*
X5023Y3062D02*
X5023Y3382D01*
X5206Y3062D01*
X5206Y3382D01*
X5358Y3062D02*
X5358Y3382D01*
X5434Y3382D01*
X5480Y3367D01*
X5511Y3336D01*
X5526Y3306D01*
X5541Y3245D01*
X5541Y3199D01*
X5526Y3138D01*
X5511Y3108D01*
X5480Y3077D01*
X5434Y3062D01*
X5358Y3062D01*
X2564Y3062D02*
X2564Y3382D01*
X2671Y3153D01*
X2778Y3382D01*
X2778Y3062D01*
X2930Y3062D02*
X2930Y3382D01*
X3067Y3077D02*
X3113Y3062D01*
X3189Y3062D01*
X3220Y3077D01*
X3235Y3092D01*
X3250Y3123D01*
X3250Y3153D01*
X3235Y3184D01*
X3220Y3199D01*
X3189Y3214D01*
X3128Y3229D01*
X3098Y3245D01*
X3082Y3260D01*
X3067Y3290D01*
X3067Y3321D01*
X3082Y3351D01*
X3098Y3367D01*
X3128Y3382D01*
X3204Y3382D01*
X3250Y3367D01*
X3448Y3382D02*
X3509Y3382D01*
X3540Y3367D01*
X3570Y3336D01*
X3585Y3275D01*
X3585Y3168D01*
X3570Y3108D01*
X3540Y3077D01*
X3509Y3062D01*
X3448Y3062D01*
X3418Y3077D01*
X3387Y3108D01*
X3372Y3168D01*
X3372Y3275D01*
X3387Y3336D01*
X3418Y3367D01*
X3448Y3382D01*
X1716Y3062D02*
X1716Y3382D01*
X2051Y3062D02*
X1945Y3214D01*
X1868Y3062D02*
X1868Y3382D01*
X1990Y3382D01*
X2021Y3367D01*
X2036Y3351D01*
X2051Y3321D01*
X2051Y3275D01*
X2036Y3245D01*
X2021Y3229D01*
X1990Y3214D01*
X1868Y3214D01*
X2402Y3031D02*
X2371Y3047D01*
X2341Y3077D01*
X2295Y3123D01*
X2265Y3138D01*
X2234Y3138D01*
X2249Y3062D02*
X2219Y3077D01*
X2188Y3108D01*
X2173Y3168D01*
X2173Y3275D01*
X2188Y3336D01*
X2219Y3367D01*
X2249Y3382D01*
X2310Y3382D01*
X2341Y3367D01*
X2371Y3336D01*
X2386Y3275D01*
X2386Y3168D01*
X2371Y3108D01*
X2341Y3077D01*
X2310Y3062D01*
X2249Y3062D01*
G54D13*
X8937Y13958D02*
X8937Y493D01*
X493Y13837D02*
X7619Y13837D01*
G54D12*
X20078Y20078D02*
X20078Y393D01*
X393Y20078D02*
X20078Y20078D01*
G54D14*
X16240Y19920D02*
X13208Y19920D01*
X16240Y20314D02*
X13208Y20314D01*
X13208Y20314D02*
X13208Y16692D01*
X13208Y16692D02*
X16240Y16692D01*
X16240Y16692D02*
X16240Y20314D01*
G54D15*
X2591Y11477D02*
X2591Y11677D01*
X2591Y11677D02*
X2291Y11677D01*
X2291Y11677D02*
X2291Y11477D01*
X2591Y11277D02*
X2591Y11077D01*
X2591Y11077D02*
X2291Y11077D01*
X2291Y11077D02*
X2291Y11277D01*
G54D16*
X6426Y1307D02*
G75*
G03X6426Y1307I-50J0D01*
G74*
G01*
X6376Y1757D02*
X6376Y1357D01*
X6376Y1357D02*
X5776Y1357D01*
X5776Y1357D02*
X5776Y1757D01*
X5776Y2157D02*
X5776Y2557D01*
X5776Y2557D02*
X6376Y2557D01*
X6376Y2557D02*
X6376Y2157D01*
G54D15*
X6456Y5772D02*
X6456Y5572D01*
X6456Y5572D02*
X6756Y5572D01*
X6756Y5572D02*
X6756Y5772D01*
X6456Y5972D02*
X6456Y6172D01*
X6456Y6172D02*
X6756Y6172D01*
X6756Y6172D02*
X6756Y5972D01*
X6751Y7352D02*
X6751Y7552D01*
X6751Y7552D02*
X6451Y7552D01*
X6451Y7552D02*
X6451Y7352D01*
X6751Y7152D02*
X6751Y6952D01*
X6751Y6952D02*
X6451Y6952D01*
X6451Y6952D02*
X6451Y7152D01*
G54D17*
X5581Y2682D02*
X5331Y2932D01*
X4831Y2932D02*
X4581Y2682D01*
X4581Y2682D02*
X4331Y2932D01*
X3831Y2932D02*
X3581Y2682D01*
X3581Y2682D02*
X3331Y2932D01*
X2831Y2932D02*
X2581Y2682D01*
X2581Y2682D02*
X2331Y2932D01*
X1831Y2932D02*
X1581Y2682D01*
X5581Y2682D02*
X5581Y1182D01*
X5581Y1182D02*
X5331Y932D01*
X5331Y932D02*
X4831Y932D01*
X4831Y932D02*
X4581Y1182D01*
X4581Y1182D02*
X4331Y932D01*
X4331Y932D02*
X3831Y932D01*
X3831Y932D02*
X3581Y1182D01*
X3581Y1182D02*
X3331Y932D01*
X3331Y932D02*
X2831Y932D01*
X2831Y932D02*
X2581Y1182D01*
X2581Y1182D02*
X2331Y932D01*
X2331Y932D02*
X1831Y932D01*
X1831Y932D02*
X1581Y1182D01*
X1581Y1182D02*
X1581Y2682D01*
X2331Y2932D02*
X1831Y2932D01*
X3331Y2932D02*
X2831Y2932D01*
X4331Y2932D02*
X3831Y2932D01*
X5331Y2932D02*
X4831Y2932D01*
G54D18*
X2716Y12206D02*
X3228Y12206D01*
X3228Y12206D02*
X3228Y13228D01*
X1654Y13228D02*
X1654Y12206D01*
X1654Y12206D02*
X2166Y12206D01*
X2716Y13228D02*
X3228Y13228D01*
X1654Y13228D02*
X2166Y13228D01*
X2716Y12166D02*
X3228Y12166D01*
X1654Y12166D02*
X2166Y12166D01*
X2716Y12127D02*
X3228Y12127D01*
X1654Y12127D02*
X2166Y12127D01*
X3228Y12127D02*
X3228Y12206D01*
X2716Y12127D02*
X2716Y12206D01*
X2166Y12127D02*
X2166Y12206D01*
X1654Y12127D02*
X1654Y12206D01*
X6278Y10940D02*
X6278Y4524D01*
X6278Y4524D02*
X964Y4524D01*
X964Y4524D02*
X964Y10940D01*
X964Y10940D02*
X6278Y10940D01*
X866Y9897D02*
X669Y10094D01*
X866Y9897D02*
X669Y9700D01*
G54D19*
X8581Y4987D02*
X8581Y4487D01*
X8581Y4487D02*
X8331Y4237D01*
X7831Y4237D02*
X7581Y4487D01*
X8331Y6237D02*
X8581Y5987D01*
X8581Y5987D02*
X8581Y5487D01*
X8581Y5487D02*
X8331Y5237D01*
X7831Y5237D02*
X7581Y5487D01*
X7581Y5487D02*
X7581Y5987D01*
X7581Y5987D02*
X7831Y6237D01*
X8581Y4987D02*
X8331Y5237D01*
X7831Y5237D02*
X7581Y4987D01*
X7581Y4487D02*
X7581Y4987D01*
X8581Y7987D02*
X8581Y7487D01*
X8581Y7487D02*
X8331Y7237D01*
X7831Y7237D02*
X7581Y7487D01*
X8331Y7237D02*
X8581Y6987D01*
X8581Y6987D02*
X8581Y6487D01*
X8581Y6487D02*
X8331Y6237D01*
X7831Y6237D02*
X7581Y6487D01*
X7581Y6487D02*
X7581Y6987D01*
X7581Y6987D02*
X7831Y7237D01*
X8331Y9237D02*
X8581Y8987D01*
X8581Y8987D02*
X8581Y8487D01*
X8581Y8487D02*
X8331Y8237D01*
X7831Y8237D02*
X7581Y8487D01*
X7581Y8487D02*
X7581Y8987D01*
X7581Y8987D02*
X7831Y9237D01*
X8581Y7987D02*
X8331Y8237D01*
X7831Y8237D02*
X7581Y7987D01*
X7581Y7487D02*
X7581Y7987D01*
X8581Y10987D02*
X8581Y10487D01*
X8581Y10487D02*
X8331Y10237D01*
X7831Y10237D02*
X7581Y10487D01*
X8331Y10237D02*
X8581Y9987D01*
X8581Y9987D02*
X8581Y9487D01*
X8581Y9487D02*
X8331Y9237D01*
X7831Y9237D02*
X7581Y9487D01*
X7581Y9487D02*
X7581Y9987D01*
X7581Y9987D02*
X7831Y10237D01*
X8331Y11237D02*
X7831Y11237D01*
X8581Y10987D02*
X8331Y11237D01*
X7831Y11237D02*
X7581Y10987D01*
X7581Y10487D02*
X7581Y10987D01*
X8581Y3987D02*
X8581Y3487D01*
X8581Y3487D02*
X8331Y3237D01*
X8331Y3237D02*
X7831Y3237D01*
X7831Y3237D02*
X7581Y3487D01*
X8581Y3987D02*
X8331Y4237D01*
X7831Y4237D02*
X7581Y3987D01*
X7581Y3487D02*
X7581Y3987D01*
G54D16*
X18337Y17740D02*
G75*
G03X18337Y17740I-50J0D01*
G74*
G01*
X17837Y17740D02*
X18237Y17740D01*
X18237Y17740D02*
X18237Y17140D01*
X18237Y17140D02*
X17837Y17140D01*
X17437Y17140D02*
X17037Y17140D01*
X17037Y17140D02*
X17037Y17740D01*
X17037Y17740D02*
X17437Y17740D01*
X13460Y11751D02*
G75*
G03X13460Y11751I-50J0D01*
G74*
G01*
X13410Y12201D02*
X13410Y11801D01*
X13410Y11801D02*
X12810Y11801D01*
X12810Y11801D02*
X12810Y12201D01*
X12810Y12601D02*
X12810Y13001D01*
X12810Y13001D02*
X13410Y13001D01*
X13410Y13001D02*
X13410Y12601D01*
G54D15*
X13837Y13772D02*
X13637Y13772D01*
X13637Y13772D02*
X13637Y13472D01*
X13637Y13472D02*
X13837Y13472D01*
X14037Y13772D02*
X14237Y13772D01*
X14237Y13772D02*
X14237Y13472D01*
X14237Y13472D02*
X14037Y13472D01*
X15651Y13472D02*
X15851Y13472D01*
X15851Y13472D02*
X15851Y13772D01*
X15851Y13772D02*
X15651Y13772D01*
X15451Y13472D02*
X15251Y13472D01*
X15251Y13472D02*
X15251Y13772D01*
X15251Y13772D02*
X15451Y13772D01*
G54D19*
X15033Y2665D02*
X15533Y2665D01*
X15533Y2665D02*
X15783Y2415D01*
X15783Y1915D02*
X15533Y1665D01*
X13783Y2415D02*
X14033Y2665D01*
X14033Y2665D02*
X14533Y2665D01*
X14533Y2665D02*
X14783Y2415D01*
X14783Y1915D02*
X14533Y1665D01*
X14533Y1665D02*
X14033Y1665D01*
X14033Y1665D02*
X13783Y1915D01*
X15033Y2665D02*
X14783Y2415D01*
X14783Y1915D02*
X15033Y1665D01*
X15533Y1665D02*
X15033Y1665D01*
X12033Y2665D02*
X12533Y2665D01*
X12533Y2665D02*
X12783Y2415D01*
X12783Y1915D02*
X12533Y1665D01*
X12783Y2415D02*
X13033Y2665D01*
X13033Y2665D02*
X13533Y2665D01*
X13533Y2665D02*
X13783Y2415D01*
X13783Y1915D02*
X13533Y1665D01*
X13533Y1665D02*
X13033Y1665D01*
X13033Y1665D02*
X12783Y1915D01*
X11783Y2415D02*
X11783Y1915D01*
X12033Y2665D02*
X11783Y2415D01*
X11783Y1915D02*
X12033Y1665D01*
X12533Y1665D02*
X12033Y1665D01*
X15783Y2415D02*
X15783Y1915D01*
G54D14*
X17499Y15865D02*
X12893Y15865D01*
X12893Y13897D02*
X17499Y13897D01*
X12893Y15865D02*
X12893Y15531D01*
X12893Y13897D02*
X12893Y14231D01*
X17499Y15865D02*
X17499Y15531D01*
X17499Y13897D02*
X17499Y14231D01*
G54D16*
X18923Y15295D02*
G75*
G03X18923Y15295I-50J0D01*
G74*
G01*
X18873Y14845D02*
X18873Y15245D01*
X18873Y15245D02*
X19473Y15245D01*
X19473Y15245D02*
X19473Y14845D01*
X19473Y14445D02*
X19473Y14045D01*
X19473Y14045D02*
X18873Y14045D01*
X18873Y14045D02*
X18873Y14445D01*
G54D19*
X11994Y4673D02*
X12494Y4673D01*
X12494Y4673D02*
X12744Y4423D01*
X12744Y3923D02*
X12494Y3673D01*
X12744Y4423D02*
X12994Y4673D01*
X12994Y4673D02*
X13494Y4673D01*
X13494Y4673D02*
X13744Y4423D01*
X13744Y3923D02*
X13494Y3673D01*
X13494Y3673D02*
X12994Y3673D01*
X12994Y3673D02*
X12744Y3923D01*
X11744Y4423D02*
X11744Y3923D01*
X11994Y4673D02*
X11744Y4423D01*
X11744Y3923D02*
X11994Y3673D01*
X12494Y3673D02*
X11994Y3673D01*
X13744Y4423D02*
X13744Y3923D01*
X16549Y3712D02*
X16049Y3712D01*
X16049Y3712D02*
X15799Y3962D01*
X15799Y4462D02*
X16049Y4712D01*
X15799Y3962D02*
X15549Y3712D01*
X15549Y3712D02*
X15049Y3712D01*
X15049Y3712D02*
X14799Y3962D01*
X14799Y4462D02*
X15049Y4712D01*
X15049Y4712D02*
X15549Y4712D01*
X15549Y4712D02*
X15799Y4462D01*
X16799Y3962D02*
X16799Y4462D01*
X16549Y3712D02*
X16799Y3962D01*
X16799Y4462D02*
X16549Y4712D01*
X16049Y4712D02*
X16549Y4712D01*
X14799Y3962D02*
X14799Y4462D01*
X11994Y5696D02*
X12494Y5696D01*
X12494Y5696D02*
X12744Y5446D01*
X12744Y4946D02*
X12494Y4696D01*
X12744Y5446D02*
X12994Y5696D01*
X12994Y5696D02*
X13494Y5696D01*
X13494Y5696D02*
X13744Y5446D01*
X13744Y4946D02*
X13494Y4696D01*
X13494Y4696D02*
X12994Y4696D01*
X12994Y4696D02*
X12744Y4946D01*
X11744Y5446D02*
X11744Y4946D01*
X11994Y5696D02*
X11744Y5446D01*
X11744Y4946D02*
X11994Y4696D01*
X12494Y4696D02*
X11994Y4696D01*
X13744Y5446D02*
X13744Y4946D01*
X11954Y6681D02*
X12454Y6681D01*
X12454Y6681D02*
X12704Y6431D01*
X12704Y5931D02*
X12454Y5681D01*
X12704Y6431D02*
X12954Y6681D01*
X12954Y6681D02*
X13454Y6681D01*
X13454Y6681D02*
X13704Y6431D01*
X13704Y5931D02*
X13454Y5681D01*
X13454Y5681D02*
X12954Y5681D01*
X12954Y5681D02*
X12704Y5931D01*
X11704Y6431D02*
X11704Y5931D01*
X11954Y6681D02*
X11704Y6431D01*
X11704Y5931D02*
X11954Y5681D01*
X12454Y5681D02*
X11954Y5681D01*
X13704Y6431D02*
X13704Y5931D01*
X18830Y6734D02*
X18830Y7234D01*
X18830Y7234D02*
X19080Y7484D01*
X19580Y7484D02*
X19830Y7234D01*
X19080Y5484D02*
X18830Y5734D01*
X18830Y5734D02*
X18830Y6234D01*
X18830Y6234D02*
X19080Y6484D01*
X19580Y6484D02*
X19830Y6234D01*
X19830Y6234D02*
X19830Y5734D01*
X19830Y5734D02*
X19580Y5484D01*
X18830Y6734D02*
X19080Y6484D01*
X19580Y6484D02*
X19830Y6734D01*
X19830Y7234D02*
X19830Y6734D01*
X18830Y3734D02*
X18830Y4234D01*
X18830Y4234D02*
X19080Y4484D01*
X19580Y4484D02*
X19830Y4234D01*
X19080Y4484D02*
X18830Y4734D01*
X18830Y4734D02*
X18830Y5234D01*
X18830Y5234D02*
X19080Y5484D01*
X19580Y5484D02*
X19830Y5234D01*
X19830Y5234D02*
X19830Y4734D01*
X19830Y4734D02*
X19580Y4484D01*
X19080Y2484D02*
X18830Y2734D01*
X18830Y2734D02*
X18830Y3234D01*
X18830Y3234D02*
X19080Y3484D01*
X19580Y3484D02*
X19830Y3234D01*
X19830Y3234D02*
X19830Y2734D01*
X19830Y2734D02*
X19580Y2484D01*
X18830Y3734D02*
X19080Y3484D01*
X19580Y3484D02*
X19830Y3734D01*
X19830Y4234D02*
X19830Y3734D01*
X18830Y734D02*
X18830Y1234D01*
X18830Y1234D02*
X19080Y1484D01*
X19580Y1484D02*
X19830Y1234D01*
X19080Y1484D02*
X18830Y1734D01*
X18830Y1734D02*
X18830Y2234D01*
X18830Y2234D02*
X19080Y2484D01*
X19580Y2484D02*
X19830Y2234D01*
X19830Y2234D02*
X19830Y1734D01*
X19830Y1734D02*
X19580Y1484D01*
X19080Y484D02*
X19580Y484D01*
X18830Y734D02*
X19080Y484D01*
X19580Y484D02*
X19830Y734D01*
X19830Y1234D02*
X19830Y734D01*
X19080Y12484D02*
X18830Y12734D01*
X18830Y12734D02*
X18830Y13234D01*
X18830Y13234D02*
X19080Y13484D01*
X19580Y13484D02*
X19830Y13234D01*
X19830Y13234D02*
X19830Y12734D01*
X19830Y12734D02*
X19580Y12484D01*
X19580Y13484D02*
X19080Y13484D01*
X18830Y10734D02*
X18830Y11234D01*
X18830Y11234D02*
X19080Y11484D01*
X19580Y11484D02*
X19830Y11234D01*
X19080Y11484D02*
X18830Y11734D01*
X18830Y11734D02*
X18830Y12234D01*
X18830Y12234D02*
X19080Y12484D01*
X19580Y12484D02*
X19830Y12234D01*
X19830Y12234D02*
X19830Y11734D01*
X19830Y11734D02*
X19580Y11484D01*
X19080Y9484D02*
X18830Y9734D01*
X18830Y9734D02*
X18830Y10234D01*
X18830Y10234D02*
X19080Y10484D01*
X19580Y10484D02*
X19830Y10234D01*
X19830Y10234D02*
X19830Y9734D01*
X19830Y9734D02*
X19580Y9484D01*
X18830Y10734D02*
X19080Y10484D01*
X19580Y10484D02*
X19830Y10734D01*
X19830Y11234D02*
X19830Y10734D01*
X18830Y7734D02*
X18830Y8234D01*
X18830Y8234D02*
X19080Y8484D01*
X19580Y8484D02*
X19830Y8234D01*
X19080Y8484D02*
X18830Y8734D01*
X18830Y8734D02*
X18830Y9234D01*
X18830Y9234D02*
X19080Y9484D01*
X19580Y9484D02*
X19830Y9234D01*
X19830Y9234D02*
X19830Y8734D01*
X19830Y8734D02*
X19580Y8484D01*
X18830Y7734D02*
X19080Y7484D01*
X19580Y7484D02*
X19830Y7734D01*
X19830Y8234D02*
X19830Y7734D01*
X10814Y7242D02*
X10814Y6742D01*
X10814Y6742D02*
X10564Y6492D01*
X10064Y6492D02*
X9814Y6742D01*
X10564Y8492D02*
X10814Y8242D01*
X10814Y8242D02*
X10814Y7742D01*
X10814Y7742D02*
X10564Y7492D01*
X10064Y7492D02*
X9814Y7742D01*
X9814Y7742D02*
X9814Y8242D01*
X9814Y8242D02*
X10064Y8492D01*
X10814Y7242D02*
X10564Y7492D01*
X10064Y7492D02*
X9814Y7242D01*
X9814Y6742D02*
X9814Y7242D01*
X10814Y10242D02*
X10814Y9742D01*
X10814Y9742D02*
X10564Y9492D01*
X10064Y9492D02*
X9814Y9742D01*
X10564Y9492D02*
X10814Y9242D01*
X10814Y9242D02*
X10814Y8742D01*
X10814Y8742D02*
X10564Y8492D01*
X10064Y8492D02*
X9814Y8742D01*
X9814Y8742D02*
X9814Y9242D01*
X9814Y9242D02*
X10064Y9492D01*
X10564Y11492D02*
X10814Y11242D01*
X10814Y11242D02*
X10814Y10742D01*
X10814Y10742D02*
X10564Y10492D01*
X10064Y10492D02*
X9814Y10742D01*
X9814Y10742D02*
X9814Y11242D01*
X9814Y11242D02*
X10064Y11492D01*
X10814Y10242D02*
X10564Y10492D01*
X10064Y10492D02*
X9814Y10242D01*
X9814Y9742D02*
X9814Y10242D01*
X10814Y13242D02*
X10814Y12742D01*
X10814Y12742D02*
X10564Y12492D01*
X10064Y12492D02*
X9814Y12742D01*
X10564Y12492D02*
X10814Y12242D01*
X10814Y12242D02*
X10814Y11742D01*
X10814Y11742D02*
X10564Y11492D01*
X10064Y11492D02*
X9814Y11742D01*
X9814Y11742D02*
X9814Y12242D01*
X9814Y12242D02*
X10064Y12492D01*
X10564Y13492D02*
X10064Y13492D01*
X10814Y13242D02*
X10564Y13492D01*
X10064Y13492D02*
X9814Y13242D01*
X9814Y12742D02*
X9814Y13242D01*
X10564Y1492D02*
X10814Y1242D01*
X10814Y1242D02*
X10814Y742D01*
X10814Y742D02*
X10564Y492D01*
X10064Y492D02*
X9814Y742D01*
X9814Y742D02*
X9814Y1242D01*
X9814Y1242D02*
X10064Y1492D01*
X10064Y492D02*
X10564Y492D01*
X10814Y3242D02*
X10814Y2742D01*
X10814Y2742D02*
X10564Y2492D01*
X10064Y2492D02*
X9814Y2742D01*
X10564Y2492D02*
X10814Y2242D01*
X10814Y2242D02*
X10814Y1742D01*
X10814Y1742D02*
X10564Y1492D01*
X10064Y1492D02*
X9814Y1742D01*
X9814Y1742D02*
X9814Y2242D01*
X9814Y2242D02*
X10064Y2492D01*
X10564Y4492D02*
X10814Y4242D01*
X10814Y4242D02*
X10814Y3742D01*
X10814Y3742D02*
X10564Y3492D01*
X10064Y3492D02*
X9814Y3742D01*
X9814Y3742D02*
X9814Y4242D01*
X9814Y4242D02*
X10064Y4492D01*
X10814Y3242D02*
X10564Y3492D01*
X10064Y3492D02*
X9814Y3242D01*
X9814Y2742D02*
X9814Y3242D01*
X10814Y6242D02*
X10814Y5742D01*
X10814Y5742D02*
X10564Y5492D01*
X10064Y5492D02*
X9814Y5742D01*
X10564Y5492D02*
X10814Y5242D01*
X10814Y5242D02*
X10814Y4742D01*
X10814Y4742D02*
X10564Y4492D01*
X10064Y4492D02*
X9814Y4742D01*
X9814Y4742D02*
X9814Y5242D01*
X9814Y5242D02*
X10064Y5492D01*
X10814Y6242D02*
X10564Y6492D01*
X10064Y6492D02*
X9814Y6242D01*
X9814Y5742D02*
X9814Y6242D01*
G54D20*
X17657Y5452D02*
X17657Y5806D01*
X17657Y5806D02*
X17500Y5806D01*
X17500Y5452D02*
X17500Y5806D01*
X17657Y5452D02*
X17500Y5452D01*
X18168Y5452D02*
X18168Y5806D01*
X18168Y5806D02*
X18011Y5806D01*
X18011Y5452D02*
X18011Y5806D01*
X18168Y5452D02*
X18011Y5452D01*
X17834Y5452D02*
X17834Y5511D01*
X17834Y5511D02*
X17716Y5511D01*
X17716Y5452D02*
X17716Y5511D01*
X17834Y5452D02*
X17716Y5452D01*
X17834Y5747D02*
X17834Y5806D01*
X17834Y5806D02*
X17716Y5806D01*
X17716Y5747D02*
X17716Y5806D01*
X17834Y5747D02*
X17716Y5747D01*
X17834Y5570D02*
X17834Y5688D01*
X17834Y5688D02*
X17716Y5688D01*
X17716Y5570D02*
X17716Y5688D01*
X17834Y5570D02*
X17716Y5570D01*
G54D21*
X17657Y5472D02*
X18011Y5472D01*
X17657Y5786D02*
X18011Y5786D01*
G54D20*
X17657Y6712D02*
X17657Y7066D01*
X17657Y7066D02*
X17500Y7066D01*
X17500Y6712D02*
X17500Y7066D01*
X17657Y6712D02*
X17500Y6712D01*
X18168Y6712D02*
X18168Y7066D01*
X18168Y7066D02*
X18011Y7066D01*
X18011Y6712D02*
X18011Y7066D01*
X18168Y6712D02*
X18011Y6712D01*
X17834Y6712D02*
X17834Y6771D01*
X17834Y6771D02*
X17716Y6771D01*
X17716Y6712D02*
X17716Y6771D01*
X17834Y6712D02*
X17716Y6712D01*
X17834Y7007D02*
X17834Y7066D01*
X17834Y7066D02*
X17716Y7066D01*
X17716Y7007D02*
X17716Y7066D01*
X17834Y7007D02*
X17716Y7007D01*
X17834Y6830D02*
X17834Y6948D01*
X17834Y6948D02*
X17716Y6948D01*
X17716Y6830D02*
X17716Y6948D01*
X17834Y6830D02*
X17716Y6830D01*
G54D21*
X17657Y6732D02*
X18011Y6732D01*
X17657Y7046D02*
X18011Y7046D01*
G54D20*
X14462Y10746D02*
X14406Y10690D01*
X14406Y10690D02*
X14698Y10398D01*
X14754Y10454D02*
X14698Y10398D01*
X14462Y10746D02*
X14754Y10454D01*
X14323Y10607D02*
X14267Y10551D01*
X14267Y10551D02*
X14559Y10259D01*
X14615Y10315D02*
X14559Y10259D01*
X14323Y10607D02*
X14615Y10315D01*
X14183Y10467D02*
X14127Y10411D01*
X14127Y10411D02*
X14419Y10119D01*
X14475Y10175D02*
X14419Y10119D01*
X14183Y10467D02*
X14475Y10175D01*
X14044Y10328D02*
X13988Y10272D01*
X13988Y10272D02*
X14280Y9980D01*
X14336Y10036D02*
X14280Y9980D01*
X14044Y10328D02*
X14336Y10036D01*
X13905Y10189D02*
X13849Y10133D01*
X13849Y10133D02*
X14141Y9841D01*
X14197Y9897D02*
X14141Y9841D01*
X13905Y10189D02*
X14197Y9897D01*
X13765Y10049D02*
X13710Y9994D01*
X13710Y9994D02*
X14002Y9702D01*
X14057Y9757D02*
X14002Y9702D01*
X13765Y10049D02*
X14057Y9757D01*
X13627Y9911D02*
X13572Y9856D01*
X13572Y9856D02*
X13864Y9564D01*
X13919Y9619D02*
X13864Y9564D01*
X13627Y9911D02*
X13919Y9619D01*
X13488Y9772D02*
X13432Y9716D01*
X13432Y9716D02*
X13724Y9424D01*
X13780Y9480D02*
X13724Y9424D01*
X13488Y9772D02*
X13780Y9480D01*
X13349Y9633D02*
X13293Y9577D01*
X13293Y9577D02*
X13585Y9285D01*
X13641Y9341D02*
X13585Y9285D01*
X13349Y9633D02*
X13641Y9341D01*
X13210Y9494D02*
X13154Y9438D01*
X13154Y9438D02*
X13446Y9146D01*
X13502Y9202D02*
X13446Y9146D01*
X13210Y9494D02*
X13502Y9202D01*
X13070Y9354D02*
X13014Y9298D01*
X13014Y9298D02*
X13306Y9006D01*
X13362Y9062D02*
X13306Y9006D01*
X13070Y9354D02*
X13362Y9062D01*
X12931Y9215D02*
X12875Y9159D01*
X12875Y9159D02*
X13167Y8867D01*
X13223Y8923D02*
X13167Y8867D01*
X12931Y9215D02*
X13223Y8923D01*
X13167Y8533D02*
X12875Y8241D01*
X12875Y8241D02*
X12931Y8186D01*
X13223Y8478D02*
X12931Y8186D01*
X13167Y8533D02*
X13223Y8478D01*
X13306Y8394D02*
X13014Y8102D01*
X13014Y8102D02*
X13070Y8046D01*
X13362Y8338D02*
X13070Y8046D01*
X13306Y8394D02*
X13362Y8338D01*
X13446Y8255D02*
X13154Y7963D01*
X13154Y7963D02*
X13210Y7907D01*
X13502Y8199D02*
X13210Y7907D01*
X13446Y8255D02*
X13502Y8199D01*
X13585Y8116D02*
X13293Y7823D01*
X13293Y7823D02*
X13349Y7768D01*
X13641Y8060D02*
X13349Y7768D01*
X13585Y8116D02*
X13641Y8060D01*
X13724Y7976D02*
X13432Y7684D01*
X13432Y7684D02*
X13488Y7628D01*
X13780Y7920D02*
X13488Y7628D01*
X13724Y7976D02*
X13780Y7920D01*
X13864Y7837D02*
X13572Y7545D01*
X13572Y7545D02*
X13627Y7490D01*
X13919Y7782D02*
X13627Y7490D01*
X13864Y7837D02*
X13919Y7782D01*
X14002Y7698D02*
X13710Y7406D01*
X13710Y7406D02*
X13765Y7351D01*
X14057Y7643D02*
X13765Y7351D01*
X14002Y7698D02*
X14057Y7643D01*
X14141Y7560D02*
X13849Y7268D01*
X13849Y7268D02*
X13905Y7212D01*
X14197Y7504D02*
X13905Y7212D01*
X14141Y7560D02*
X14197Y7504D01*
X14280Y7420D02*
X13988Y7128D01*
X13988Y7128D02*
X14044Y7073D01*
X14336Y7365D02*
X14044Y7073D01*
X14280Y7420D02*
X14336Y7365D01*
X14419Y7281D02*
X14127Y6989D01*
X14127Y6989D02*
X14183Y6933D01*
X14475Y7225D02*
X14183Y6933D01*
X14419Y7281D02*
X14475Y7225D01*
X14559Y7142D02*
X14267Y6850D01*
X14267Y6850D02*
X14323Y6794D01*
X14615Y7086D02*
X14323Y6794D01*
X14559Y7142D02*
X14615Y7086D01*
X14698Y7003D02*
X14406Y6710D01*
X14406Y6710D02*
X14462Y6655D01*
X14754Y6947D02*
X14462Y6655D01*
X14698Y7003D02*
X14754Y6947D01*
X15143Y7003D02*
X15088Y6947D01*
X15088Y6947D02*
X15380Y6655D01*
X15436Y6710D02*
X15380Y6655D01*
X15143Y7003D02*
X15436Y6710D01*
X15283Y7142D02*
X15227Y7086D01*
X15227Y7086D02*
X15519Y6794D01*
X15575Y6850D02*
X15519Y6794D01*
X15283Y7142D02*
X15575Y6850D01*
X15422Y7281D02*
X15366Y7225D01*
X15366Y7225D02*
X15658Y6933D01*
X15714Y6989D02*
X15658Y6933D01*
X15422Y7281D02*
X15714Y6989D01*
X15561Y7420D02*
X15506Y7365D01*
X15506Y7365D02*
X15798Y7073D01*
X15853Y7128D02*
X15798Y7073D01*
X15561Y7420D02*
X15853Y7128D01*
X15701Y7560D02*
X15645Y7504D01*
X15645Y7504D02*
X15937Y7212D01*
X15993Y7268D02*
X15937Y7212D01*
X15701Y7560D02*
X15993Y7268D01*
X15839Y7698D02*
X15784Y7643D01*
X15784Y7643D02*
X16076Y7351D01*
X16131Y7406D02*
X16076Y7351D01*
X15839Y7698D02*
X16131Y7406D01*
X15978Y7837D02*
X15923Y7782D01*
X15923Y7782D02*
X16215Y7490D01*
X16270Y7545D02*
X16215Y7490D01*
X15978Y7837D02*
X16270Y7545D01*
X16117Y7976D02*
X16061Y7920D01*
X16061Y7920D02*
X16353Y7628D01*
X16409Y7684D02*
X16353Y7628D01*
X16117Y7976D02*
X16409Y7684D01*
X16256Y8116D02*
X16201Y8060D01*
X16201Y8060D02*
X16493Y7768D01*
X16549Y7823D02*
X16493Y7768D01*
X16256Y8116D02*
X16549Y7823D01*
X16396Y8255D02*
X16340Y8199D01*
X16340Y8199D02*
X16632Y7907D01*
X16688Y7963D02*
X16632Y7907D01*
X16396Y8255D02*
X16688Y7963D01*
X16535Y8394D02*
X16479Y8338D01*
X16479Y8338D02*
X16771Y8046D01*
X16827Y8102D02*
X16771Y8046D01*
X16535Y8394D02*
X16827Y8102D01*
X16674Y8533D02*
X16619Y8478D01*
X16619Y8478D02*
X16911Y8186D01*
X16966Y8241D02*
X16911Y8186D01*
X16674Y8533D02*
X16966Y8241D01*
X16911Y9215D02*
X16619Y8923D01*
X16619Y8923D02*
X16674Y8867D01*
X16966Y9159D02*
X16674Y8867D01*
X16911Y9215D02*
X16966Y9159D01*
X16771Y9354D02*
X16479Y9062D01*
X16479Y9062D02*
X16535Y9006D01*
X16827Y9298D02*
X16535Y9006D01*
X16771Y9354D02*
X16827Y9298D01*
X16632Y9494D02*
X16340Y9202D01*
X16340Y9202D02*
X16396Y9146D01*
X16688Y9438D02*
X16396Y9146D01*
X16632Y9494D02*
X16688Y9438D01*
X16493Y9633D02*
X16201Y9341D01*
X16201Y9341D02*
X16256Y9285D01*
X16549Y9577D02*
X16256Y9285D01*
X16493Y9633D02*
X16549Y9577D01*
X16353Y9772D02*
X16061Y9480D01*
X16061Y9480D02*
X16117Y9424D01*
X16409Y9716D02*
X16117Y9424D01*
X16353Y9772D02*
X16409Y9716D01*
X16215Y9911D02*
X15923Y9619D01*
X15923Y9619D02*
X15978Y9564D01*
X16270Y9856D02*
X15978Y9564D01*
X16215Y9911D02*
X16270Y9856D01*
X16076Y10049D02*
X15784Y9757D01*
X15784Y9757D02*
X15839Y9702D01*
X16131Y9994D02*
X15839Y9702D01*
X16076Y10049D02*
X16131Y9994D01*
X15937Y10189D02*
X15645Y9897D01*
X15645Y9897D02*
X15701Y9841D01*
X15993Y10133D02*
X15701Y9841D01*
X15937Y10189D02*
X15993Y10133D01*
X15798Y10328D02*
X15506Y10036D01*
X15506Y10036D02*
X15561Y9980D01*
X15853Y10272D02*
X15561Y9980D01*
X15798Y10328D02*
X15853Y10272D01*
X15658Y10467D02*
X15366Y10175D01*
X15366Y10175D02*
X15422Y10119D01*
X15714Y10411D02*
X15422Y10119D01*
X15658Y10467D02*
X15714Y10411D01*
X15519Y10607D02*
X15227Y10315D01*
X15227Y10315D02*
X15283Y10259D01*
X15575Y10551D02*
X15283Y10259D01*
X15519Y10607D02*
X15575Y10551D01*
X15380Y10746D02*
X15088Y10454D01*
X15088Y10454D02*
X15143Y10398D01*
X15436Y10690D02*
X15143Y10398D01*
X15380Y10746D02*
X15436Y10690D01*
G54D22*
X16722Y8777D02*
X16722Y8624D01*
X16722Y8624D02*
X14997Y6899D01*
X14997Y6899D02*
X14844Y6899D01*
X14844Y6899D02*
X13119Y8624D01*
X13119Y8624D02*
X13119Y8777D01*
X13119Y8777D02*
X14844Y10502D01*
X14844Y10502D02*
X14997Y10502D01*
X14997Y10502D02*
X16722Y8777D01*
G54D18*
X15088Y9813D02*
G75*
G03X15088Y9813I-166J0D01*
G74*
G01*
X17266Y19541D02*
X18166Y19541D01*
X18166Y19541D02*
X18166Y19041D01*
X18166Y19041D02*
X17266Y19041D01*
X17266Y19041D02*
X17266Y19541D01*
G54D20*
X18995Y19468D02*
X18995Y19114D01*
X18995Y19114D02*
X19152Y19114D01*
X19152Y19468D02*
X19152Y19114D01*
X18995Y19468D02*
X19152Y19468D01*
X18484Y19468D02*
X18484Y19114D01*
X18484Y19114D02*
X18641Y19114D01*
X18641Y19468D02*
X18641Y19114D01*
X18484Y19468D02*
X18641Y19468D01*
X18818Y19468D02*
X18818Y19409D01*
X18818Y19409D02*
X18936Y19409D01*
X18936Y19468D02*
X18936Y19409D01*
X18818Y19468D02*
X18936Y19468D01*
X18818Y19173D02*
X18818Y19114D01*
X18818Y19114D02*
X18936Y19114D01*
X18936Y19173D02*
X18936Y19114D01*
X18818Y19173D02*
X18936Y19173D01*
X18818Y19350D02*
X18818Y19232D01*
X18818Y19232D02*
X18936Y19232D01*
X18936Y19350D02*
X18936Y19232D01*
X18818Y19350D02*
X18936Y19350D01*
G54D21*
X18995Y19448D02*
X18641Y19448D01*
X18995Y19134D02*
X18641Y19134D01*
G54D19*
X6694Y19988D02*
X7194Y19988D01*
X7194Y19988D02*
X7444Y19738D01*
X7444Y19238D02*
X7194Y18988D01*
X5444Y19738D02*
X5694Y19988D01*
X5694Y19988D02*
X6194Y19988D01*
X6194Y19988D02*
X6444Y19738D01*
X6444Y19238D02*
X6194Y18988D01*
X6194Y18988D02*
X5694Y18988D01*
X5694Y18988D02*
X5444Y19238D01*
X6694Y19988D02*
X6444Y19738D01*
X6444Y19238D02*
X6694Y18988D01*
X7194Y18988D02*
X6694Y18988D01*
X3694Y19988D02*
X4194Y19988D01*
X4194Y19988D02*
X4444Y19738D01*
X4444Y19238D02*
X4194Y18988D01*
X4444Y19738D02*
X4694Y19988D01*
X4694Y19988D02*
X5194Y19988D01*
X5194Y19988D02*
X5444Y19738D01*
X5444Y19238D02*
X5194Y18988D01*
X5194Y18988D02*
X4694Y18988D01*
X4694Y18988D02*
X4444Y19238D01*
X2444Y19738D02*
X2694Y19988D01*
X2694Y19988D02*
X3194Y19988D01*
X3194Y19988D02*
X3444Y19738D01*
X3444Y19238D02*
X3194Y18988D01*
X3194Y18988D02*
X2694Y18988D01*
X2694Y18988D02*
X2444Y19238D01*
X3694Y19988D02*
X3444Y19738D01*
X3444Y19238D02*
X3694Y18988D01*
X4194Y18988D02*
X3694Y18988D01*
X694Y19988D02*
X1194Y19988D01*
X1194Y19988D02*
X1444Y19738D01*
X1444Y19238D02*
X1194Y18988D01*
X1444Y19738D02*
X1694Y19988D01*
X1694Y19988D02*
X2194Y19988D01*
X2194Y19988D02*
X2444Y19738D01*
X2444Y19238D02*
X2194Y18988D01*
X2194Y18988D02*
X1694Y18988D01*
X1694Y18988D02*
X1444Y19238D01*
X444Y19738D02*
X444Y19238D01*
X694Y19988D02*
X444Y19738D01*
X444Y19238D02*
X694Y18988D01*
X1194Y18988D02*
X694Y18988D01*
X7694Y19988D02*
X8194Y19988D01*
X8194Y19988D02*
X8444Y19738D01*
X8444Y19738D02*
X8444Y19238D01*
X8444Y19238D02*
X8194Y18988D01*
X7694Y19988D02*
X7444Y19738D01*
X7444Y19238D02*
X7694Y18988D01*
X8194Y18988D02*
X7694Y18988D01*
X6694Y14988D02*
X7194Y14988D01*
X7194Y14988D02*
X7444Y14738D01*
X7444Y14238D02*
X7194Y13988D01*
X5444Y14738D02*
X5694Y14988D01*
X5694Y14988D02*
X6194Y14988D01*
X6194Y14988D02*
X6444Y14738D01*
X6444Y14238D02*
X6194Y13988D01*
X6194Y13988D02*
X5694Y13988D01*
X5694Y13988D02*
X5444Y14238D01*
X6694Y14988D02*
X6444Y14738D01*
X6444Y14238D02*
X6694Y13988D01*
X7194Y13988D02*
X6694Y13988D01*
X3694Y14988D02*
X4194Y14988D01*
X4194Y14988D02*
X4444Y14738D01*
X4444Y14238D02*
X4194Y13988D01*
X4444Y14738D02*
X4694Y14988D01*
X4694Y14988D02*
X5194Y14988D01*
X5194Y14988D02*
X5444Y14738D01*
X5444Y14238D02*
X5194Y13988D01*
X5194Y13988D02*
X4694Y13988D01*
X4694Y13988D02*
X4444Y14238D01*
X2444Y14738D02*
X2694Y14988D01*
X2694Y14988D02*
X3194Y14988D01*
X3194Y14988D02*
X3444Y14738D01*
X3444Y14238D02*
X3194Y13988D01*
X3194Y13988D02*
X2694Y13988D01*
X2694Y13988D02*
X2444Y14238D01*
X3694Y14988D02*
X3444Y14738D01*
X3444Y14238D02*
X3694Y13988D01*
X4194Y13988D02*
X3694Y13988D01*
X694Y14988D02*
X1194Y14988D01*
X1194Y14988D02*
X1444Y14738D01*
X1444Y14238D02*
X1194Y13988D01*
X1444Y14738D02*
X1694Y14988D01*
X1694Y14988D02*
X2194Y14988D01*
X2194Y14988D02*
X2444Y14738D01*
X2444Y14238D02*
X2194Y13988D01*
X2194Y13988D02*
X1694Y13988D01*
X1694Y13988D02*
X1444Y14238D01*
X444Y14738D02*
X444Y14238D01*
X694Y14988D02*
X444Y14738D01*
X444Y14238D02*
X694Y13988D01*
X1194Y13988D02*
X694Y13988D01*
X7694Y14988D02*
X8194Y14988D01*
X8194Y14988D02*
X8444Y14738D01*
X8444Y14738D02*
X8444Y14238D01*
X8444Y14238D02*
X8194Y13988D01*
X7694Y14988D02*
X7444Y14738D01*
X7444Y14238D02*
X7694Y13988D01*
X8194Y13988D02*
X7694Y13988D01*
X11783Y1420D02*
X12033Y1670D01*
X12033Y1670D02*
X12533Y1670D01*
X12533Y1670D02*
X12783Y1420D01*
X12783Y1420D02*
X13033Y1670D01*
X13033Y1670D02*
X13533Y1670D01*
X13533Y1670D02*
X13783Y1420D01*
X13783Y1420D02*
X14033Y1670D01*
X14033Y1670D02*
X14533Y1670D01*
X14533Y1670D02*
X14783Y1420D01*
X14783Y1420D02*
X15033Y1670D01*
X15033Y1670D02*
X15533Y1670D01*
X15533Y1670D02*
X15783Y1420D01*
X15783Y1420D02*
X16033Y1670D01*
X16033Y1670D02*
X16533Y1670D01*
X16533Y1670D02*
X16783Y1420D01*
X16783Y1420D02*
X17033Y1670D01*
X17033Y1670D02*
X17533Y1670D01*
X17533Y1670D02*
X17783Y1420D01*
X17783Y1420D02*
X17783Y920D01*
X17783Y920D02*
X17533Y670D01*
X17533Y670D02*
X17033Y670D01*
X17033Y670D02*
X16783Y920D01*
X16783Y920D02*
X16533Y670D01*
X16533Y670D02*
X16033Y670D01*
X16033Y670D02*
X15783Y920D01*
X15783Y920D02*
X15533Y670D01*
X15533Y670D02*
X15033Y670D01*
X15033Y670D02*
X14783Y920D01*
X14783Y920D02*
X14533Y670D01*
X14533Y670D02*
X14033Y670D01*
X14033Y670D02*
X13783Y920D01*
X13783Y920D02*
X13533Y670D01*
X13533Y670D02*
X13033Y670D01*
X13033Y670D02*
X12783Y920D01*
X12783Y920D02*
X12533Y670D01*
X12533Y670D02*
X12033Y670D01*
X12033Y670D02*
X11783Y920D01*
X11783Y920D02*
X11783Y1420D01*
X12783Y1420D02*
X12783Y920D01*
X13783Y1420D02*
X13783Y920D01*
X14783Y1420D02*
X14783Y920D01*
X15783Y1420D02*
X15783Y920D01*
X16783Y1420D02*
X16783Y920D01*
X6648Y16707D02*
X6348Y16707D01*
X6348Y16707D02*
X6348Y17307D01*
X6348Y17307D02*
X6648Y17307D01*
X2248Y16107D02*
X2248Y17907D01*
X2248Y17907D02*
X6648Y17907D01*
X6648Y17907D02*
X6648Y16107D01*
X6648Y16107D02*
X2248Y16107D01*
G54D16*
X12333Y8966D02*
G75*
G03X12333Y8966I-50J0D01*
G74*
G01*
X12601Y9284D02*
X12318Y9001D01*
X12318Y9001D02*
X11894Y9425D01*
X11894Y9425D02*
X12177Y9708D01*
X12460Y9991D02*
X12743Y10274D01*
X12743Y10274D02*
X13167Y9849D01*
X13167Y9849D02*
X12884Y9567D01*
X16181Y11687D02*
G75*
G03X16181Y11687I-50J0D01*
G74*
G01*
X15681Y11687D02*
X16081Y11687D01*
X16081Y11687D02*
X16081Y11087D01*
X16081Y11087D02*
X15681Y11087D01*
X15281Y11087D02*
X14881Y11087D01*
X14881Y11087D02*
X14881Y11687D01*
X14881Y11687D02*
X15281Y11687D01*
X15228Y6559D02*
G75*
G03X15228Y6559I-50J0D01*
G74*
G01*
X14860Y6241D02*
X15143Y6524D01*
X15143Y6524D02*
X15567Y6099D01*
X15567Y6099D02*
X15284Y5817D01*
X15001Y5534D02*
X14718Y5251D01*
X14718Y5251D02*
X14294Y5675D01*
X14294Y5675D02*
X14577Y5958D01*
G54D10*
X17568Y8730D02*
X17568Y8198D01*
X18100Y8198D01*
X18100Y8730D01*
X17568Y8730D01*
X14005Y18167D02*
G75*
G03X14005Y18167I-147J0D01*
G74*
G01*
X15737Y18168D02*
G75*
G03X15737Y18168I-147J0D01*
G74*
G01*
%LPC*%
G54D23*
X17834Y8464D03*
G54D24*
X13858Y18167D03*
G54D25*
X15354Y17145D03*
X15039Y17145D03*
X14724Y17145D03*
X14409Y17145D03*
X14094Y17145D03*
G54D26*
X16476Y17184D03*
X16476Y19349D03*
X12972Y17184D03*
X12972Y19349D03*
G54D24*
X15590Y18168D03*
G54D27*
X2441Y11554D03*
X2441Y11200D03*
G54D28*
X6076Y1582D03*
X6076Y2332D03*
G54D27*
X6606Y5695D03*
X6606Y6049D03*
X6601Y7429D03*
X6601Y7075D03*
G54D29*
X5081Y2432D03*
X5081Y1432D03*
X4081Y2432D03*
X4081Y1432D03*
X3081Y2432D03*
X3081Y1432D03*
X2081Y2432D03*
X2081Y1432D03*
G54D30*
X2982Y12717D03*
X1900Y12717D03*
G54D31*
X2441Y12117D03*
X2441Y13317D03*
G54D32*
X1318Y9857D03*
X1318Y9385D03*
X1318Y8913D03*
X1318Y8440D03*
X1318Y7968D03*
X1318Y7496D03*
X1318Y7024D03*
X1318Y6551D03*
X1318Y6079D03*
X1318Y5607D03*
G54D33*
X1968Y4878D03*
X2440Y4878D03*
X2913Y4878D03*
X3385Y4878D03*
X3857Y4878D03*
X4329Y4878D03*
X4802Y4878D03*
X5274Y4878D03*
G54D32*
X5924Y5607D03*
X5924Y6079D03*
X5924Y6551D03*
X5924Y7024D03*
X5924Y7496D03*
X5924Y7968D03*
X5924Y8440D03*
X5924Y8913D03*
X5924Y9385D03*
X5924Y9857D03*
G54D33*
X5274Y10586D03*
X4802Y10586D03*
X4329Y10586D03*
X3857Y10586D03*
X3385Y10586D03*
X2913Y10586D03*
X2440Y10586D03*
X1968Y10586D03*
G54D34*
X2775Y9149D03*
X2775Y7732D03*
X2775Y6315D03*
X4467Y9149D03*
X4467Y7732D03*
X4467Y6315D03*
G54D35*
X1318Y10586D03*
X1318Y4878D03*
X5924Y4878D03*
X5924Y10586D03*
G54D29*
X8081Y10737D03*
X8081Y9737D03*
X8081Y8737D03*
X8081Y7737D03*
X8081Y6737D03*
X8081Y5737D03*
X8081Y4737D03*
X8081Y3737D03*
G54D36*
X18012Y17440D03*
X17262Y17440D03*
G54D28*
X13110Y12026D03*
X13110Y12776D03*
G54D37*
X13760Y13622D03*
X14114Y13622D03*
X15728Y13622D03*
X15374Y13622D03*
G54D29*
X12283Y2215D03*
X13283Y2115D03*
X14283Y2215D03*
X15283Y2115D03*
G54D38*
X17105Y14881D03*
X13287Y14881D03*
G54D28*
X19173Y15020D03*
X19173Y14270D03*
G54D29*
X12174Y4173D03*
X13314Y4173D03*
X16369Y4212D03*
X15229Y4212D03*
X12174Y5196D03*
X13314Y5196D03*
X12134Y6181D03*
X13274Y6181D03*
X19330Y984D03*
X19330Y1984D03*
X19330Y2984D03*
X19330Y3984D03*
X19330Y4984D03*
X19330Y5984D03*
X19330Y6984D03*
X19330Y7984D03*
X19330Y8984D03*
X19330Y9984D03*
X19330Y10984D03*
X19330Y11984D03*
X19330Y12984D03*
X10314Y12992D03*
X10314Y11992D03*
X10314Y10992D03*
X10314Y9992D03*
X10314Y8992D03*
X10314Y7992D03*
X10314Y6992D03*
X10314Y5992D03*
X10314Y4992D03*
X10314Y3992D03*
X10314Y2992D03*
X10314Y1992D03*
X10314Y992D03*
G54D39*
X18129Y5629D03*
X17539Y5629D03*
X18129Y6889D03*
X17539Y6889D03*
G54D10*
G36*
X14379Y10843D02*
X14697Y10525D01*
X14627Y10454D01*
X14308Y10772D01*
X14379Y10843D01*
X14379Y10843D01*
G37*
G36*
X14240Y10704D02*
X14558Y10385D01*
X14487Y10315D01*
X14169Y10633D01*
X14240Y10704D01*
X14240Y10704D01*
G37*
G36*
X14101Y10564D02*
X14419Y10246D01*
X14348Y10175D01*
X14030Y10494D01*
X14101Y10564D01*
X14101Y10564D01*
G37*
G36*
X13962Y10426D02*
X14280Y10107D01*
X14209Y10037D01*
X13891Y10355D01*
X13962Y10426D01*
X13962Y10426D01*
G37*
G36*
X13823Y10286D02*
X14141Y9968D01*
X14070Y9897D01*
X13752Y10216D01*
X13823Y10286D01*
X13823Y10286D01*
G37*
G36*
X13683Y10147D02*
X14002Y9829D01*
X13931Y9758D01*
X13613Y10076D01*
X13683Y10147D01*
X13683Y10147D01*
G37*
G36*
X13545Y10008D02*
X13863Y9690D01*
X13792Y9620D01*
X13474Y9938D01*
X13545Y10008D01*
X13545Y10008D01*
G37*
G36*
X13405Y9869D02*
X13724Y9551D01*
X13653Y9480D01*
X13335Y9798D01*
X13405Y9869D01*
X13405Y9869D01*
G37*
G36*
X13266Y9730D02*
X13584Y9412D01*
X13514Y9341D01*
X13195Y9659D01*
X13266Y9730D01*
X13266Y9730D01*
G37*
G36*
X13128Y9591D02*
X13446Y9273D01*
X13375Y9202D01*
X13057Y9521D01*
X13128Y9591D01*
X13128Y9591D01*
G37*
G36*
X12988Y9452D02*
X13306Y9134D01*
X13236Y9063D01*
X12918Y9381D01*
X12988Y9452D01*
X12988Y9452D01*
G37*
G36*
X12849Y9313D02*
X13167Y8994D01*
X13096Y8924D01*
X12778Y9242D01*
X12849Y9313D01*
X12849Y9313D01*
G37*
G36*
X13096Y8477D02*
X13167Y8406D01*
X12849Y8088D01*
X12778Y8159D01*
X13096Y8477D01*
X13096Y8477D01*
G37*
G36*
X13236Y8338D02*
X13306Y8267D01*
X12988Y7949D01*
X12918Y8019D01*
X13236Y8338D01*
X13236Y8338D01*
G37*
G36*
X13375Y8198D02*
X13446Y8128D01*
X13128Y7809D01*
X13057Y7880D01*
X13375Y8198D01*
X13375Y8198D01*
G37*
G36*
X13514Y8060D02*
X13584Y7989D01*
X13266Y7671D01*
X13195Y7741D01*
X13514Y8060D01*
X13514Y8060D01*
G37*
G36*
X13653Y7920D02*
X13724Y7850D01*
X13405Y7531D01*
X13335Y7602D01*
X13653Y7920D01*
X13653Y7920D01*
G37*
G36*
X13792Y7781D02*
X13863Y7710D01*
X13545Y7392D01*
X13474Y7463D01*
X13792Y7781D01*
X13792Y7781D01*
G37*
G36*
X13931Y7642D02*
X14002Y7572D01*
X13683Y7254D01*
X13613Y7324D01*
X13931Y7642D01*
X13931Y7642D01*
G37*
G36*
X14070Y7503D02*
X14141Y7432D01*
X13823Y7114D01*
X13752Y7185D01*
X14070Y7503D01*
X14070Y7503D01*
G37*
G36*
X14209Y7364D02*
X14280Y7293D01*
X13962Y6975D01*
X13891Y7046D01*
X14209Y7364D01*
X14209Y7364D01*
G37*
G36*
X14348Y7225D02*
X14419Y7155D01*
X14101Y6836D01*
X14030Y6907D01*
X14348Y7225D01*
X14348Y7225D01*
G37*
G36*
X14487Y7086D02*
X14558Y7015D01*
X14240Y6697D01*
X14169Y6768D01*
X14487Y7086D01*
X14487Y7086D01*
G37*
G36*
X14627Y6947D02*
X14697Y6876D01*
X14379Y6558D01*
X14308Y6628D01*
X14627Y6947D01*
X14627Y6947D01*
G37*
G36*
X15215Y6947D02*
X15533Y6628D01*
X15462Y6558D01*
X15144Y6876D01*
X15215Y6947D01*
X15215Y6947D01*
G37*
G36*
X15354Y7086D02*
X15672Y6768D01*
X15602Y6697D01*
X15284Y7015D01*
X15354Y7086D01*
X15354Y7086D01*
G37*
G36*
X15494Y7225D02*
X15812Y6907D01*
X15741Y6836D01*
X15423Y7155D01*
X15494Y7225D01*
X15494Y7225D01*
G37*
G36*
X15632Y7364D02*
X15950Y7046D01*
X15880Y6975D01*
X15561Y7293D01*
X15632Y7364D01*
X15632Y7364D01*
G37*
G36*
X15771Y7503D02*
X16090Y7185D01*
X16019Y7114D01*
X15701Y7432D01*
X15771Y7503D01*
X15771Y7503D01*
G37*
G36*
X15911Y7642D02*
X16229Y7324D01*
X16158Y7254D01*
X15840Y7572D01*
X15911Y7642D01*
X15911Y7642D01*
G37*
G36*
X16049Y7781D02*
X16368Y7463D01*
X16297Y7392D01*
X15979Y7710D01*
X16049Y7781D01*
X16049Y7781D01*
G37*
G36*
X16189Y7920D02*
X16507Y7602D01*
X16436Y7531D01*
X16118Y7850D01*
X16189Y7920D01*
X16189Y7920D01*
G37*
G36*
X16328Y8060D02*
X16646Y7741D01*
X16575Y7671D01*
X16257Y7989D01*
X16328Y8060D01*
X16328Y8060D01*
G37*
G36*
X16466Y8198D02*
X16785Y7880D01*
X16714Y7809D01*
X16396Y8128D01*
X16466Y8198D01*
X16466Y8198D01*
G37*
G36*
X16606Y8338D02*
X16924Y8019D01*
X16853Y7949D01*
X16535Y8267D01*
X16606Y8338D01*
X16606Y8338D01*
G37*
G36*
X16745Y8477D02*
X17063Y8159D01*
X16993Y8088D01*
X16674Y8406D01*
X16745Y8477D01*
X16745Y8477D01*
G37*
G36*
X16993Y9313D02*
X17063Y9242D01*
X16745Y8924D01*
X16674Y8994D01*
X16993Y9313D01*
X16993Y9313D01*
G37*
G36*
X16853Y9452D02*
X16924Y9381D01*
X16606Y9063D01*
X16535Y9134D01*
X16853Y9452D01*
X16853Y9452D01*
G37*
G36*
X16714Y9591D02*
X16785Y9521D01*
X16466Y9202D01*
X16396Y9273D01*
X16714Y9591D01*
X16714Y9591D01*
G37*
G36*
X16575Y9730D02*
X16646Y9659D01*
X16328Y9341D01*
X16257Y9412D01*
X16575Y9730D01*
X16575Y9730D01*
G37*
G36*
X16436Y9869D02*
X16507Y9798D01*
X16189Y9480D01*
X16118Y9551D01*
X16436Y9869D01*
X16436Y9869D01*
G37*
G36*
X16297Y10008D02*
X16368Y9938D01*
X16049Y9620D01*
X15979Y9690D01*
X16297Y10008D01*
X16297Y10008D01*
G37*
G36*
X16158Y10147D02*
X16229Y10076D01*
X15911Y9758D01*
X15840Y9829D01*
X16158Y10147D01*
X16158Y10147D01*
G37*
G36*
X16019Y10286D02*
X16090Y10216D01*
X15771Y9897D01*
X15701Y9968D01*
X16019Y10286D01*
X16019Y10286D01*
G37*
G36*
X15880Y10426D02*
X15950Y10355D01*
X15632Y10037D01*
X15561Y10107D01*
X15880Y10426D01*
X15880Y10426D01*
G37*
G36*
X15741Y10564D02*
X15812Y10494D01*
X15494Y10175D01*
X15423Y10246D01*
X15741Y10564D01*
X15741Y10564D01*
G37*
G36*
X15602Y10704D02*
X15672Y10633D01*
X15354Y10315D01*
X15284Y10385D01*
X15602Y10704D01*
X15602Y10704D01*
G37*
G36*
X15462Y10843D02*
X15533Y10772D01*
X15215Y10454D01*
X15144Y10525D01*
X15462Y10843D01*
X15462Y10843D01*
G37*
G54D40*
X17416Y19291D03*
X18016Y19291D03*
G54D39*
X18523Y19291D03*
X19113Y19291D03*
G54D29*
X944Y19538D03*
X1944Y19438D03*
X2944Y19538D03*
X3944Y19438D03*
X4944Y19538D03*
X5944Y19438D03*
X6944Y19538D03*
X7944Y19438D03*
X944Y14538D03*
X1944Y14438D03*
X2944Y14538D03*
X3944Y14438D03*
X4944Y14538D03*
X5944Y14438D03*
X6944Y14538D03*
X7944Y14438D03*
X12283Y1220D03*
X13283Y1120D03*
X14283Y1220D03*
X15283Y1120D03*
X16283Y1220D03*
X17283Y1120D03*
G54D41*
X6198Y15757D03*
X5198Y15757D03*
X4698Y15757D03*
X4198Y15757D03*
X3698Y15757D03*
X3198Y15757D03*
X2698Y15757D03*
X2698Y18257D03*
X3198Y18257D03*
X3698Y18257D03*
X4198Y18257D03*
X4698Y18257D03*
X5198Y18257D03*
X5698Y18257D03*
X6198Y18257D03*
X5698Y15757D03*
G54D10*
G36*
X12336Y9054D02*
X11947Y9443D01*
X12195Y9690D01*
X12584Y9301D01*
X12336Y9054D01*
X12336Y9054D01*
G37*
G36*
X12866Y9584D02*
X12478Y9973D01*
X12725Y10221D01*
X13114Y9832D01*
X12866Y9584D01*
X12866Y9584D01*
G37*
G54D36*
X15856Y11387D03*
X15106Y11387D03*
G54D10*
G36*
X15125Y6471D02*
X15514Y6082D01*
X15266Y5834D01*
X14878Y6223D01*
X15125Y6471D01*
X15125Y6471D01*
G37*
G36*
X14595Y5940D02*
X14984Y5551D01*
X14736Y5304D01*
X14347Y5693D01*
X14595Y5940D01*
X14595Y5940D01*
G37*
M02*
