G04 (created by PCBNEW (2013-mar-13)-testing) date Thu 22 Aug 2013 04:52:17 PM WEST*
%MOIN*%
G04 Gerber Fmt 3.4, Leading zero omitted, Abs format*
%FSLAX34Y34*%
G01*
G70*
G90*
G04 APERTURE LIST*
%ADD10C,0.005906*%
%ADD11C,0.003937*%
%ADD12C,0.035400*%
%ADD13O,0.074000X0.074000*%
%ADD14R,0.055000X0.035000*%
%ADD15R,0.035000X0.055000*%
%ADD16R,0.055100X0.023600*%
%ADD17R,0.048000X0.088000*%
%ADD18R,0.141700X0.086600*%
%ADD19R,0.025000X0.045000*%
%ADD20R,0.039400X0.023600*%
%ADD21R,0.045000X0.025000*%
%ADD22R,0.015700X0.062900*%
G04 APERTURE END LIST*
G54D10*
G54D11*
X1181Y393D02*
X20078Y393D01*
X393Y20078D02*
X393Y1181D01*
X393Y1181D02*
G75*
G03X1181Y393I787J0D01*
G74*
G01*
X20078Y20078D02*
X20078Y393D01*
X393Y20078D02*
X20078Y20078D01*
G54D12*
X13858Y18167D03*
X15590Y18168D03*
G54D13*
X5081Y2432D03*
X5081Y1432D03*
X4081Y2432D03*
X4081Y1432D03*
X3081Y2432D03*
X3081Y1432D03*
X2081Y2432D03*
X2081Y1432D03*
X8081Y10737D03*
X8081Y9737D03*
X8081Y8737D03*
X8081Y7737D03*
X8081Y6737D03*
X8081Y5737D03*
X8081Y4737D03*
X8081Y3737D03*
G54D14*
X17125Y9863D03*
X17125Y9113D03*
G54D15*
X17853Y14488D03*
X18603Y14488D03*
G54D14*
X17834Y9113D03*
X17834Y9863D03*
X12401Y11987D03*
X12401Y12737D03*
X13110Y11477D03*
X13110Y10727D03*
X12401Y11477D03*
X12401Y10727D03*
X13110Y11987D03*
X13110Y12737D03*
X17637Y11199D03*
X17637Y11949D03*
X18307Y11199D03*
X18307Y11949D03*
G54D13*
X12283Y2215D03*
X13283Y2115D03*
X14283Y2215D03*
X15283Y2115D03*
G54D16*
X16548Y16694D03*
X18648Y16694D03*
X16548Y16194D03*
X16548Y15694D03*
X16548Y15194D03*
X18648Y16194D03*
X18648Y15694D03*
X18648Y15194D03*
G54D15*
X17343Y13700D03*
X16593Y13700D03*
X17853Y13700D03*
X18603Y13700D03*
X17343Y14488D03*
X16593Y14488D03*
G54D14*
X11732Y10727D03*
X11732Y11477D03*
X11732Y12737D03*
X11732Y11987D03*
X16417Y9115D03*
X16417Y8365D03*
X15748Y9115D03*
X15748Y8365D03*
G54D17*
X10664Y17361D03*
X11574Y17361D03*
X12484Y17361D03*
G54D18*
X11574Y14921D03*
G54D19*
X10841Y19055D03*
X11441Y19055D03*
X10841Y18307D03*
X11441Y18307D03*
X14591Y5196D03*
X13991Y5196D03*
X14591Y5866D03*
X13991Y5866D03*
G54D13*
X12174Y4173D03*
X13314Y4173D03*
X16369Y4212D03*
X15229Y4212D03*
X12174Y5196D03*
X13314Y5196D03*
X12134Y6181D03*
X13274Y6181D03*
X19330Y984D03*
X19330Y1984D03*
X19330Y2984D03*
X19330Y3984D03*
X19330Y4984D03*
X19330Y5984D03*
X19330Y6984D03*
X19330Y7984D03*
X19330Y8984D03*
X19330Y9984D03*
X19330Y10984D03*
X19330Y11984D03*
X19330Y12984D03*
X10314Y12992D03*
X10314Y11992D03*
X10314Y10992D03*
X10314Y9992D03*
X10314Y8992D03*
X10314Y7992D03*
X10314Y6992D03*
X10314Y5992D03*
X10314Y4992D03*
X10314Y3992D03*
X10314Y2992D03*
X10314Y1992D03*
X10314Y992D03*
G54D19*
X17731Y6889D03*
X18331Y6889D03*
X17692Y5629D03*
X18292Y5629D03*
G54D20*
X16355Y5254D03*
X17187Y5629D03*
X16355Y6004D03*
X16355Y6514D03*
X17187Y6889D03*
X16355Y7264D03*
G54D21*
X15748Y7189D03*
X15748Y6589D03*
X15748Y5329D03*
X15748Y5929D03*
G54D13*
X944Y19538D03*
X1944Y19438D03*
X2944Y19538D03*
X3944Y19438D03*
X4944Y19538D03*
X5944Y19438D03*
X6944Y19538D03*
X7944Y19438D03*
X944Y14538D03*
X1944Y14438D03*
X2944Y14538D03*
X3944Y14438D03*
X4944Y14538D03*
X5944Y14438D03*
X6944Y14538D03*
X7944Y14438D03*
G54D15*
X17262Y17440D03*
X18012Y17440D03*
G54D13*
X12283Y1220D03*
X13283Y1120D03*
X14283Y1220D03*
X15283Y1120D03*
X16283Y1220D03*
X17283Y1120D03*
G54D22*
X3534Y18169D03*
X3789Y18169D03*
X4045Y18169D03*
X4301Y18169D03*
X4556Y18169D03*
X4812Y18169D03*
X5068Y18169D03*
X5324Y18169D03*
X5324Y15847D03*
X5068Y15847D03*
X4812Y15847D03*
X4556Y15847D03*
X4301Y15847D03*
X4045Y15847D03*
X3789Y15847D03*
X3534Y15847D03*
G54D14*
X12086Y18325D03*
X12086Y19075D03*
X9842Y15727D03*
X9842Y16477D03*
M02*
